<svg width="90" height="90" viewBox="0 0 90 90" fill="none" xmlns="http://www.w3.org/2000/svg">
<path d="M82.0641 14.4665C82.0641 9.08686 79.2637 4.27907 75.0411 1.58575C73.9089 0.863465 72.4248 1.69104 72.4248 3.03384V13.4209C72.4248 16.4753 69.9487 18.9514 66.8944 18.9514C63.84 18.9514 61.3639 16.4753 61.3639 13.4209V3.03384C61.3639 1.69087 59.8798 0.863465 58.7476 1.58575C54.5252 4.27907 51.7246 9.08686 51.7246 14.4665C51.7246 18.3481 53.1825 21.8888 55.5807 24.5716C55.6582 24.6584 55.7526 24.7716 55.8607 24.9066C58.2057 27.8352 59.4641 31.4858 59.4641 35.2375V81.2514C59.4641 85.355 62.7907 88.6817 66.8944 88.6817C70.998 88.6817 74.3246 85.355 74.3246 81.2514V35.2375C74.3246 31.4858 75.583 27.8352 77.928 24.9066C78.0361 24.7716 78.1303 24.6584 78.208 24.5716C80.6062 21.8888 82.0641 18.3481 82.0641 14.4665Z" fill="#FE0182"/>
<path d="M66.8946 83.3485C65.523 83.3485 64.4111 82.2367 64.4111 80.8651V30.355C64.4111 28.9834 65.523 27.8716 66.8946 27.8716C68.2662 27.8716 69.378 28.9834 69.378 30.355V80.8649C69.378 82.2365 68.2662 83.3485 66.8946 83.3485Z" fill="#EAF2FF"/>
<path d="M76.4188 49.8212C78.7153 49.8212 80.5855 47.9595 80.5855 45.6629C80.5855 43.3663 78.7152 41.5046 76.4188 41.5046L62.1253 41.493C60.5839 41.493 59.4624 40.2756 59.4629 38.7342V35.1194C55.893 35.1194 52.3933 36.4878 50.1848 39.2924L47.9348 42.1496C46.5657 43.8882 44.4747 44.9032 42.2617 44.9032H26.585V70.202H45.2218C46.1369 70.202 47.044 70.376 47.894 70.7147L53.8539 73.089C57.0055 74.1634 60.3123 74.7115 63.6419 74.7115L71.0687 74.7704C73.4319 74.7704 75.3345 72.7991 75.222 70.4113C75.1445 68.766 74.0814 67.4004 72.6333 66.793C72.5674 66.7655 72.5238 66.7022 72.5238 66.6308C72.5238 66.5331 72.6029 66.454 72.7006 66.454H73.5875C75.7852 66.454 77.6313 64.7009 77.6341 62.5031C77.6371 60.0982 75.9324 58.2307 73.6518 58.1423V58.1378L74.2164 58.1374C76.4764 58.1374 78.4058 56.3803 78.4812 54.1215C78.5547 51.9204 76.9166 50.0872 74.796 49.8483V49.8212H76.4188Z" fill="#F0F0F0"/>
<path d="M10.8575 71.7382H37.0849V43.7176H10.8575C9.24309 43.7176 7.93457 45.0263 7.93457 46.6405V68.8151C7.93457 70.4295 9.24326 71.7382 10.8575 71.7382Z" fill="#D8D8D8"/>
<path d="M37.0851 43.7176H19.8042V60.9902C19.8042 64.063 17.3132 66.5542 14.2402 66.5542H7.93457V68.8153C7.93457 70.4297 9.24326 71.7382 10.8575 71.7382H37.0849L37.0851 43.7176Z" fill="#E4E4E4"/>
<path d="M35.1221 39.8994C33.0089 39.8994 31.2959 41.6124 31.2959 43.7256V70.6495C31.2959 72.7628 33.0089 74.4758 35.1221 74.4758C37.2354 74.4758 38.9484 72.7628 38.9484 70.6495V43.7256C38.9484 41.6126 37.2352 39.8994 35.1221 39.8994Z" fill="#E4E4E4"/>
<path d="M76.4185 49.8212C78.7151 49.8212 80.5852 47.9595 80.5852 45.6629C80.5852 43.3663 78.7149 41.5046 76.4185 41.5046L62.125 41.493C60.5836 41.493 59.4621 40.2756 59.4626 38.7342V35.1194C55.8927 35.1194 52.393 36.4878 50.1845 39.2924L48.9307 40.8848C49.3829 41.2658 49.9687 41.493 50.6331 41.493L64.9266 41.5046C67.1959 41.5046 69.049 43.3224 69.0926 45.5815C69.1376 47.9129 67.1724 49.8212 64.8405 49.8212C64.7883 49.8212 64.7438 49.8593 64.7359 49.911L64.7077 50.097C64.6933 50.1925 64.7418 50.2847 64.8266 50.3311C66.155 51.0582 67.0435 52.4882 66.989 54.1217C66.9243 56.0625 65.4905 57.632 63.6546 58.0358C63.5618 58.0562 63.4901 58.1293 63.4759 58.2232C63.46 58.3271 63.5188 58.4257 63.6154 58.4668C65.128 59.1114 66.1442 60.6469 66.1419 62.5033C66.1395 64.4953 64.6223 66.1209 62.7019 66.4079C62.4149 66.4508 62.1935 66.6836 62.15 66.9704C62.1158 67.1958 62.1997 67.421 62.3688 67.5735C63.1575 68.2844 63.6766 69.2816 63.7297 70.4115C63.8215 72.3595 62.5718 74.0298 60.8254 74.5791C61.7604 74.6663 62.7 74.7117 63.6416 74.7117L71.0684 74.7705C73.4316 74.7705 75.3343 72.7993 75.2218 70.4115C75.1442 68.7662 74.0811 67.4006 72.633 66.7932C72.5671 66.7656 72.5235 66.7024 72.5235 66.631C72.5235 66.5333 72.6026 66.4542 72.7003 66.4542H73.5872C75.785 66.4542 77.631 64.7011 77.6338 62.5033C77.6368 60.0984 75.9321 58.2309 73.6515 58.1425V58.1379L74.2161 58.1376C76.4761 58.1376 78.4055 56.3805 78.4809 54.1217C78.5544 51.9206 76.9163 50.0873 74.7957 49.8485V49.8214H76.4185V49.8212Z" fill="#E4E4E4"/>
<path d="M76.4196 40.1868L75.643 40.1861V35.2381C75.643 31.3932 77.1663 27.7176 79.1909 25.4509C81.8938 22.4273 83.3823 18.5265 83.3823 14.4674C83.3823 8.83957 80.4578 3.47807 75.75 0.475198C73.7422 -0.805369 71.1064 0.65467 71.1064 3.03475V13.4218C71.1064 15.7444 69.2169 17.6339 66.8943 17.6339C64.5717 17.6339 62.6821 15.7444 62.6821 13.4218V3.03492C62.6821 0.649221 60.041 -0.802381 58.0385 0.475373C53.3307 3.47807 50.4062 8.83957 50.4062 14.4676C50.4062 18.5267 51.8947 22.4275 54.597 25.4502C56.3334 27.3973 57.7806 30.5234 58.0815 33.8652C54.4337 34.196 51.2299 35.8352 49.1489 38.4777L46.8989 41.335C45.7726 42.7654 44.0823 43.5857 42.2616 43.5857H40.2637C40.1886 40.814 37.9121 38.5819 35.1228 38.5819C32.7448 38.5819 30.7393 40.2042 30.1525 42.3999H10.8584C8.51967 42.3999 6.61719 44.3026 6.61719 46.6412V68.8156C6.61719 71.1544 8.51984 73.0569 10.8584 73.0569H30.5781C31.4431 74.6839 33.1554 75.7947 35.1231 75.7947C37.6628 75.7947 39.7773 73.9442 40.1923 71.5209H45.2219C45.9732 71.5209 46.7081 71.6619 47.4062 71.9399C51.3595 73.3785 53.3154 74.6967 58.1459 75.5491V81.252C58.1459 86.0759 62.0706 90.0006 66.8945 90.0006C71.7185 90.0006 75.643 86.0759 75.643 81.252V73.6239C76.279 72.6633 76.5941 71.5307 76.5386 70.35C76.4885 69.285 76.1128 68.2731 75.4932 67.4289C77.5107 66.6721 78.9491 64.7507 78.9521 62.5056C78.954 60.9097 78.3651 59.4913 77.3887 58.4707C78.7917 57.5102 79.7394 55.9386 79.7984 54.1664C79.842 52.8621 79.4149 51.6349 78.6673 50.6588C80.5736 49.7999 81.9036 47.8841 81.9036 45.6638C81.9036 42.6435 79.443 40.1868 76.4196 40.1868ZM37.6308 70.6497C37.6308 72.0326 36.5058 73.1576 35.1229 73.1576C33.7401 73.1576 32.6152 72.0326 32.6152 70.6497V67.4359C32.6152 66.7078 32.025 66.1175 31.2969 66.1175C30.5688 66.1175 29.9785 66.7078 29.9785 67.4359V70.42H10.8584C9.97373 70.42 9.25391 69.7001 9.25391 68.8154V46.641C9.25391 45.7563 9.97373 45.0364 10.8584 45.0364H29.9785V61.2686C29.9785 61.9967 30.5688 62.587 31.2969 62.587C32.025 62.587 32.6152 61.9967 32.6152 61.2686V43.7309C32.6152 43.7288 32.6152 43.7267 32.6152 43.7246C32.6161 42.3426 33.7408 41.2185 35.1229 41.2185C36.5058 41.2185 37.6306 42.3435 37.6306 43.7264V70.6497H37.6308ZM56.5637 23.6936C54.2935 21.1539 53.0431 17.8774 53.0431 14.4674C53.0431 9.73114 55.5006 5.22147 59.4565 2.6983C59.7114 2.53553 60.0456 2.72994 60.0456 3.03492V13.422C60.0456 17.1985 63.1179 20.2708 66.8943 20.2708C70.6708 20.2708 73.7431 17.1985 73.7431 13.422V3.03492C73.7431 2.73047 74.0766 2.53518 74.3322 2.6983C78.2881 5.22164 80.7456 9.73131 80.7456 14.4674C80.7456 17.8774 79.4952 21.1539 77.2247 23.694C74.7852 26.4265 73.0061 30.7212 73.0061 35.2381V40.184L70.696 40.1823V37.4619C70.696 36.7338 70.1057 36.1435 69.3776 36.1435C68.6495 36.1435 68.0592 36.7338 68.0592 37.4619V40.1801L65.7291 40.1782V30.3557C65.7291 29.7132 66.2519 29.1906 66.8942 29.1906C67.5366 29.1906 68.0592 29.7132 68.0592 30.3557V31.2944C68.0592 32.0225 68.6495 32.6128 69.3776 32.6128C70.1057 32.6128 70.696 32.0225 70.696 31.2944V30.3557C70.696 28.2594 68.9905 26.5539 66.8942 26.5539C64.7978 26.5539 63.0924 28.2594 63.0924 30.3557V40.1761L62.125 40.1754C61.2998 40.1754 60.7808 39.532 60.781 38.7349C60.7824 35.6086 61.3718 29.0811 56.5637 23.6936ZM73.0063 81.2514C73.0063 84.6215 70.2644 87.3633 66.8943 87.3633C63.5243 87.3633 60.7824 84.6215 60.7824 81.2514V75.8999C61.5497 75.9694 62.32 76.0114 63.0925 76.0244V80.8651C63.0925 82.9614 64.7981 84.6669 66.8943 84.6669C68.9907 84.6669 70.6961 82.9614 70.6961 80.8651V76.0859C70.8489 76.0754 71.8477 76.175 73.0063 75.7381V81.2514ZM65.7293 80.8651V76.0465L68.0594 76.065V80.8651C68.0594 81.5075 67.5368 82.0301 66.8943 82.0301C66.252 82.0301 65.7293 81.5075 65.7293 80.8651ZM76.4185 48.5032H74.7955C74.0675 48.5032 73.4772 49.0935 73.4772 49.8216V49.8486C73.4772 50.5196 73.9811 51.0835 74.6479 51.1587C76.1076 51.3233 77.2123 52.6054 77.1631 54.0781C77.1127 55.5897 75.7906 56.8196 74.2153 56.8196L73.6507 56.8199C72.9228 56.8203 72.333 57.4151 72.333 58.1429C72.333 58.8511 72.8925 59.4328 73.6002 59.4602C75.1756 59.5214 76.3175 60.8005 76.3153 62.5019C76.3134 63.9544 75.0894 65.136 73.587 65.136H72.7002C71.8758 65.136 71.205 65.8066 71.205 66.631C71.205 67.2343 71.5654 67.7753 72.1231 68.0091C73.1713 68.4486 73.854 69.3931 73.9048 70.4736C73.9815 72.1024 72.6837 73.4524 71.0788 73.4524C63.96 73.3448 62.5703 73.5257 59.6226 73.1136C59.613 73.1124 59.6035 73.1106 59.5936 73.1098C54.451 72.3857 52.0111 70.7877 48.3819 69.4903C47.3721 69.0881 46.309 68.884 45.2219 68.884H40.2675V46.2223H42.2619C44.896 46.2223 47.3413 45.0354 48.9708 42.9661L51.2206 40.109C52.8162 38.0829 55.2926 36.8073 58.1447 36.5072V38.7349C58.144 40.9919 59.8432 42.8125 62.1243 42.8125C63.8389 42.8139 72.6227 42.8209 74.3237 42.8223H74.3248H74.3259L76.4187 42.8241C77.9893 42.8241 79.2671 44.098 79.2671 45.664C79.2669 47.2293 77.9891 48.5032 76.4185 48.5032Z" fill="#505050"/>
<defs>
<clipPath id="clip0">
<rect width="90" height="90" fill="white"/>
</clipPath>
</defs>
</svg>
