<svg width="90" height="90" viewBox="0 0 90 90" fill="none" xmlns="http://www.w3.org/2000/svg">
<path d="M46.2672 32.5096L49.7832 39.2858C53.9622 50.4755 48.2797 62.9324 37.0904 67.1111C34.8145 67.961 32.4861 68.3969 30.1855 68.4673C27.8849 68.3971 25.5565 67.9612 23.2803 67.1111C12.0913 62.9324 6.40846 50.4757 10.5878 39.2858L30.1855 1.51306L43.868 27.8852" fill="#FE0182"/>
<path d="M76.6704 42.777L80.1173 49.4206C82.1774 54.9375 79.3758 61.0797 73.8586 63.14C72.7362 63.5589 71.5886 63.774 70.4542 63.8085C69.3194 63.7737 68.1717 63.5589 67.0495 63.14C61.5321 61.0795 58.7307 54.9375 60.7912 49.4206L70.4542 30.7959L74.5396 38.6697" fill="#D8D8D8"/>
<path d="M56.7076 88.0415C55.9596 88.3205 55.1944 88.4636 54.4391 88.487C53.6829 88.4638 52.9179 88.3203 52.1703 88.0415C48.494 86.6685 46.627 82.576 47.9997 78.8993L54.4391 66.489L60.8778 78.8993C62.2508 82.5758 60.3838 86.6683 56.7076 88.0415Z" fill="#D8D8D8"/>
<path d="M31.608 65.062C26.9104 60.4328 24.2966 54.251 24.2479 47.6548C24.2477 47.6335 24.2488 47.6122 24.2514 47.591L29.5185 1.51306L10.0796 38.9801C10.0706 38.9972 10.0629 39.0146 10.0564 39.0323C7.99092 44.5626 8.20221 50.5657 10.6521 55.9358C13.1018 61.3063 17.4963 65.4009 23.0262 67.466C25.2913 68.3119 27.6651 68.7782 30.0826 68.8517C30.0873 68.8519 30.0923 68.8519 30.097 68.8519C30.1017 68.8519 30.1067 68.8519 30.1114 68.8517C31.8738 68.7979 33.6126 68.5332 35.3033 68.067C33.9923 67.195 32.7548 66.1918 31.608 65.062Z" fill="#E00072"/>
<path d="M80.4717 49.1673C80.4651 49.1496 80.4573 49.1322 80.4485 49.1151L70.7855 30.4904C70.7041 30.3338 70.5424 30.2354 70.3657 30.2354L70.3629 30.2357L66.559 52.3565C66.5555 52.3773 66.5532 52.3984 66.5523 52.4191C66.3911 55.6932 67.5146 58.8339 69.7157 61.2623C70.6588 62.303 71.7523 63.1579 72.9506 63.8099C73.2826 63.7199 73.6114 63.616 73.9353 63.4953C79.6874 61.3471 82.6198 54.9196 80.4717 49.1673Z" fill="#F0F0F0"/>
<path d="M61.2326 78.6461C61.2259 78.6281 61.2182 78.6109 61.2094 78.5939L54.7707 66.1835C54.6893 66.0269 54.5276 65.9285 54.3509 65.9285C54.3007 65.9285 54.2523 65.9383 54.2061 65.9534L51.5625 81.5052C51.5587 81.5261 51.5567 81.5479 51.5555 81.5695C51.417 84.5115 52.7884 87.1817 54.9848 88.8277C55.599 88.7584 56.2021 88.6141 56.7848 88.397C60.6995 86.9347 62.6946 82.5604 61.2326 78.6461Z" fill="#F0F0F0"/>
<path d="M30.1856 69.9803C30.1703 69.9803 30.1548 69.9801 30.1393 69.9796C27.6084 69.9024 25.1225 69.4143 22.7511 68.5285C16.9608 66.3662 12.3594 62.0786 9.79443 56.4557C7.22925 50.8324 7.00777 44.5468 9.1704 38.7566C9.19185 38.6993 9.21663 38.6432 9.24476 38.5891L28.8424 0.816152C29.1026 0.314648 29.6204 0 30.1856 0C30.7505 0 31.2686 0.314648 31.5285 0.816152L45.211 27.1883C45.5956 27.9301 45.3064 28.8434 44.5647 29.2282C43.8225 29.6128 42.9095 29.3235 42.5247 28.5819L30.1856 4.79848L11.9741 39.8997C10.1279 44.9093 10.3307 50.3394 12.5475 55.1995C14.7769 60.0871 18.7767 63.8139 23.8098 65.6935C25.8566 66.4578 28.0015 66.8814 30.1856 66.9531C32.3697 66.8814 34.5145 66.4578 36.561 65.6935C41.594 63.8137 45.5939 60.087 47.8235 55.1995C50.0404 50.3394 50.2433 44.9095 48.3972 39.8997L44.9243 33.2063C44.5393 32.4645 44.8287 31.5512 45.5703 31.1665C46.3128 30.7814 47.2255 31.0713 47.6101 31.8125L51.126 38.5887C51.1542 38.643 51.1789 38.6989 51.2006 38.7562C53.3632 44.5467 53.1415 50.8324 50.5764 56.4553C48.0114 62.0782 43.4098 66.3659 37.6195 68.5281C35.2484 69.4139 32.7627 69.9021 30.2315 69.9792C30.2165 69.9801 30.2009 69.9803 30.1856 69.9803Z" fill="#505050"/>
<path d="M70.4544 65.3217C70.4391 65.3217 70.4237 65.3216 70.408 65.321C69.0765 65.2804 67.7685 65.0236 66.5204 64.5576C63.4733 63.4194 61.0519 61.1635 59.7021 58.2045C58.3524 55.2456 58.2359 51.9381 59.3739 48.8913C59.3953 48.834 59.4201 48.7779 59.4481 48.7238L69.1111 30.099C69.3713 29.5977 69.8891 29.2829 70.4543 29.2829C71.0192 29.2829 71.5372 29.5975 71.7974 30.099L75.8827 37.9728C76.2673 38.7146 75.9782 39.628 75.2364 40.0128C74.4944 40.3974 73.5814 40.1082 73.1964 39.3664L70.4544 34.0814L62.1783 50.033C61.356 52.2995 61.4536 54.752 62.4555 56.9486C63.4696 59.172 65.2893 60.8676 67.579 61.7226C68.5024 62.0672 69.4695 62.2598 70.4544 62.2948C71.439 62.2596 72.4061 62.0673 73.3297 61.7225C78.0281 59.9678 80.4367 54.7378 78.7307 50.0328L75.3276 43.4737C74.943 42.7319 75.2322 41.8186 75.9738 41.4338C76.7163 41.0493 77.6291 41.3387 78.0137 42.0801L81.4606 48.7238C81.4886 48.7781 81.5135 48.834 81.5348 48.8913C83.8834 55.1809 80.6775 62.2087 74.3881 64.5575C73.1398 65.0234 71.832 65.2803 70.5007 65.321C70.4852 65.3216 70.4699 65.3217 70.4544 65.3217Z" fill="#505050"/>
<path d="M54.4399 89.9999C54.4245 89.9999 54.409 89.9998 54.3933 89.9992C53.4512 89.9702 52.5255 89.7885 51.6422 89.4591C47.1902 87.7963 44.9209 82.8219 46.5829 78.3701C46.6043 78.3126 46.6293 78.2565 46.6576 78.2024L53.097 65.792C53.3569 65.2907 53.8748 64.9759 54.4399 64.9759C55.0049 64.9759 55.5229 65.2905 55.7831 65.792L62.2218 78.2024C62.2497 78.2567 62.2747 78.3126 62.2961 78.3699C63.9588 82.8217 61.6895 87.7962 57.238 89.4589C56.3538 89.7885 55.4283 89.9702 54.4867 89.9992C54.4709 89.9998 54.4554 89.9999 54.4399 89.9999ZM49.3883 79.5098C48.367 82.3779 49.8389 85.5555 52.7004 86.6242C53.2589 86.8327 53.844 86.95 54.4398 86.9732C55.0349 86.95 55.6203 86.8324 56.1796 86.6239C59.0405 85.5553 60.5121 82.3777 59.4907 79.5098L54.4399 69.7744L49.3883 79.5098Z" fill="#505050"/>
</svg>
