<svg width="90" height="90" viewBox="0 0 90 90" fill="none" xmlns="http://www.w3.org/2000/svg">
<path d="M45.3179 88.6242C45.1126 88.7004 44.8869 88.7004 44.6816 88.6242C25.6387 81.5647 13 63.4002 13 43.0907V15.7056C13 15.5634 13.0838 15.4347 13.2137 15.3771L44.8542 1.34884C44.947 1.30771 45.0528 1.30771 45.1455 1.34884L76.7859 15.3772C76.9158 15.4349 76.9997 15.5636 76.9997 15.7058V43.0907C76.9995 63.4002 64.361 81.5647 45.3179 88.6242Z" fill="#F0F0F0"/>
<path d="M76.786 15.3771L69.9685 12.3544V39.575C69.9685 59.8846 57.33 78.0489 38.2869 85.1087C38.0816 85.1848 37.8559 85.1848 37.6508 85.1087C37.2262 84.9511 36.8049 84.7882 36.3867 84.6198C38.9858 86.1946 41.7584 87.5404 44.682 88.6243C44.8873 88.7004 45.113 88.7004 45.3182 88.6243C64.3613 81.5647 76.9997 63.4002 76.9997 43.0908V15.7056C76.9996 15.5636 76.9159 15.4348 76.786 15.3771Z" fill="#D8D8D8"/>
<path d="M44.9992 63.0916C55.9577 63.0916 64.8412 54.208 64.8412 43.2495C64.8412 32.2911 55.9577 23.4075 44.9992 23.4075C34.0408 23.4075 25.1572 32.2911 25.1572 43.2495C25.1572 54.208 34.0408 63.0916 44.9992 63.0916Z" fill="#FE0182"/>
<path d="M57.0612 37.698L53.4937 34.1305C53.1914 33.8282 52.7013 33.8282 52.399 34.1305L42.2501 44.2792C41.9477 44.5816 41.4576 44.5816 41.1553 44.2792L36.4486 39.5725C36.1462 39.2702 35.6562 39.2702 35.3538 39.5725L31.7863 43.14C31.484 43.4423 31.484 43.9324 31.7863 44.2348L41.1553 53.6039C41.4576 53.9062 41.9477 53.9062 42.2501 53.6039L57.0612 38.7928C57.3635 38.4904 57.3635 38.0002 57.0612 37.698Z" fill="#D8D8D8"/>
<path d="M76.9993 31.8346C77.7274 31.8346 78.3177 31.2445 78.3177 30.5163V15.7058C78.3177 15.043 77.9262 14.4413 77.3199 14.172L45.6804 0.144084C45.2476 -0.0482202 44.7515 -0.0480444 44.3196 0.143733L12.6788 14.1721C12.0729 14.4411 11.6816 15.043 11.6816 15.7058V43.0908C11.6816 53.3264 14.7717 63.1775 20.6175 71.5793C26.4633 79.9811 34.6262 86.3027 44.2235 89.8605C44.7239 90.0462 45.2755 90.0462 45.7762 89.8604C55.3735 86.3026 63.5362 79.9809 69.382 71.5791C75.2278 63.1773 78.3178 53.3262 78.3178 43.0908V36.6688C78.3178 35.9405 77.7276 35.3504 76.9995 35.3504C76.2714 35.3504 75.6811 35.9405 75.6811 36.6688V43.0908C75.6811 62.7016 63.3569 80.4631 44.9999 87.336C26.641 80.4642 14.3182 62.7029 14.3182 43.0908V16.3295L44.9996 2.72649L75.681 16.3295V30.5163C75.681 31.2445 76.2712 31.8346 76.9993 31.8346Z" fill="#505050"/>
<path d="M51.7215 44.1324C52.2364 44.6471 53.0712 44.6471 53.5859 44.1324L57.9934 39.7249C58.8092 38.9089 58.8092 37.5816 57.9934 36.7658L54.4259 33.198C53.6101 32.3822 52.2828 32.3823 51.4668 33.198L41.7027 42.9623L37.3808 38.6402C36.565 37.8244 35.2375 37.8242 34.4217 38.6402L30.8538 42.208C30.0382 43.024 30.0384 44.3513 30.854 45.1671L40.2231 54.5362C41.0393 55.3522 42.3663 55.3517 43.1822 54.5362L49.1585 48.56C49.6733 48.045 49.6733 47.2104 49.1585 46.6955C48.6436 46.1808 47.8088 46.1808 47.2941 46.6955L41.7027 52.2871L33.1033 43.6875L35.9012 40.8896L40.2231 45.2117C41.0391 46.0277 42.3664 46.027 43.1822 45.2117L52.9462 35.4474L55.7441 38.2454L51.7214 42.2681C51.2065 42.783 51.2065 43.6176 51.7215 44.1324Z" fill="#505050"/>
<path d="M44.9992 84.6693C45.7273 84.6693 46.3176 84.0792 46.3176 83.351V64.369C57.3737 63.6861 66.1596 54.4747 66.1596 43.2496C66.1596 32.0246 57.3739 22.8128 46.3176 22.1299V6.62244C46.3176 5.89417 45.7273 5.30408 44.9992 5.30408C44.2712 5.30408 43.6809 5.89417 43.6809 6.62244V22.1307C40.7374 22.3151 37.8442 23.1139 35.242 24.4685C34.5962 24.8045 34.345 25.6007 34.6812 26.2465C35.0177 26.8927 35.8138 27.1437 36.4594 26.807C38.723 25.6288 41.1466 24.9462 43.6809 24.7711V31.1128C43.6809 31.8411 44.2712 32.4312 44.9992 32.4312C45.7273 32.4312 46.3176 31.8411 46.3176 31.1128V24.7722C55.9188 25.4505 63.5229 33.4787 63.5229 43.2495C63.5229 53.0201 55.9188 61.0482 46.3176 61.7265V58.5714C46.3176 57.8432 45.7273 57.2531 44.9992 57.2531C44.2712 57.2531 43.6809 57.8432 43.6809 58.5714V61.7265C34.0797 61.0482 26.4756 53.0201 26.4756 43.2495C26.4756 38.3661 28.3594 33.7576 31.7801 30.2731C32.2903 29.7535 32.2825 28.9189 31.7629 28.4089C31.2433 27.8988 30.4085 27.9066 29.8986 28.4262C25.991 32.4067 23.8389 37.671 23.8389 43.2496C23.8389 54.4747 32.6248 63.6863 43.6809 64.369V83.3508C43.6809 84.079 44.2712 84.6693 44.9992 84.6693Z" fill="#505050"/>
<defs>
<clipPath id="clip0">
<rect width="90" height="90" fill="white"/>
</clipPath>
</defs>
</svg>
