<svg width="90" height="90" viewBox="0 0 90 90" fill="none" xmlns="http://www.w3.org/2000/svg">
<path d="M44.9996 76.7956C62.5598 76.7956 76.7952 62.5603 76.7952 45.0001C76.7952 27.4399 62.5598 13.2045 44.9996 13.2045C27.4395 13.2045 13.2041 27.4399 13.2041 45.0001C13.2041 62.5603 27.4395 76.7956 44.9996 76.7956Z" fill="#F0F0F0"/>
<path d="M45.0001 49.2951C47.3722 49.2951 49.2951 47.3722 49.2951 45.0001C49.2951 42.628 47.3722 40.7051 45.0001 40.7051C42.628 40.7051 40.7051 42.628 40.7051 45.0001C40.7051 47.3722 42.628 49.2951 45.0001 49.2951Z" fill="#FE0182"/>
<path d="M80.3972 17.2154H83.178C84.148 17.2154 84.9347 16.4288 84.9347 15.4588C84.9347 14.4888 84.148 13.7021 83.178 13.7021H76.5027C75.5327 13.7021 74.746 14.4888 74.746 15.4588V22.1341C74.746 23.1041 75.5327 23.8907 76.5027 23.8907C77.4727 23.8907 78.2594 23.1041 78.2594 22.1341V20.2012C83.5894 27.337 86.4867 35.995 86.4867 45C86.4867 67.8759 67.8759 86.4867 45 86.4867C22.1241 86.4867 3.51332 67.8759 3.51332 45C3.51332 22.1241 22.1241 3.51332 45 3.51332C46.6918 3.51332 48.3946 3.61608 50.0613 3.81863C51.0231 3.93492 51.9002 3.25 52.0172 2.28682C52.1343 1.32382 51.4485 0.447948 50.4853 0.330955C48.6784 0.111372 46.8331 0 45 0C32.9801 0 21.6795 4.6808 13.1802 13.1802C4.6808 21.6795 0 32.9801 0 45C0 57.0199 4.6808 68.3205 13.1802 76.8198C21.6795 85.3192 32.9801 90 45 90C57.0199 90 68.3205 85.3192 76.8198 76.8198C85.3192 68.3205 90 57.0199 90 45C90 34.8569 86.6114 25.1194 80.3972 17.2154Z" fill="#505050"/>
<path d="M19.0544 26.5278C18.2346 26.0089 17.1495 26.2531 16.6304 27.0724C12.6201 33.4062 10.8448 41.0234 11.6316 48.521C12.43 56.1298 15.8546 63.3051 21.2746 68.7253C27.8156 75.2662 36.4076 78.5367 44.9997 78.5367C53.5919 78.5367 62.1837 75.2664 68.7248 68.7253C81.8068 55.6432 81.8068 34.3571 68.7248 21.2752C63.3131 15.8637 56.1496 12.4403 48.5535 11.6358C41.0697 10.8426 33.4608 12.604 27.1296 16.5946C26.3087 17.112 26.0629 18.1967 26.5801 19.0174C27.0974 19.8383 28.1822 20.0841 29.0029 19.5669C40.9373 12.0449 56.2496 13.7687 66.2404 23.7595C77.9526 35.4717 77.9526 54.5286 66.2404 66.2408C54.5284 77.9532 35.4711 77.9532 23.7591 66.2408C13.9063 56.3881 12.1567 40.7058 19.599 28.952C20.1177 28.1322 19.8741 27.0469 19.0544 26.5278Z" fill="#505050"/>
<path d="M67.8367 46.785H70.003C70.9731 46.785 71.7597 45.9984 71.7597 45.0284C71.7597 44.0584 70.9731 43.2717 70.003 43.2717H67.8367C66.8667 43.2717 66.0801 44.0584 66.0801 45.0284C66.0801 45.9984 66.8665 46.785 67.8367 46.785Z" fill="#505050"/>
<path d="M18.2402 44.9714C18.2402 45.9415 19.0269 46.7281 19.9969 46.7281H22.1632C23.1332 46.7281 23.9199 45.9415 23.9199 44.9714C23.9199 44.0014 23.1332 43.2148 22.1632 43.2148H19.9969C19.0269 43.2148 18.2402 44.0012 18.2402 44.9714Z" fill="#505050"/>
<path d="M46.7848 22.1632V19.9969C46.7848 19.0269 45.9982 18.2402 45.0281 18.2402C44.0581 18.2402 43.2715 19.0269 43.2715 19.9969V22.1632C43.2715 23.1332 44.0581 23.9199 45.0281 23.9199C45.9982 23.9199 46.7848 23.1332 46.7848 22.1632Z" fill="#505050"/>
<path d="M43.2148 67.8367V70.003C43.2148 70.973 44.0015 71.7596 44.9715 71.7596C45.9415 71.7596 46.7282 70.973 46.7282 70.003V67.8367C46.7282 66.8666 45.9415 66.08 44.9715 66.08C44.0015 66.08 43.2148 66.8665 43.2148 67.8367Z" fill="#505050"/>
<path d="M36.1952 33.7104C35.5091 33.0246 34.3971 33.0246 33.7108 33.7104C33.0248 34.3964 33.0248 35.5087 33.7108 36.1949L39.6643 42.1484C39.2081 42.9986 38.9486 43.9695 38.9486 45C38.9486 48.3369 41.6633 51.0517 45.0003 51.0517C48.3372 51.0517 51.052 48.3369 51.052 45C51.052 43.9695 50.7924 42.9986 50.3363 42.1484L62.3489 30.1358C63.0349 29.4498 63.0349 28.3375 62.3489 27.6514C61.6627 26.9656 60.5508 26.9656 59.8644 27.6514L47.8519 39.6639C47.0017 39.2077 46.0308 38.9483 45.0003 38.9483C43.9698 38.9483 42.9989 39.2079 42.1487 39.6639L36.1952 33.7104ZM47.5387 45C47.5387 46.3997 46.4 47.5383 45.0003 47.5383C43.6006 47.5383 42.4619 46.3997 42.4619 45C42.4619 43.6003 43.6006 42.4616 45.0003 42.4616C46.4 42.4616 47.5387 43.6003 47.5387 45Z" fill="#505050"/>
<path d="M23.7584 23.7585C24.0869 23.4318 24.2747 22.9785 24.2747 22.5165C24.2747 22.0545 24.0869 21.6031 23.7584 21.2746C23.4316 20.948 22.98 20.7599 22.5164 20.7599C22.0544 20.7599 21.6012 20.9479 21.2745 21.2746C20.9479 21.6013 20.7598 22.0545 20.7598 22.5165C20.7598 22.9803 20.9477 23.4318 21.2745 23.7585C21.6012 24.0851 22.0544 24.2732 22.5164 24.2732C22.98 24.2732 23.4316 24.0851 23.7584 23.7585Z" fill="#505050"/>
<path d="M57.1688 5.24861C57.6327 5.24861 58.0859 5.06223 58.4125 4.73391C58.7392 4.40717 58.9274 3.95553 58.9274 3.49195C58.9274 3.02995 58.7394 2.57673 58.4125 2.24999C58.0859 1.92343 57.6327 1.73529 57.1688 1.73529C56.7068 1.73529 56.2535 1.92325 55.927 2.24999C55.6002 2.57673 55.4121 3.02995 55.4121 3.49195C55.4121 3.95571 55.6001 4.40717 55.927 4.73391C56.2535 5.06223 56.7068 5.24861 57.1688 5.24861Z" fill="#505050"/>
</svg>
