<svg width="90" height="90" viewBox="0 0 90 90" fill="none" xmlns="http://www.w3.org/2000/svg">
<path fill-rule="evenodd" clip-rule="evenodd" d="M75.2604 21.5463L83.1186 13.6788L76.2812 6.83759L68.418 14.7001L75.2604 21.5463Z" fill="#F0F0F0"/>
<path fill-rule="evenodd" clip-rule="evenodd" d="M83.1186 13.6788L86.7838 10.0117C88.6663 8.13327 88.6612 5.05394 86.7838 3.17062C84.9014 1.28712 81.8238 1.28712 79.9465 3.17062L76.2812 6.83777L83.1186 13.6788Z" fill="#F0F0F0"/>
<path fill-rule="evenodd" clip-rule="evenodd" d="M53.8764 42.9365L75.2601 21.5462L68.4176 14.7L47.0391 36.0954L49.7828 38.8408L53.8764 42.9365Z" fill="#F0F0F0"/>
<path fill-rule="evenodd" clip-rule="evenodd" d="M42.6819 47.2964L55.1764 59.7978L59.0657 55.9114C61.2022 53.7739 61.2022 50.2711 59.0657 48.1336L53.8767 42.9368L49.7833 38.8411L47.0393 36.0958L41.8453 30.9039C39.7089 28.7664 36.208 28.7664 34.0717 30.9039L30.1875 34.7954L42.6819 47.2964Z" fill="#F0F0F0"/>
<path fill-rule="evenodd" clip-rule="evenodd" d="M22.8223 38.6117L50.2464 66.0509C50.849 65.9263 51.4516 65.8616 52.0491 65.8467L55.1764 59.7979L42.6819 47.2965L30.1873 34.7951L22.8223 38.6117Z" fill="#D8D8D8"/>
<path fill-rule="evenodd" clip-rule="evenodd" d="M15.9043 42.1942L43.9709 70.2812C45.3753 68.1736 47.5715 66.5991 50.2456 66.051L22.8215 38.6118L15.9043 42.1942Z" fill="#F0F0F0"/>
<path fill-rule="evenodd" clip-rule="evenodd" d="M44.0068 81.3725C46.1979 84.6113 50.1918 86.38 54.2553 85.5429C56.0232 85.1792 57.5818 84.372 58.8369 83.2558C60.6148 85.0546 63.2392 85.9465 65.9033 85.3984C70.0864 84.5364 72.7755 80.4458 71.914 76.2654C71.0525 72.08 66.9689 69.3893 62.7858 70.2464C62.1186 70.386 61.491 70.6052 60.9085 70.8942C59.1257 67.7452 55.7243 65.767 52.0493 65.8468C51.4516 65.8618 50.8491 65.9266 50.2466 66.0511C47.5725 66.5992 45.3763 68.1736 43.972 70.2812C42.5527 72.4138 41.9501 75.0945 42.5079 77.805C42.7816 79.1204 43.2996 80.3261 44.0068 81.3725Z" fill="#FE0182"/>
<path fill-rule="evenodd" clip-rule="evenodd" d="M75.7879 61.3871C79.0546 61.3871 81.6991 58.7364 81.6991 55.4728C81.6991 52.2042 79.0548 49.5585 75.7879 49.5585C72.5261 49.5585 69.8818 52.2042 69.8818 55.4728C69.8817 58.7364 72.5259 61.3871 75.7879 61.3871Z" fill="#FE0182"/>
<path fill-rule="evenodd" clip-rule="evenodd" d="M19.3558 70.6348L30.202 81.487L35.1221 86.4048C37.7017 88.9858 40.0224 89.0755 42.0242 85.2041L44.0061 81.3724C43.2989 80.326 42.7811 79.1203 42.5072 77.8049C41.9495 75.0944 42.552 72.4137 43.9713 70.2811L15.9046 42.1941L4.79457 47.9539C2.96697 48.9007 2.02074 49.9221 1.80664 51.0032V51.9997C1.97592 52.9115 2.60346 53.8683 3.59434 54.8597L8.50953 59.7824L19.3558 70.6348Z" fill="#D8D8D8"/>
<path fill-rule="evenodd" clip-rule="evenodd" d="M83.8906 84.641C86.286 84.641 88.228 82.6977 88.243 80.306V80.2811V80.2612C88.228 77.8646 86.2858 75.9263 83.8906 75.9263C81.4854 75.9263 79.5332 77.8794 79.5332 80.2811C79.5332 82.6879 81.4853 84.641 83.8906 84.641Z" fill="#FE0182"/>
<path d="M62.4246 68.5257C62.143 68.5846 61.8651 68.6556 61.5916 68.7387C59.8946 66.4852 57.4732 64.9565 54.7938 64.3628L56.611 60.8479L60.3079 57.1539C63.1359 54.3243 63.1359 49.7203 60.3079 46.8907L56.3583 42.939L76.4495 22.8366C76.4668 22.8206 76.4849 22.8062 76.5017 22.7895C76.5188 22.7725 76.5336 22.7538 76.5499 22.7362L84.3595 14.9222C84.3597 14.9221 84.3599 14.9219 84.36 14.9219C84.3602 14.9217 84.3602 14.9215 84.3604 14.9214L88.024 11.2556C90.595 8.69027 90.5964 4.5065 88.0258 1.92779C86.7832 0.684492 85.1273 0 83.3621 0C83.3607 0 83.359 0 83.3576 0C81.5932 0.00123047 79.9393 0.686426 78.702 1.92779L75.0375 5.59424C75.0375 5.59424 75.0375 5.59424 75.0373 5.59424L75.0371 5.59441L67.2258 13.41C67.2087 13.4258 67.1906 13.4402 67.1739 13.4568C67.1569 13.4738 67.1423 13.4921 67.1261 13.5097L62.6964 17.9418C62.0102 18.6286 62.0103 19.7415 62.6969 20.4279C63.3835 21.114 64.4966 21.1138 65.1828 20.4272L68.419 17.1893L72.7711 21.5437L53.8729 40.4524L49.5207 36.0979L54.0281 31.5881C54.7144 30.9013 54.714 29.7884 54.0274 29.102C53.3405 28.4157 52.2276 28.4159 51.5413 29.1027L47.0354 33.6111L43.0871 29.6608C41.7218 28.2948 39.8999 27.5425 37.957 27.5425C36.014 27.5425 34.1922 28.2948 32.8261 29.6617L29.1347 33.3599L22.0164 37.0487C22.0088 37.0526 22.0013 37.0564 21.9939 37.0603L15.1376 40.6134C15.1073 40.628 15.0776 40.6433 15.0481 40.6596L3.9853 46.3927C1.61014 47.6223 0.322893 49.0755 0.0495535 50.8356C-0.214821 52.5387 0.559143 54.3108 2.34965 56.1022L7.21826 60.975C7.23637 60.9947 7.25571 61.0126 7.27451 61.0314L18.1113 71.8775L28.9192 82.6879C28.9461 82.7165 28.9738 82.7445 29.0028 82.7715L33.8774 87.6473C35.4403 89.2109 36.988 89.9998 38.4883 89.9998C38.7074 89.9998 38.9253 89.9829 39.1421 89.9494C40.9022 89.6762 42.3552 88.3881 43.5841 86.0115L44.3825 84.4682C44.8263 84.8695 45.3029 85.2407 45.8119 85.5761C47.7457 86.8503 49.96 87.5097 52.2214 87.5097C53.0142 87.5097 53.8133 87.4285 54.6075 87.2645C56.1078 86.9558 57.5262 86.3594 58.7795 85.5171C60.9187 87.0666 63.6154 87.663 66.2558 87.1198C68.7387 86.6081 70.8734 85.16 72.2666 83.0421C73.6594 80.9249 74.1449 78.3921 73.6333 75.9106C72.5801 70.7883 67.555 67.4747 62.4246 68.5257ZM83.3598 3.51562H83.3619C84.1876 3.51562 84.9609 3.83432 85.5376 4.41141C86.7387 5.61639 86.7403 7.57037 85.5392 8.76885L83.1173 11.192L78.7651 6.83754L81.19 4.41123C81.7653 3.83432 82.5358 3.51615 83.3598 3.51562ZM70.9045 14.7025L76.2799 9.32414L80.6321 13.6786L75.2565 19.057L70.9045 14.7025ZM43.8412 67.6601L18.8462 42.6516L22.4873 40.7647L47.0281 65.3189C45.8246 65.9192 44.7514 66.7158 43.8412 67.6601ZM29.8524 36.9476L53.0235 60.1316L50.9391 64.1637C50.9106 64.1668 50.8821 64.17 50.8537 64.1733L25.7618 39.0676L29.8524 36.9476ZM35.3137 32.1462C36.0149 31.4446 36.9538 31.0583 37.9573 31.0583C38.9607 31.0583 39.8995 31.4446 40.6009 32.1462L57.8213 49.3759C59.2797 50.8351 59.2797 53.2095 57.8222 54.6678L55.1761 57.3119L32.6707 34.7941L35.3137 32.1462ZM40.4618 84.3966C39.8222 85.6338 39.1447 86.3916 38.6035 86.4754C38.0932 86.5554 37.2776 86.0759 36.3642 85.162L32.3546 81.1514L36.1939 73.7404C36.6405 72.8784 36.3037 71.8175 35.4417 71.3711C34.5795 70.9246 33.5188 71.2612 33.0723 72.1232L29.7467 78.5428L21.8436 70.6377L27.4076 65.0544C28.0928 64.3667 28.0909 63.2537 27.4032 62.5685C26.7156 61.8833 25.6025 61.885 24.9173 62.5729L19.3584 68.1511L11.4511 60.2369L17.8687 56.9085C18.7305 56.4616 19.0668 55.4006 18.6198 54.5388C18.173 53.6771 17.1116 53.3405 16.2501 53.7877L8.84477 57.6283L4.83713 53.6171C3.92342 52.7031 3.44494 51.8857 3.52422 51.3749C3.60842 50.8329 4.36569 50.155 5.60283 49.5146L15.5719 44.3484L41.7839 70.5748C40.6506 72.8418 40.2368 75.4891 40.7851 78.1601C41.0256 79.3253 41.4339 80.4278 41.9903 81.4423L40.4618 84.3966ZM69.3304 81.11C68.4534 82.4432 67.1097 83.3548 65.5476 83.6766C63.5574 84.0867 61.5153 83.4669 60.0855 82.0202C59.4285 81.3554 58.3659 81.321 57.6671 81.9425C56.611 82.8817 55.3081 83.5316 53.8982 83.8216C51.7579 84.2637 49.5733 83.8443 47.7467 82.6409C45.9198 81.4372 44.6702 79.5936 44.2281 77.4517C43.3192 73.0234 46.177 68.6816 50.5988 67.773C50.599 67.773 50.5991 67.773 50.5995 67.7728C51.156 67.6582 51.7129 67.6027 52.264 67.6027C55.1705 67.6027 57.8993 69.1511 59.3773 71.7606C59.8373 72.5727 60.8519 72.8837 61.6879 72.469C62.1445 72.2426 62.6344 72.0737 63.1373 71.9685C66.3627 71.3083 69.5269 73.3943 70.1908 76.6204C70.5129 78.1826 70.2074 79.7773 69.3304 81.11Z" fill="#505050"/>
<path d="M83.8906 74.1686C80.5186 74.1686 77.7754 76.9108 77.7754 80.2813C77.7754 83.6545 80.5186 86.3988 83.8906 86.3988C87.2598 86.3988 90.0008 83.6545 90.0008 80.2813C90.0008 76.9108 87.2598 74.1686 83.8906 74.1686ZM83.8906 82.8832C82.4571 82.8832 81.291 81.716 81.291 80.2813C81.291 78.8493 82.4571 77.6843 83.8906 77.6843C85.3213 77.6843 86.4852 78.8492 86.4852 80.2813C86.4852 81.716 85.3211 82.8832 83.8906 82.8832Z" fill="#505050"/>
<path d="M83.4569 55.4728C83.4569 51.2425 80.0167 47.8007 75.7879 47.8007C71.562 47.8007 68.124 51.2425 68.124 55.4728C68.124 59.7032 71.5621 63.145 75.7879 63.145C80.0167 63.145 83.4569 59.7032 83.4569 55.4728ZM75.7879 59.6293C73.5005 59.6293 71.6396 57.7648 71.6396 55.4728C71.6396 53.1808 73.5005 51.3163 75.7879 51.3163C78.078 51.3163 79.9413 53.1808 79.9413 55.4728C79.9413 57.7648 78.0782 59.6293 75.7879 59.6293Z" fill="#505050"/>
<path d="M58.3595 26.5241C58.8107 26.5241 59.2623 26.3519 59.6062 26.008C60.2926 25.3216 60.2926 24.2086 59.6062 23.522C58.9197 22.8355 57.8067 22.8355 57.1201 23.522L57.1152 23.5269C56.4287 24.2133 56.4312 25.3239 57.1176 26.0103C57.4604 26.3531 57.9097 26.5241 58.3595 26.5241Z" fill="#505050"/>
<defs>
<clipPath id="clip0">
<rect width="90" height="90" fill="white"/>
</clipPath>
</defs>
</svg>
