<svg width="90" height="90" viewBox="0 0 90 90" fill="none" xmlns="http://www.w3.org/2000/svg">
<path d="M64.2085 64.9698C66.0275 63.0567 67.1952 60.5178 67.334 57.7175C67.4142 56.0985 67.1543 54.5503 66.6213 53.1358C66.2528 52.1581 66.4773 51.0664 67.2017 50.3134C69.1706 48.2672 70.3814 45.4866 70.3814 42.4228C70.3814 36.6571 66.0947 31.8943 60.5348 31.1433C59.8703 31.0536 59.2653 30.7248 58.8308 30.2141C56.7431 27.7596 53.6337 26.2014 50.159 26.2014C47.0866 26.2014 44.3002 27.42 42.2527 29.3987C41.568 30.0603 40.5823 30.2842 39.6663 30.0248C38.7227 29.7576 37.7273 29.6139 36.6979 29.6139C31.6825 29.6139 27.459 32.9975 26.1817 37.6062C25.9214 38.5454 25.1475 39.2606 24.1926 39.4553C21.0423 40.0974 18.4654 42.6221 17.9161 45.9836C17.2061 50.3289 20.153 54.427 24.4983 55.1371C24.562 55.1474 24.6254 55.1571 24.6889 55.1659C25.587 55.2904 26.3556 55.8746 26.7241 56.703C28.4226 60.5227 32.2482 63.1868 36.6981 63.1868C38.7568 63.1868 40.6819 62.6163 42.3246 61.6251C43.594 60.8593 45.263 61.3042 45.9753 62.6043C47.9639 66.2337 51.8719 68.6616 56.3343 68.5199C57.3152 68.4887 58.2657 68.3287 59.1715 68.0606L62.7951 66.9642L64.2085 64.9698Z" fill="#F0F0F0"/>
<path d="M35.3858 58.4616C35.0173 57.6332 34.2489 57.0491 33.3506 56.9245C33.2871 56.9157 33.2236 56.9062 33.1599 56.8957C28.8147 56.1856 25.8677 52.0875 26.5778 47.7422C27.1271 44.3807 29.704 41.8561 32.8543 41.2139C33.8091 41.0192 34.5832 40.304 34.8433 39.3648C36.1206 34.7561 40.3442 31.3726 45.3596 31.3726C46.3888 31.3726 47.3842 31.5163 48.328 31.7834C49.2442 32.0429 50.2298 31.819 50.9144 31.1573C52.4492 29.674 54.3992 28.618 56.5735 28.1822C54.7473 26.9329 52.539 26.2012 50.159 26.2012C47.0866 26.2012 44.3002 27.4197 42.2527 29.3984C41.568 30.0601 40.5823 30.284 39.6663 30.0246C38.7227 29.7574 37.7273 29.6137 36.6979 29.6137C31.6825 29.6137 27.459 32.9972 26.1817 37.606C25.9214 38.5452 25.1475 39.2603 24.1926 39.455C21.0423 40.0972 18.4654 42.6219 17.9161 45.9834C17.2061 50.3286 20.153 54.4268 24.4983 55.1368C24.562 55.1472 24.6254 55.1569 24.6889 55.1657C25.587 55.2902 26.3556 55.8743 26.7241 56.7027C28.4226 60.5225 32.2482 63.1866 36.6981 63.1866C37.504 63.1866 38.2889 63.0979 39.0451 62.9321C37.4582 61.8034 36.1859 60.2609 35.3858 58.4616Z" fill="#D8D8D8"/>
<path d="M61.5706 69.2866C63.2088 69.2866 64.5368 67.9586 64.5368 66.3205C64.5368 64.6823 63.2088 63.3543 61.5706 63.3543C59.9325 63.3543 58.6045 64.6823 58.6045 66.3205C58.6045 67.9586 59.9325 69.2866 61.5706 69.2866Z" fill="#D8D8D8"/>
<path d="M22.6647 30.9072C24.2923 30.9072 25.6117 29.5878 25.6117 27.9602C25.6117 26.3326 24.2923 25.0132 22.6647 25.0132C21.0372 25.0132 19.7178 26.3326 19.7178 27.9602C19.7178 29.5878 21.0372 30.9072 22.6647 30.9072Z" fill="#D8D8D8"/>
<path d="M45.0005 1.31879C69.125 1.31879 88.6818 20.8755 88.6818 45C88.6818 69.1245 69.125 88.6812 45.0005 88.6812C20.8761 88.6812 1.31934 69.1245 1.31934 45C1.31934 20.8755 20.8761 1.31879 45.0005 1.31879ZM79.2754 55.9542C83.0798 43.1198 79.9086 30.8781 72.6656 22.1278C72.1221 21.4718 71.1231 21.4524 70.5567 22.0891L25.1976 73.0379C24.633 73.6729 24.7631 74.6631 25.4755 75.1239C33.7351 80.4902 44.3392 82.5498 55.4165 79.4296C66.8491 76.2092 75.8984 67.341 79.2754 55.9542ZM64.8035 16.9621C65.3681 16.3271 65.2362 15.3369 64.5256 14.8761C56.2643 9.50978 45.6601 7.45016 34.5846 10.5704C23.152 13.7908 14.1009 22.659 10.7257 34.0458C6.9213 46.8802 10.0925 59.1219 17.3355 67.8722C17.8772 68.5282 18.878 68.5476 19.4426 67.9109L64.8035 16.9621Z" fill="#FE0182"/>
<path d="M22.6645 23.6939C20.3123 23.6939 18.3984 25.6077 18.3984 27.96C18.3984 30.3123 20.3123 32.2261 22.6645 32.2261C25.017 32.2261 26.9307 30.3123 26.9307 27.96C26.9307 25.6077 25.0168 23.6939 22.6645 23.6939ZM22.6645 29.5878C21.767 29.5878 21.0367 28.8577 21.0367 27.96C21.0367 27.0623 21.767 26.3322 22.6645 26.3322C23.5623 26.3322 24.2924 27.0623 24.2924 27.96C24.2924 28.8577 23.5621 29.5878 22.6645 29.5878Z" fill="#505050"/>
<path d="M88.1084 32.0615C87.8992 31.3634 87.1635 30.9677 86.4661 31.1766C85.7682 31.3857 85.3721 32.1211 85.5812 32.819C86.7626 36.7608 87.3617 40.8591 87.3617 45.0002C87.3617 56.3154 82.9553 66.9532 74.9544 74.9544C66.9533 82.9554 56.3153 87.3619 45 87.3619C33.6847 87.3619 23.0468 82.9554 15.0458 74.9544C7.04475 66.9533 2.63829 56.3153 2.63829 45C2.63829 33.6847 7.04475 23.0468 15.0458 15.0456C23.0468 7.04475 33.6847 2.63829 45 2.63829C53.33 2.63829 61.3906 5.05372 68.3108 9.62376C75.0592 14.08 80.3704 20.3246 83.6706 27.6821C83.9689 28.3468 84.7491 28.6444 85.4141 28.3457C86.0788 28.0476 86.3761 27.267 86.0779 26.6024C82.5725 18.7871 76.9315 12.1548 69.7647 7.42202C62.4118 2.56652 53.8485 0 45 0C32.9802 0 21.6797 4.68085 13.1803 13.1802C4.68085 21.6795 0 32.98 0 45C0 57.0199 4.68085 68.3203 13.1802 76.8197C21.6797 85.319 32.9802 90 45 90C57.0199 90 68.3205 85.3192 76.8198 76.8197C85.3192 68.3202 90 57.0199 90 45C90 40.6023 89.3637 36.2492 88.1084 32.0615Z" fill="#505050"/>
<path d="M34.226 9.3009C28.3976 10.9431 23.0319 14.0568 18.7091 18.3055C14.3769 22.5636 11.179 27.8771 9.4609 33.6716C7.55958 40.0848 7.26901 46.5085 8.59712 52.7644C9.83378 58.5894 12.5039 64.1044 16.3185 68.7132C16.8233 69.3231 17.5668 69.6811 18.3581 69.6951C18.3744 69.6955 18.3908 69.6957 18.407 69.6957C19.1795 69.6957 19.9138 69.3669 20.4284 68.789L65.7886 17.8387C66.3144 17.2485 66.5553 16.4602 66.45 15.6764C66.3448 14.8939 65.9049 14.1988 65.2434 13.7689C56.0977 7.82874 45.0823 6.24242 34.226 9.3009ZM63.8182 16.0845L55.0946 25.8831C53.5384 25.2268 51.8518 24.8823 50.1591 24.8823C46.8503 24.8823 43.7169 26.1493 41.3361 28.4499C41.0021 28.7729 40.5002 28.89 40.026 28.7556C38.9464 28.4499 37.8267 28.2948 36.698 28.2948C35.1808 28.2948 33.6978 28.5706 32.29 29.115C31.6105 29.3776 31.2725 30.1414 31.5353 30.8209C31.7375 31.3441 32.2369 31.6648 32.7659 31.6648C32.9241 31.6648 33.085 31.6361 33.2413 31.5756C34.3443 31.1492 35.5073 30.9331 36.6979 30.9331C37.5834 30.9331 38.4611 31.0544 39.3069 31.2942C40.6815 31.6829 42.1621 31.3204 43.1694 30.3472C45.0556 28.5243 47.5379 27.5205 50.1589 27.5205C51.2116 27.5205 52.2333 27.6811 53.214 27.9954L28.0005 56.3162C27.9773 56.2663 27.9518 56.217 27.9294 56.1667C27.3705 54.9098 26.2267 54.0471 24.8694 53.8589C24.8162 53.8515 24.763 53.8434 24.7112 53.8352C22.9573 53.5485 21.4201 52.596 20.3827 51.1533C19.3451 49.7105 18.9316 47.95 19.2182 46.1961C19.661 43.4855 21.766 41.2959 24.4562 40.7475C25.9101 40.4511 27.0584 39.3825 27.4533 37.9583C27.8051 36.6893 28.407 35.5228 29.2426 34.4916C29.7013 33.9254 29.6142 33.0949 29.0482 32.6362C28.4821 32.1773 27.6514 32.2645 27.1928 32.8305C26.1277 34.1451 25.3599 35.6333 24.9109 37.2535C24.7844 37.71 24.3992 38.0665 23.9294 38.1623C20.1725 38.928 17.2329 41.9854 16.6145 45.7705C16.2144 48.2198 16.7918 50.6784 18.2408 52.6933C19.6897 54.7083 21.8366 56.0383 24.2874 56.4388C24.3612 56.4508 24.4349 56.462 24.5079 56.4719C24.9483 56.5331 25.3358 56.8268 25.5189 57.2382C25.6978 57.6406 25.9029 58.0348 26.1275 58.4196L18.4582 67.034C18.4515 67.0415 18.4341 67.0614 18.4057 67.0568C18.3725 67.0561 18.3575 67.0382 18.351 67.0305C10.8511 57.9694 8.53275 46.0837 11.9903 34.4212C13.5814 29.0543 16.5443 24.1321 20.5584 20.1868C24.5656 16.2484 29.5393 13.3619 34.9415 11.8398C38.3127 10.89 41.6983 10.4202 45.0299 10.4202C51.6939 10.4202 58.1399 12.3006 63.8064 15.9812C63.8143 15.9863 63.831 15.9972 63.8353 16.0276C63.8395 16.0604 63.8247 16.0772 63.8182 16.0845Z" fill="#505050"/>
<path d="M63.1308 74.6814C62.5051 75.055 62.3009 75.8648 62.6744 76.4902C63.0479 77.1157 63.8575 77.32 64.4832 76.9466C72.2747 72.2944 77.9769 64.9722 80.5396 56.3286C82.4411 49.9155 82.7316 43.4918 81.4035 37.2357C80.1669 31.4107 77.4969 25.8956 73.6822 21.2867C73.1774 20.6767 72.4339 20.3188 71.6426 20.3047C70.8536 20.2872 70.0978 20.6208 69.5722 21.2109L24.212 72.1611C23.6863 72.7516 23.4452 73.5399 23.5507 74.3238C23.6559 75.1063 24.0958 75.8014 24.7573 76.2311C30.8607 80.1952 37.7953 82.2207 44.9613 82.2206C48.5331 82.2204 52.1634 81.717 55.7747 80.6995C56.9317 80.3734 58.1003 79.978 59.2481 79.5242C59.9256 79.2565 60.2579 78.4902 59.99 77.8127C59.7221 77.1352 58.9561 76.8029 58.2783 77.0708C57.2133 77.4917 56.13 77.8582 55.059 78.1601C44.9447 81.0096 34.6937 79.5388 26.1942 74.0185C26.1863 74.0134 26.1696 74.0025 26.1656 73.972C26.1612 73.9395 26.1763 73.9228 26.1826 73.9156L34.7055 64.3423C35.3633 64.4503 36.0307 64.5059 36.6981 64.5059C38.9257 64.5059 41.1071 63.9003 43.0063 62.7546C43.3116 62.5704 43.672 62.5208 44.0204 62.6148C44.3661 62.7078 44.6496 62.9292 44.8188 63.2379C47.0668 67.341 51.3095 69.8445 55.9631 69.8445C56.1006 69.8445 56.2383 69.8424 56.3766 69.838C57.1695 69.8129 57.9617 69.7109 58.741 69.5346C59.4964 70.2005 60.4869 70.6058 61.5707 70.6058C63.9335 70.6058 65.8559 68.6833 65.8559 66.3207C65.8559 65.9511 65.809 65.5923 65.7205 65.2501C67.4808 63.138 68.5166 60.518 68.652 57.7826C68.7392 56.0233 68.4715 54.3035 67.8561 52.6707C67.6667 52.168 67.7803 51.6152 68.1528 51.2281C70.4409 48.8498 71.701 45.7225 71.701 42.4227C71.701 37.4912 68.7961 33.0223 64.4374 30.9467L71.5429 22.9657C71.5497 22.9582 71.5694 22.94 71.5953 22.9428C71.6285 22.9436 71.6435 22.9615 71.65 22.9692C79.1499 32.0307 81.4683 43.9163 78.0105 55.5788C75.6362 63.5855 70.3519 70.3696 63.1308 74.6814ZM61.5703 67.9675C60.6622 67.9675 59.9233 67.2288 59.9233 66.3207C59.9233 65.4126 60.6622 64.6737 61.5703 64.6737C62.4784 64.6737 63.2173 65.4126 63.2173 66.3207C63.2173 67.2288 62.4784 67.9675 61.5703 67.9675ZM69.0623 42.4225C69.0623 45.0369 68.064 47.5144 66.2513 49.3987C65.1665 50.5263 64.8353 52.1365 65.387 53.601C65.8741 54.8934 66.0858 56.2563 66.0167 57.6521C65.9228 59.5485 65.2797 61.3769 64.1826 62.927C63.4588 62.3687 62.553 62.0354 61.5705 62.0354C59.2076 62.0354 57.2852 63.9578 57.2852 66.3207C57.2852 66.5896 57.3112 66.8522 57.3589 67.1076C57.0047 67.1579 56.6487 67.1899 56.2927 67.2012C52.4768 67.3192 48.9667 65.3181 47.1324 61.9703C46.6146 61.0253 45.7533 60.3493 44.7071 60.0674C43.6731 59.7886 42.5562 59.9448 41.6433 60.4957C40.2162 61.3566 38.5845 61.827 36.9118 61.8641L62.5897 33.0218C66.4385 34.4952 69.0623 38.2502 69.0623 42.4225Z" fill="#505050"/>
<path d="M57.7137 58.2971H58.6035C59.332 58.2971 59.9226 57.7067 59.9226 56.978C59.9226 56.2493 59.332 55.6588 58.6035 55.6588H57.7137C56.9852 55.6588 56.3945 56.2493 56.3945 56.978C56.3945 57.7067 56.9852 58.2971 57.7137 58.2971Z" fill="#505050"/>
<path d="M29.6685 44.6915H28.3289C27.6004 44.6915 27.0098 45.282 27.0098 46.0107C27.0098 46.7394 27.6004 47.3298 28.3289 47.3298H29.6685C30.397 47.3298 30.9876 46.7394 30.9876 46.0107C30.9876 45.282 30.397 44.6915 29.6685 44.6915Z" fill="#505050"/>
<path d="M57.7137 44.8183H59.0532C59.7817 44.8183 60.3724 44.2279 60.3724 43.4992C60.3724 42.7705 59.7817 42.1801 59.0532 42.1801H57.7137C56.9852 42.1801 56.3945 42.7705 56.3945 43.4992C56.3945 44.2279 56.9852 44.8183 57.7137 44.8183Z" fill="#505050"/>
<path d="M71.8751 30.8425H71.1297C70.4012 30.8425 69.8105 31.4329 69.8105 32.1616C69.8105 32.8903 70.4012 33.4808 71.1297 33.4808H71.8751C72.6036 33.4808 73.1942 32.8903 73.1942 32.1616C73.1942 31.4329 72.6038 30.8425 71.8751 30.8425Z" fill="#505050"/>
<path d="M43.1893 71.8277C42.4607 71.8277 41.8701 72.4181 41.8701 73.1468C41.8701 73.8755 42.4607 74.466 43.1893 74.466H45.4223C46.1508 74.466 46.7414 73.8755 46.7414 73.1468C46.7414 72.4181 46.1508 71.8277 45.4223 71.8277H43.1893Z" fill="#505050"/>
<path d="M49.3191 54.0713H51.4384C52.1669 54.0713 52.7575 53.4809 52.7575 52.7522C52.7575 52.0235 52.1669 51.433 51.4384 51.433H49.3191C48.5906 51.433 48 52.0235 48 52.7522C48 53.4809 48.5906 54.0713 49.3191 54.0713Z" fill="#505050"/>
<path d="M36.2791 38.5426H38.7434C39.472 38.5426 40.0626 37.9521 40.0626 37.2234C40.0626 36.4947 39.472 35.9043 38.7434 35.9043H36.2791C35.5506 35.9043 34.96 36.4947 34.96 37.2234C34.96 37.9521 35.5506 38.5426 36.2791 38.5426Z" fill="#505050"/>
<defs>
<clipPath id="clip0">
<rect width="90" height="90" fill="white"/>
</clipPath>
</defs>
</svg>
