<svg width="32" height="28" viewBox="0 0 32 28" fill="none" xmlns="http://www.w3.org/2000/svg">
<path d="M31.9551 15.8115C31.955 15.8114 31.955 15.8113 31.9549 15.8111L25.9132 0.640863C25.785 0.318534 25.4196 0.161178 25.0973 0.289402C25.0971 0.289481 25.0968 0.289559 25.0966 0.289716L0.586081 10.0496C0.486124 10.0928 0.399437 10.1617 0.334814 10.2493C0.130973 10.3553 0.00219859 10.5649 0 10.7946V27.127C0 27.4739 0.281262 27.7551 0.628168 27.7551H27.0112C27.3582 27.7551 27.6394 27.4739 27.6394 27.127V18.207L31.6044 16.6277C31.9267 16.4992 32.0836 16.1338 31.9551 15.8115ZM26.3831 26.4988H1.25634V11.4227H26.3831V26.4988ZM10.481 10.1695L20.999 5.97841C21.9378 6.96511 23.2385 7.5259 24.6003 7.53124L25.6494 10.1695H10.481ZM27.6394 16.8577V10.7946C27.6394 10.4477 27.3582 10.1664 27.0112 10.1664H27.0012L25.6701 6.8233C25.6553 6.79542 25.6381 6.76888 25.6186 6.74415C25.5512 6.44161 25.2711 6.23517 24.9622 6.26046C23.695 6.37596 22.4554 5.84218 21.6687 4.84205C21.4729 4.60044 21.1288 4.54038 20.8627 4.70134C20.8329 4.70488 20.8033 4.71037 20.7742 4.71768L7.93314 9.83097C7.77775 9.8919 7.65345 10.0127 7.58827 10.1664H3.68861L24.9785 1.68928L30.556 15.6943L27.6394 16.8577Z" fill="#FE0182"/>
<path d="M2.96121 22.258C4.1808 22.6185 5.13514 23.5717 5.49712 24.7908C5.57651 25.0569 5.82126 25.2392 6.09891 25.2393C6.13149 25.2372 6.16385 25.2324 6.19565 25.2248C6.22384 25.2329 6.25265 25.2387 6.28171 25.2424H21.3577C21.3837 25.2391 21.4093 25.2338 21.4344 25.2267C21.7482 25.303 22.0645 25.1106 22.1409 24.7967C22.1412 24.7956 22.1415 24.7945 22.1417 24.7933C22.5027 23.5729 23.4572 22.6184 24.6776 22.2574C24.9736 22.1669 25.1575 21.872 25.1085 21.5664C25.1169 21.5359 25.123 21.5048 25.1268 21.4734V16.4481C25.1231 16.4166 25.1168 16.3855 25.1079 16.3551C25.1571 16.0494 24.9732 15.7544 24.677 15.6641C23.4566 15.3032 22.5023 14.3483 22.1423 13.1276C22.0514 12.8296 21.7536 12.6452 21.4463 12.6967C21.4173 12.6886 21.3877 12.6827 21.3577 12.6791H6.28171C6.25006 12.6828 6.21873 12.6891 6.18811 12.6979C5.88258 12.6492 5.58782 12.8331 5.49712 13.1288C5.13585 14.349 4.18142 15.3032 2.96121 15.6641C2.66526 15.7546 2.48137 16.0495 2.53028 16.3551C2.52212 16.3857 2.51623 16.4167 2.5127 16.4481V21.4734C2.51631 21.5029 2.5222 21.5322 2.53028 21.5607C2.47877 21.8683 2.66306 22.1665 2.96121 22.258ZM3.76903 16.7031C5.03039 16.1965 6.03012 15.1968 6.53674 13.9354H21.1021C21.6089 15.1968 22.6089 16.1965 23.8704 16.7031V21.2184C22.6095 21.7256 21.6099 22.7251 21.1027 23.9861H6.53674C6.02957 22.7251 5.03 21.7256 3.76903 21.2184V16.7031Z" fill="#FE0182"/>
<path d="M13.8198 22.7298C15.9014 22.7298 17.5888 21.0424 17.5888 18.9608C17.5888 16.8792 15.9014 15.1918 13.8198 15.1918C11.7382 15.1918 10.0508 16.8792 10.0508 18.9608C10.0528 21.0415 11.7391 22.7277 13.8198 22.7298ZM13.8198 16.4481C15.2075 16.4481 16.3325 17.5731 16.3325 18.9608C16.3325 20.3485 15.2075 21.4734 13.8198 21.4734C12.4321 21.4734 11.3071 20.3485 11.3071 18.9608C11.3071 17.5731 12.4321 16.4481 13.8198 16.4481Z" fill="#FE0182"/>
<path d="M6.90978 19.9029C7.43014 19.9029 7.85203 19.481 7.85203 18.9607C7.85203 18.4403 7.43014 18.0184 6.90978 18.0184C6.38942 18.0184 5.96753 18.4403 5.96753 18.9607C5.96753 19.4811 6.38942 19.9029 6.90978 19.9029ZM6.90978 18.6466C7.08323 18.6466 7.22387 18.7872 7.22387 18.9607C7.22387 19.1341 7.08323 19.2748 6.90978 19.2748C6.73633 19.2748 6.5957 19.1341 6.5957 18.9607C6.5957 18.7872 6.73633 18.6466 6.90978 18.6466Z" fill="#FE0182"/>
<path d="M20.7296 19.9029C21.25 19.9029 21.6719 19.481 21.6719 18.9607C21.6719 18.4403 21.25 18.0184 20.7296 18.0184C20.2092 18.0184 19.7874 18.4403 19.7874 18.9607C19.7874 19.4811 20.2092 19.9029 20.7296 19.9029ZM20.7296 18.6466C20.9031 18.6466 21.0437 18.7872 21.0437 18.9607C21.0437 19.1341 20.9031 19.2748 20.7296 19.2748C20.5562 19.2748 20.4155 19.1341 20.4155 18.9607C20.4155 18.7872 20.5562 18.6466 20.7296 18.6466Z" fill="#FE0182"/>
</svg>
