<svg width="70" height="68" viewBox="0 0 70 68" fill="none" xmlns="http://www.w3.org/2000/svg">
<path d="M19.4494 65.5457C20.0352 66.1315 20.9849 66.1315 21.5707 65.5457L31.1167 55.9998C31.7025 55.414 31.7025 54.4643 31.1167 53.8785C30.5309 53.2927 29.5811 53.2927 28.9953 53.8785L20.5101 62.3638L12.0248 53.8785C11.439 53.2927 10.4892 53.2927 9.90346 53.8785C9.31768 54.4643 9.31767 55.414 9.90346 55.9998L19.4494 65.5457ZM22.0101 64.4851C22.0101 53.5387 25.7028 40.2676 32.0934 28.6898C38.4935 17.095 47.4694 7.42823 57.8609 3.39856L56.7763 0.601501C45.4769 4.98323 36.0485 15.3165 29.467 27.2401C22.8761 39.1806 19.0101 52.9464 19.0101 64.4851L22.0101 64.4851Z" fill="#636363"/>
</svg>
