<svg width="25" height="25" viewBox="0 0 25 25" fill="none" xmlns="http://www.w3.org/2000/svg">

<path d="M24.7867 12.0393C24.7867 5.39019 19.3965 0 12.7474 0C6.0982 0 0.708008 5.39019 0.708008 12.0393C0.708008 18.0484 5.1106 23.0292 10.8662 23.9324V15.5195H7.80934V12.0393H10.8662V9.38693C10.8662 6.36957 12.6636 4.70287 15.4136 4.70287C16.7304 4.70287 18.1086 4.93801 18.1086 4.93801V7.90082H16.5905C15.095 7.90082 14.6285 8.82893 14.6285 9.78197V12.0393H17.9675L17.4338 15.5195H14.6285V23.9324C20.3841 23.0292 24.7867 18.0484 24.7867 12.0393Z" fill="white"/>
<path d="M17.4335 15.5195L17.9673 12.0394H14.6282V9.78198C14.6282 8.82988 15.0948 7.90083 16.5903 7.90083H18.1084V4.93802C18.1084 4.93802 16.7307 4.70288 15.4134 4.70288C12.6634 4.70288 10.8659 6.36958 10.8659 9.38694V12.0394H7.80908V15.5195H10.8659V23.9324C12.1125 24.1275 13.3817 24.1275 14.6282 23.9324V15.5195H17.4335Z" fill="#323232"/>

<defs>
<clipPath id="clip0">
<rect width="24.0787" height="24.0787" fill="white" transform="translate(0.708008)"/>
</clipPath>
</defs>
</svg>
