<svg width="25" height="26" viewBox="0 0 25 26" fill="none" xmlns="http://www.w3.org/2000/svg">
<path d="M22.4262 8.48715L22.4262 8.4872C22.8331 9.46964 23.0928 10.5046 23.1986 11.5587C23.2905 12.4746 22.5366 13.174 21.6889 13.174C20.8109 13.174 20.1639 12.469 20.0646 11.6789C19.9786 10.9949 19.8014 10.3239 19.5364 9.68418C19.1479 8.74631 18.5784 7.89389 17.8606 7.17623L17.8605 7.17618C17.1426 6.45823 16.2904 5.8887 15.3524 5.50011L22.4262 8.48715ZM22.4262 8.48715C21.8805 7.16986 21.0807 5.97263 20.0723 4.96437M22.4262 8.48715L20.0723 4.96437M15.9106 11.1862L15.9105 11.1861C15.7193 10.7242 15.4389 10.3047 15.0855 9.95135L15.0854 9.95124C14.732 9.59773 14.3124 9.3174 13.8506 9.12597L15.9106 11.1862ZM15.9106 11.1862C15.9975 11.396 16.0652 11.6126 16.1133 11.8334C16.2606 12.5102 16.8336 13.174 17.661 13.174C18.442 13.174 19.1796 12.5206 19.0461 11.6374C18.9649 11.0998 18.8186 10.5728 18.6095 10.0681C18.2714 9.25177 17.7758 8.51015 17.1511 7.88544C16.5263 7.26072 15.7847 6.76522 14.9684 6.42713L14.7652 6.91785M15.9106 11.1862L14.7652 6.91785M14.7652 6.91785L14.9684 6.42713C14.4638 6.21814 13.9368 6.0718 13.3992 5.99052C12.5161 5.857 11.8626 6.59465 11.8626 7.37562C11.8626 8.20307 12.5264 8.77609 13.2033 8.92336C13.4241 8.97139 13.6407 9.03908 13.8504 9.12589L14.7652 6.91785ZM20.0723 4.96437C19.0639 3.95587 17.8668 3.15601 16.5493 2.6104C15.5669 2.20338 14.532 1.94376 13.4779 1.83803C12.562 1.74615 11.8626 2.49999 11.8626 3.34773C11.8626 4.22567 12.5676 4.8727 13.3577 4.972C14.0417 5.05798 14.7127 5.23524 15.3523 5.50007L20.0723 4.96437ZM1.53477 5.4133V10.5772C1.53477 17.7153 7.32131 23.5018 14.4594 23.5018H19.6233C20.487 23.5018 21.1872 22.8016 21.1872 21.9379V16.774C21.1872 15.9103 20.487 15.21 19.6233 15.21H15.4921C14.6284 15.21 13.9282 15.9103 13.9282 16.774C13.9282 17.6707 13.2226 18.2422 12.5457 18.0699C9.81396 17.3744 7.66221 15.2226 6.96675 12.4909C6.79443 11.814 7.36587 11.1084 8.26264 11.1084C9.12638 11.1084 9.82657 10.4081 9.82657 9.54445V5.4133C9.82657 4.54962 9.12638 3.84937 8.26264 3.84937H3.0987C2.23497 3.84937 1.53477 4.54962 1.53477 5.4133Z" stroke="white" stroke-width="1.0623"/>
</svg>
