<svg width="216" height="52" viewBox="0 0 216 52" fill="none" xmlns="http://www.w3.org/2000/svg">
<path d="M29.6471 8.11123V12.5491H34.0937V8.11123H29.6471ZM0 0V33.9574H17.0218V29.5286H4.4466V4.42883H29.6471V6.60329H34.0937V0H0ZM18.5298 29.5286V33.9574H22.9764V29.5286H18.5298ZM29.6471 13.9967V29.5286H24.4404V33.9574H34.0937V13.9922L29.6471 13.9967Z" fill="#C1C2C2"/>
<path d="M39.2879 22.7384V37.6489H24.4507V42.0778H43.739V22.7384H39.2879ZM39.2879 16.978V21.4084H43.7345V16.978H39.2879ZM9.63477 8.12036V28.0162H14.0814V12.5492H39.2879V15.5002H43.7345V8.12036H9.63477ZM14.0814 37.6489V35.5559H9.63477V42.0778H18.5355V37.6489H14.0814ZM16.9201 37.6489V42.0778H26.1055V37.6489H16.9201Z" fill="#FE0182"/>
<path d="M29.6471 16.978V21.4084H39.2882V16.978H29.6471ZM18.5298 16.978V50.9354H52.6234V16.978H18.5298ZM48.1768 46.5066H22.9764V42.0778H18.5358V37.6489H22.9764V21.4084H48.1768V46.5066ZM34.0967 16.978V21.4084H39.2882V16.978H34.0967Z" fill="white"/>
<path d="M62.3389 28.2678V4.2915H77.7438V8.53938H66.843V13.6423H75.3017V17.8901H66.843V24.0214H78.0874V28.2678H62.3389Z" fill="white"/>
<path d="M92.4641 28.7474C90.0225 28.7474 87.8731 28.2307 86.016 27.1973C84.1856 26.1875 82.6816 24.6796 81.6799 22.8499C80.6423 20.983 80.124 18.7935 80.125 16.2813C80.126 13.769 80.6615 11.58 81.7314 9.71417C82.7672 7.87853 84.2994 6.36918 86.1537 5.35772C88.0341 4.32427 90.1835 3.80755 92.6018 3.80755C93.7774 3.79613 94.9498 3.93139 96.0916 4.21017C97.0384 4.43897 97.9558 4.77491 98.8259 5.21145L98.3444 9.39147C97.4754 8.99236 96.5757 8.66308 95.654 8.40678C94.6475 8.13848 93.6089 8.0086 92.567 8.02075C90.8814 8.02075 89.4744 8.3726 88.346 9.07631C87.222 9.77872 86.333 10.798 85.7919 12.0047C85.2196 13.2503 84.9334 14.6718 84.9334 16.2692C84.9334 17.8666 85.214 19.2881 85.7752 20.5337C86.3024 21.7386 87.1799 22.7586 88.2945 23.4621C89.4118 24.1658 90.8017 24.5177 92.4641 24.5177C93.5138 24.5311 94.5606 24.4048 95.5768 24.1422C96.5228 23.8795 97.4478 23.5474 98.3444 23.1484L98.8259 27.327C97.8689 27.7665 96.8696 28.1081 95.8433 28.3463C94.7365 28.611 93.6023 28.7456 92.4641 28.7474Z" fill="white"/>
<path d="M112.617 28.7475C110.323 28.7475 108.282 28.2308 106.496 27.1973C104.711 26.1691 103.251 24.663 102.282 22.8499C101.265 20.9821 100.756 18.7921 100.756 16.2798C100.756 13.7676 101.267 11.5786 102.287 9.71273C103.254 7.89767 104.712 6.38892 106.496 5.35778C108.284 4.32434 110.325 3.80762 112.617 3.80762C114.909 3.80762 116.95 4.32434 118.738 5.35778C120.523 6.38705 121.982 7.89427 122.95 9.7082C123.97 11.575 124.481 13.7641 124.481 16.2753C124.481 18.7865 123.97 20.9781 122.95 22.8499C121.982 24.6634 120.523 26.1701 118.738 27.1988C116.951 28.2323 114.91 28.7485 112.617 28.7475ZM112.617 24.5011C114.222 24.5011 115.563 24.1493 116.64 23.4456C117.72 22.7327 118.563 21.716 119.062 20.5247C119.601 19.2862 119.871 17.8732 119.871 16.2859C119.871 14.6985 119.601 13.2856 119.062 12.047C118.563 10.8561 117.72 9.83994 116.64 9.12764C115.563 8.42394 114.222 8.07208 112.617 8.07208C111.012 8.07208 109.671 8.42394 108.593 9.12764C107.512 9.8398 106.669 10.856 106.17 12.047C105.631 13.2866 105.362 14.6995 105.362 16.2859C105.362 17.8722 105.631 19.2852 106.17 20.5247C106.669 21.7161 107.512 22.7329 108.593 23.4456C109.671 24.1493 111.012 24.5037 112.617 24.5087V24.5011Z" fill="white"/>
<path d="M135.275 19.2308V16.0068H145.937V19.2308H135.275Z" fill="white"/>
<path d="M162.859 28.2678V8.53938H156.046V4.2915H174.062V8.53938H167.249V28.2678H162.859Z" fill="white"/>
<path d="M177.233 28.2678V4.2915H192.639V8.53938H181.739V13.6423H190.199V17.8901H181.739V24.0214H192.984V28.2678H177.233Z" fill="white"/>
<path d="M196.766 28.2678V4.2915H201.167V28.2678H196.766ZM210.419 28.2678L201.512 15.6011L210.419 4.2915H215.577L206.601 15.6011L215.577 28.2678H210.419Z" fill="white"/>
<path d="M120.158 51.0937V38.6924H121.999L127.513 47.8516V38.6924H129.178V51.0937H127.705L121.817 41.4202V51.0937H120.158Z" fill="white"/>
<path d="M133.739 51.0937V38.6924H140.877V40.2003H135.403V43.8556H139.734V45.3635H135.403V49.5858H141.029V51.0937H133.739Z" fill="white"/>
<path d="M146.974 51.0937L143.683 38.6924H145.443L147.881 48.8619L150.567 38.9397H152.384L155.071 48.8619L157.507 38.6924H159.268L155.978 51.0937H154.161L151.475 41.2076L148.807 51.0937H146.974Z" fill="white"/>
<path d="M170.951 51.0937V45.7254L166.904 38.6924H168.773L172.143 44.6985H171.414L174.766 38.6924H176.635L172.615 45.7254V51.0937H170.951Z" fill="white"/>
<path d="M184.488 51.341C183.454 51.3656 182.435 51.0924 181.553 50.5542C180.671 50.016 179.964 49.2357 179.516 48.3071C179.025 47.342 178.779 46.204 178.779 44.8931C178.779 43.5822 179.025 42.4437 179.516 41.4776C179.972 40.5514 180.679 39.7711 181.557 39.2253C182.436 38.6795 183.45 38.3901 184.486 38.3901C185.521 38.3901 186.536 38.6795 187.414 39.2253C188.293 39.7711 189 40.5514 189.455 41.4776C189.945 42.4427 190.19 43.5812 190.19 44.8931C190.19 46.205 189.945 47.343 189.455 48.3071C189.01 49.2365 188.304 50.0175 187.422 50.5559C186.541 51.0943 185.522 51.367 184.488 51.341ZM184.488 49.7125C185.36 49.7125 186.086 49.4983 186.667 49.0701C187.26 48.6266 187.713 48.024 187.975 47.3329C188.556 45.7574 188.556 44.0273 187.975 42.4517C187.712 41.7607 187.258 41.1586 186.664 40.7161C186.079 40.2878 185.354 40.0737 184.488 40.0737C183.622 40.0737 182.897 40.2878 182.314 40.7161C181.719 41.1593 181.263 41.7617 180.998 42.4532C180.413 44.028 180.413 45.7596 180.998 47.3344C181.263 48.0262 181.72 48.6287 182.315 49.0716C182.897 49.4988 183.621 49.7125 184.488 49.7125Z" fill="white"/>
<path d="M194.128 51.0937V38.6924H197.748C198.516 38.6749 199.278 38.815 199.989 39.104C200.598 39.3564 201.112 39.7932 201.458 40.3526C201.801 40.9106 201.972 41.6178 201.972 42.4743C201.991 43.1857 201.809 43.8882 201.449 44.5025C201.084 45.0894 200.559 45.5603 199.935 45.8596L202.567 51.0952H200.575L198.201 46.2502C198.159 46.2502 198.109 46.2502 198.05 46.2577C197.99 46.2637 197.931 46.2668 197.871 46.2668H195.835V51.0922L194.128 51.0937ZM195.835 44.7694H197.667C198.545 44.7694 199.193 44.5683 199.611 44.1662C200.028 43.7641 200.237 43.2001 200.237 42.4743C200.237 41.7414 200.028 41.1775 199.611 40.7824C199.193 40.3873 198.545 40.1903 197.668 40.1913H195.835V44.7694Z" fill="white"/>
<path d="M206.35 51.0937V38.6924H208.015V51.0937H206.35ZM212.452 51.0937L208.146 44.5206L212.452 38.6924H214.38L209.99 44.5025L214.402 51.0937H212.452Z" fill="white"/>
<path d="M45.9953 21.2302H37.1021V21.4082H45.9953V21.2302Z" fill="white"/>
<path d="M22.9762 27.3572H22.9263V36.2149H22.9762V27.3572Z" fill="white"/>
<path d="M18.5358 27.3572H18.5298V36.2149H18.5358V27.3572Z" fill="white"/>
<path d="M45.9953 16.978H37.1021V17.0082H45.9953V16.978Z" fill="white"/>
<path d="M19.7574 37.667H17.0322V42.04H19.7574V37.667Z" fill="#FE0182"/>
</svg>
