<svg width="27" height="27" viewBox="0 0 27 27" fill="none" xmlns="http://www.w3.org/2000/svg">
<path d="M13.3833 19.5167L13.7012 20.1496L13.7012 20.1496L13.3833 19.5167ZM12.8199 19.5167L12.502 20.1496L12.502 20.1496L12.8199 19.5167ZM20.036 9.82646C20.036 12.3938 18.6826 14.4718 17.0866 16.0294C15.4927 17.5851 13.7245 18.5528 13.0654 18.8839L13.7012 20.1496C14.4221 19.7874 16.3344 18.7427 18.0759 17.043C19.8154 15.3453 21.4524 12.9248 21.4524 9.82646H20.036ZM13.1016 2.89203C16.9314 2.89203 20.036 5.99668 20.036 9.82646H21.4524C21.4524 5.21443 17.7136 1.47564 13.1016 1.47564V2.89203ZM6.16718 9.82646C6.16718 5.99668 9.27183 2.89203 13.1016 2.89203V1.47564C8.48958 1.47564 4.75079 5.21443 4.75079 9.82646H6.16718ZM13.1378 18.8839C12.4787 18.5528 10.7105 17.5851 9.11659 16.0294C7.52063 14.4718 6.16718 12.3938 6.16718 9.82646H4.75079C4.75079 12.9248 6.38778 15.3453 8.12728 17.043C9.86878 18.7427 11.7811 19.7874 12.502 20.1496L13.1378 18.8839ZM13.0654 18.8839C13.0716 18.8808 13.0844 18.8765 13.1016 18.8765C13.1188 18.8765 13.1316 18.8808 13.1378 18.8839L12.502 20.1496C12.8823 20.3406 13.3209 20.3406 13.7012 20.1496L13.0654 18.8839ZM15.6689 9.82647C15.6689 11.2443 14.5195 12.3937 13.1016 12.3937V13.8101C15.3017 13.8101 17.0852 12.0266 17.0852 9.82647H15.6689ZM13.1016 7.25926C14.5195 7.25926 15.6689 8.40864 15.6689 9.82647H17.0852C17.0852 7.62639 15.3017 5.84287 13.1016 5.84287V7.25926ZM10.5344 9.82647C10.5344 8.40864 11.6838 7.25926 13.1016 7.25926V5.84287C10.9016 5.84287 9.11803 7.62639 9.11803 9.82647H10.5344ZM13.1016 12.3937C11.6838 12.3937 10.5344 11.2443 10.5344 9.82647H9.11803C9.11803 12.0266 10.9016 13.8101 13.1016 13.8101V12.3937Z" fill="white"/>
<path d="M21.6114 19.1065C22.4738 19.6044 22.9278 20.1692 22.9278 20.7442C22.9278 21.3191 22.4738 21.8839 21.6114 22.3819C20.749 22.8798 19.5085 23.2933 18.0147 23.5807C16.521 23.8682 14.8265 24.0196 13.1016 24.0196C11.3768 24.0196 9.68228 23.8682 8.18851 23.5807C6.69473 23.2933 5.45429 22.8798 4.59186 22.3819C3.72942 21.8839 3.27539 21.3191 3.27539 20.7442C3.27539 20.1692 3.72942 19.6044 4.59186 19.1065" stroke="white" stroke-width="1.41639" stroke-linecap="round"/>
</svg>
