<svg width="84" height="84" viewBox="0 0 84 84" fill="none" xmlns="http://www.w3.org/2000/svg">
<path d="M59.0211 54.4039L46.1509 59.8174L55.9747 81.7322L60.6305 75.0561L68.7121 76.0224L59.0211 54.4039Z" fill="#F0F0EF"/>
<path d="M15.2686 76.0224L23.3501 75.0561L28.0058 81.7322L37.8298 59.8174L24.9595 54.4039L15.2686 76.0224Z" fill="#F0F0EF"/>
<path d="M31.277 57.0612L24.9595 54.4039L15.2686 76.0224L23.2025 75.0738L28.5679 63.105C29.5161 63.5403 30.5535 63.7859 31.6205 63.7859C32.001 63.7859 32.3846 63.7559 32.7607 63.6967L35.6459 63.2427L36.155 63.5532L37.8298 59.8174L31.277 57.0612Z" fill="#E2E2E1"/>
<path d="M55.4038 63.0852C56.5151 62.5657 57.4999 61.7798 58.2377 60.765L59.9537 58.4057L60.7304 58.2178L59.0206 54.4039L52.7032 57.0612L46.1504 59.8174L55.9744 81.7323L60.6303 75.0561L60.7779 75.0738L55.4038 63.0852Z" fill="#E2E2E1"/>
<path d="M71.6728 33.1204L69.951 35.9443C69.5625 36.5814 69.4128 37.3357 69.529 38.0729L70.0421 41.3347C70.2259 42.5024 69.74 43.6751 68.7837 44.3704L66.1149 46.3116C65.5107 46.7511 65.0822 47.3911 64.9066 48.1173L64.1294 51.3286C63.8517 52.4754 62.9562 53.3709 61.8094 53.6484L58.5982 54.4255C57.8721 54.6011 57.2318 55.0294 56.7924 55.6338L54.8516 58.3019C54.1562 59.258 52.9837 59.744 51.8156 59.5604L48.5551 59.0472C47.818 58.9312 47.0635 59.0808 46.4262 59.4692L43.6028 61.1909C42.5963 61.8047 41.3309 61.8047 40.3243 61.1909L37.5004 59.4691C36.8634 59.0806 36.109 58.9309 35.3719 59.047L32.1101 59.5602C30.9423 59.744 29.7697 59.2581 29.0744 58.3018L27.1331 55.633C26.6936 55.0288 26.0536 54.6003 25.3275 54.4246L22.1161 53.6474C20.9693 53.3698 20.0738 52.4743 19.7963 51.3275L19.0193 48.1163C18.8436 47.3902 18.4153 46.7498 17.811 46.3105L15.1428 44.3697C14.1867 43.6742 13.7008 42.5018 13.8844 41.3337L14.3975 38.0732C14.5135 37.336 14.364 36.5815 13.9755 35.9443L12.2539 33.1207C11.64 32.1142 11.64 30.8488 12.2539 29.8422L13.9757 27.0184C14.3641 26.3813 14.5138 25.6269 14.3977 24.8898L13.8845 21.628C13.7008 20.4602 14.1867 19.2876 15.143 18.5923L17.8118 16.651C18.4159 16.2115 18.8444 15.5715 19.0201 14.8454L19.7973 11.634C20.075 10.4872 20.9704 9.59175 22.1173 9.31424L25.3285 8.53719C26.0546 8.36154 26.6949 7.9332 27.1344 7.32888L29.0752 4.6607C29.7707 3.7046 30.9431 3.21868 32.1112 3.40228L35.3717 3.91544C36.1089 4.03141 36.8634 3.88187 37.5006 3.49343L40.3238 1.77179C41.3304 1.1579 42.5958 1.1579 43.6023 1.77179L46.4262 3.49359C47.0633 3.88203 47.8176 4.03173 48.5548 3.91561L51.8166 3.40244C52.9843 3.21868 54.157 3.7046 54.8523 4.66087L56.7935 7.32969C57.2331 7.93385 57.8731 8.36235 58.5992 8.538L61.8105 9.31522C62.9574 9.59289 63.8528 10.4883 64.1303 11.6352L64.9074 14.8464C65.083 15.5725 65.5114 16.2128 66.1157 16.6523L68.7839 18.5931C69.74 19.2886 70.2259 20.461 70.0423 21.6291L69.5291 24.8896C69.4132 25.6268 69.5627 26.3813 69.9512 27.0185L71.6728 29.8417C72.2865 30.8486 72.2865 32.1137 71.6728 33.1204Z" fill="#E2E2E1"/>
<path d="M23.8172 25.1997C23.8172 16.8308 26.956 9.19812 32.1145 3.40276L32.1112 3.40228C30.9433 3.21835 29.7707 3.70427 29.0754 4.66054L27.1348 7.32872C26.6952 7.93288 26.0551 8.36138 25.3288 8.53703L22.1176 9.31408C20.9707 9.59159 20.0753 10.487 19.7976 11.6339L19.0204 14.8452C18.8448 15.5714 18.4164 16.2114 17.8121 16.6509L15.1431 18.5921C14.1872 19.2874 13.7011 20.4599 13.8847 21.6278L14.3979 24.8895C14.5138 25.6266 14.3641 26.381 13.9758 27.018L12.2539 29.8416C11.64 30.8481 11.64 32.1135 12.2539 33.1201L13.9755 35.9433C14.3641 36.5806 14.5137 37.3351 14.3975 38.0722L13.8844 41.333C13.7004 42.501 14.1864 43.6736 15.1426 44.3689L17.8108 46.3097C18.415 46.7492 18.8435 47.3894 19.0191 48.1156L19.7962 51.3268C20.0737 52.4737 20.9691 53.3691 22.116 53.6468L25.3273 54.424C26.0534 54.5996 26.6934 55.028 27.133 55.6323L29.0741 58.3011C29.7695 59.2571 30.9418 59.7432 32.1098 59.5596L35.3714 59.0464C36.1085 58.9304 36.8629 59.08 37.5001 59.4684L40.324 61.1902C41.3307 61.8041 42.596 61.8041 43.6025 61.1902L46.4257 59.4686C47.063 59.08 47.8175 58.9304 48.5546 59.0466L51.8153 59.5597C52.9832 59.7436 54.1558 59.2577 54.8512 58.3015L55.0969 57.9636C37.6881 57.1679 23.8172 42.8056 23.8172 25.1997Z" fill="#D3D3D3"/>
<path d="M41.9627 53.8156C54.2973 53.8156 64.2965 43.8164 64.2965 31.4818C64.2965 19.1472 54.2973 9.148 41.9627 9.148C29.6281 9.148 19.6289 19.1472 19.6289 31.4818C19.6289 43.8164 29.6281 53.8156 41.9627 53.8156Z" fill="#F6F6F6"/>
<path d="M47.0057 42.2475C39.094 40.6729 32.7653 34.3409 31.1952 26.4283C30.6937 23.9008 30.6823 21.4444 31.0666 19.1209C31.2121 18.2408 30.1393 17.6977 29.4915 18.3109C25.4845 22.1032 23.2035 27.6987 23.962 33.8036C24.9687 41.9082 31.5356 48.4754 39.6401 49.4827C45.7454 50.2418 51.3412 47.9606 55.1342 43.9534C55.7473 43.3056 55.2042 42.2329 54.3242 42.3783C51.9971 42.7629 49.5369 42.7511 47.0057 42.2475Z" fill="#E2E2E1"/>
<path d="M41.9632 40.1889L34.4048 44.4198C33.6184 44.86 32.6775 44.1764 32.8531 43.2924L34.5412 34.7965L28.1816 28.9153C27.52 28.3034 27.8794 27.1974 28.7742 27.0913L37.3761 26.0715L41.0041 18.2058C41.3816 17.3875 42.5446 17.3875 42.922 18.2058L46.55 26.0715L55.1519 27.0913C56.0469 27.1974 56.4063 28.3037 55.7446 28.9153L49.385 34.7965L51.073 43.2924C51.2487 44.1764 50.3078 44.86 49.5214 44.4198L41.9632 40.1889Z" fill="#FF329A"/>
<path d="M41.9629 18.9183L42.8065 18.0748C42.3595 17.4227 41.3546 17.4456 41.0039 18.2056L37.3759 26.0713L28.7739 27.0912C27.8789 27.1973 27.5195 28.3034 28.1812 28.9152L34.5408 34.7963L32.8526 43.2923C32.677 44.1762 33.6178 44.8599 34.4043 44.4197L36.3958 43.3049L39.2816 34.8636C39.5929 33.9534 39.4133 32.9467 38.8067 32.2002L38.2939 31.5691C37.9274 31.1179 38.1471 30.4386 38.7088 30.2881L39.1906 30.1588C40.33 29.8531 41.1541 28.8644 41.2496 27.6887L41.9629 18.9183Z" fill="#FE0182"/>
<path d="M51.3833 12.6831C52.0282 13.0094 52.8155 12.7502 53.1415 12.1052C53.4675 11.4602 53.2088 10.6731 52.5636 10.3471C43.4294 5.73148 32.4263 7.49626 25.1844 14.7383C16.7676 23.155 15.9252 36.5755 23.225 45.9556C23.483 46.2871 23.8687 46.4607 24.2586 46.4607C24.5395 46.4607 24.8225 46.3706 25.0614 46.1846C25.6319 45.7407 25.7344 44.9186 25.2906 44.3481C18.8 36.008 19.5501 24.0741 27.0353 16.5889C33.4755 10.1481 43.2602 8.57839 51.3833 12.6831Z" fill="#4F4F4F"/>
<path d="M61.2552 20.2208C60.6102 20.5467 60.3512 21.3336 60.677 21.979C64.7786 30.1008 63.2082 39.884 56.7691 46.323C49.2837 53.808 37.35 54.558 29.0099 48.0676C28.4393 47.6239 27.6173 47.7264 27.1734 48.2968C26.7295 48.8672 26.8321 49.6894 27.4026 50.1333C31.6753 53.4583 36.786 55.094 41.8806 55.094C47.9705 55.094 54.037 52.7567 58.62 48.1737C65.8601 40.9336 67.6257 29.9326 63.0135 20.7992C62.6875 20.154 61.9006 19.8953 61.2552 20.2208Z" fill="#4F4F4F"/>
<path d="M55.8102 15.6868C56.137 15.9755 56.4598 16.2792 56.7696 16.5888C57.079 16.8986 57.3826 17.2211 57.6715 17.548C57.93 17.8406 58.2904 17.9899 58.6526 17.9899C58.9606 17.9899 59.2697 17.8817 59.5187 17.662C60.0602 17.1834 60.1112 16.3565 59.6327 15.815C59.3085 15.4481 58.9679 15.0858 58.6203 14.7384C58.2727 14.3908 57.9106 14.0502 57.5437 13.726C57.0022 13.2472 56.175 13.2984 55.6967 13.8398C55.2176 14.3812 55.2685 15.2084 55.8102 15.6868Z" fill="#4F4F4F"/>
<path d="M72.7901 29.1607L71.0684 26.3375C70.8417 25.9654 70.754 25.5236 70.8218 25.0935L71.3349 21.833C71.5965 20.1714 70.9139 18.5247 69.5538 17.5351L66.8856 15.5944C66.5328 15.3378 66.2821 14.9631 66.1794 14.5392L65.4024 11.328C65.0079 9.69685 63.7495 8.43858 62.1185 8.04381L58.9072 7.2666C58.4832 7.16394 58.1084 6.91335 57.8519 6.56043L55.9109 3.8916C54.9215 2.53148 53.2746 1.8485 51.6135 2.11027L48.3519 2.62344C47.9217 2.69108 47.4798 2.60349 47.108 2.37675L44.2843 0.654625C42.8528 -0.218279 41.0746 -0.218117 39.6431 0.654625L36.8199 2.37627C36.448 2.60317 36.0065 2.69059 35.5759 2.62296L32.3151 2.10979C30.6539 1.84834 29.0069 2.53099 28.0175 3.89112L26.0768 6.55929C25.8202 6.91206 25.4454 7.1628 25.0214 7.26547L21.8102 8.04252C20.1794 8.43696 18.9208 9.69539 18.526 11.3264L17.7488 14.5377C17.6461 14.9617 17.3956 15.3365 17.0426 15.5929L14.3737 17.534C13.0135 18.5232 12.331 20.1697 12.5923 21.8314L13.1055 25.0932C13.1731 25.5235 13.0855 25.9653 12.8588 26.337L11.1368 29.1609C10.2643 30.5924 10.2643 32.3706 11.137 33.8019L12.8586 36.6252C13.0855 36.9972 13.1731 37.439 13.1053 37.8692L12.5922 41.13C12.3306 42.7914 13.0132 44.4383 14.3733 45.4277L17.0415 47.3684C17.3943 47.6249 17.645 47.9997 17.7477 48.4236L18.5247 51.6348C18.9192 53.266 20.1776 54.5242 21.8086 54.919L23.1496 55.2435L14.0744 75.4871C13.8816 75.9173 13.9349 76.4179 14.2144 76.7977C14.4937 77.1776 14.9554 77.3779 15.4238 77.3217L22.7259 76.4487L26.9325 82.4807C27.1787 82.8334 27.5806 83.0407 28.0055 83.0407C28.0462 83.0407 28.0874 83.0388 28.1283 83.035C28.5977 82.9909 29.0072 82.6975 29.2 82.2675L38.4684 61.5918L39.6428 62.3079C40.3585 62.7443 41.161 62.9625 41.9634 62.9625C42.7657 62.9625 43.5682 62.7442 44.284 62.3079L45.5007 61.566L54.7807 82.2675C54.9736 82.6978 55.3829 82.9909 55.8525 83.035C55.8935 83.0389 55.9345 83.0407 55.9753 83.0407C56.4004 83.0407 56.8023 82.8334 57.0483 82.4807L61.2548 76.4487L68.5569 77.3217C69.025 77.3774 69.4871 77.1776 69.7664 76.7977C70.0457 76.4179 70.0994 75.9173 69.9064 75.4871L60.8265 55.2323L62.117 54.9201C63.7479 54.5257 65.0064 53.2673 65.4012 51.6363L66.1784 48.4249C66.2811 48.001 66.5317 47.6261 66.8846 47.3697L69.5534 45.4286C70.9136 44.4395 71.596 42.7929 71.3348 41.1313L70.8216 37.8695C70.754 37.4392 70.8415 36.9974 71.0683 36.6257L72.7902 33.8018C73.663 32.3703 73.663 30.5919 72.7901 29.1607ZM27.7572 79.088L24.4236 74.3076C24.1472 73.9112 23.6746 73.6991 23.1948 73.7568L17.4081 74.4487L25.6763 56.004C25.8275 56.1151 25.9631 56.2483 26.0748 56.4022L28.0159 59.071C28.2003 59.3246 28.4076 59.5544 28.6335 59.7591L24.2815 69.4672C23.986 70.1267 24.2808 70.901 24.9403 71.1967C25.1142 71.2747 25.2958 71.3115 25.4747 71.3115C25.9746 71.3115 26.4521 71.0234 26.6696 70.5378L31.0062 60.8642C31.4329 60.9228 31.8723 60.9218 32.3133 60.8524L35.5749 60.3392C35.7702 60.3086 35.9676 60.3113 36.1598 60.3431L27.7572 79.088ZM60.7861 73.7568C60.3059 73.6992 59.8337 73.9112 59.5574 74.3076L56.2237 79.088L47.8176 60.3358C47.9939 60.3118 48.1738 60.3118 48.3517 60.3397L51.6122 60.8529C52.071 60.925 52.5282 60.9228 52.9712 60.8568L57.311 70.5382C57.5289 71.0239 58.006 71.3118 58.5059 71.3118C58.6848 71.3118 58.8666 71.275 59.0403 71.197C59.6998 70.9015 59.9948 70.127 59.6991 69.4676L55.3306 59.7224C55.5411 59.5268 55.736 59.3103 55.9097 59.0715L57.8505 56.4034C57.9728 56.2352 58.1226 56.091 58.291 55.9744L66.5727 74.4489L60.7861 73.7568ZM70.5556 32.4392L68.8336 35.2631C68.2845 36.1639 68.0722 37.234 68.2361 38.2763L68.7493 41.5379C68.8572 42.2238 68.5753 42.9035 68.0139 43.3119L65.3449 45.2532C64.4907 45.8747 63.8831 46.7824 63.6347 47.8093L62.8574 51.0206C62.6944 51.6939 62.1751 52.2134 61.5017 52.3764L58.2903 53.1534C57.2634 53.4019 56.3554 54.0094 55.7339 54.8639L53.7932 57.532C53.3848 58.0937 52.7052 58.3753 52.019 58.2672L48.7583 57.7541C47.7159 57.5901 46.6456 57.8022 45.7447 58.3516L42.9214 60.0732C42.3306 60.4333 41.5962 60.4333 41.0057 60.0732L38.1818 58.3514C37.4795 57.9231 36.6744 57.6999 35.8597 57.6999C35.6294 57.6999 35.398 57.7177 35.1685 57.7539L31.9067 58.2671C31.2206 58.3751 30.541 58.093 30.1326 57.5317L28.1914 54.8629C27.5699 54.0086 26.6621 53.4011 25.6353 53.1526L22.4239 52.3754C21.7505 52.2124 21.2312 51.6931 21.0682 51.0196L20.2911 47.8085C20.0427 46.7815 19.4353 45.8734 18.5807 45.2519L15.9127 43.3109C15.3512 42.9025 15.0694 42.2226 15.1775 41.5367L15.6906 38.2759C15.8546 37.2335 15.6425 36.1634 15.0931 35.2624L13.3715 32.4389C13.0111 31.848 13.0111 31.1138 13.3715 30.5231L15.0934 27.6992C15.6426 26.7984 15.8549 25.7283 15.691 24.6861L15.1778 21.4244C15.0699 20.7385 15.3518 20.0588 15.9132 19.6504L18.5821 17.7092C19.4364 17.0877 20.044 16.1799 20.2924 15.1531L21.0696 11.9417C21.2326 11.2685 21.752 10.749 22.4254 10.586L25.6367 9.80892C26.6637 9.56045 27.5717 8.95289 28.1932 8.09847L30.1339 5.43029C30.5423 4.86879 31.2219 4.58675 31.9081 4.69493L35.1689 5.20809C36.2115 5.37239 37.2818 5.15992 38.1826 4.61059L41.0058 2.88895C41.5967 2.52889 42.3311 2.52889 42.9216 2.88895L45.7455 4.61075C46.6463 5.16025 47.7167 5.37255 48.7588 5.20842L52.0206 4.69525C52.7063 4.58772 53.3862 4.86928 53.7946 5.43062L55.7359 8.09945C56.3574 8.9537 57.2651 9.56126 58.292 9.80973L61.5033 10.5869C62.1767 10.7499 62.6961 11.2693 62.8591 11.9427L63.6361 15.1539C63.8846 16.1809 64.492 17.089 65.3466 17.7105L68.0147 19.6512C68.5762 20.0596 68.858 20.7395 68.7499 21.4254L68.2368 24.6862C68.0728 25.7286 68.285 26.7988 68.8343 27.6997L70.5559 30.5233C70.916 31.1141 70.916 31.8484 70.5556 32.4392Z" fill="#4F4F4F"/>
<path d="M27.2931 29.8761L33.1149 35.26L31.5696 43.0377C31.3877 43.9534 31.7439 44.8629 32.4992 45.4115C32.9159 45.7141 33.3994 45.8674 33.886 45.8674C34.2815 45.8674 34.6789 45.7662 35.044 45.5618L41.9633 41.6889L48.8826 45.5618C49.6973 46.0179 50.6722 45.9603 51.4274 45.4116C52.1827 44.8629 52.5389 43.9532 52.3569 43.0377L50.8116 35.2602L56.6333 29.8763C57.3188 29.2426 57.5653 28.2972 57.2769 27.4094C56.9885 26.5216 56.2335 25.9017 55.3065 25.7917L47.432 24.858L44.1107 17.6576C43.7197 16.81 42.8969 16.2834 41.9633 16.2834C41.0297 16.2834 40.207 16.81 39.8159 17.6576L36.4946 24.8582L28.6201 25.7919C27.6931 25.9019 26.9379 26.5217 26.6497 27.4096C26.3615 28.2971 26.608 29.2425 27.2931 29.8761ZM37.5303 27.371C37.9822 27.3174 38.3739 27.0328 38.5646 26.6197L41.9633 19.2513L45.362 26.6197C45.5527 27.0328 45.9442 27.3174 46.3963 27.371L54.4545 28.3264L48.4968 33.8358C48.1627 34.1448 48.0131 34.6053 48.1017 35.0516L49.683 43.0104L42.6022 39.047C42.4037 38.9359 42.1834 38.8803 41.963 38.8803C41.7426 38.8803 41.5225 38.9357 41.3238 39.047L34.2429 43.0104L35.8243 35.0516C35.9132 34.6051 35.7635 34.1448 35.4292 33.8358L29.4718 28.3264L37.5303 27.371Z" fill="#4F4F4F"/>
<defs>
<clipPath id="clip0">
<rect width="83.0408" height="83.0408" fill="white" transform="translate(0.443359)"/>
</clipPath>
</defs>
</svg>
