<svg width="75" height="74" viewBox="0 0 75 74" fill="none" xmlns="http://www.w3.org/2000/svg">>
<path d="M64.3703 25.5355H8.31523C6.93133 25.5355 5.80957 26.6572 5.80957 28.0411V34.7718H66.8759V28.0411C66.8759 26.6572 65.7542 25.5355 64.3703 25.5355Z" fill="#F6F6F6"/>
<path d="M44.0193 11.6204L38.943 63.0102C38.8154 64.3011 37.6656 65.2442 36.3748 65.1167L10.6537 62.5759C9.36281 62.4484 8.41965 61.2986 8.5472 60.0077L13.6235 8.6179C13.7511 7.32703 14.9009 6.38387 16.1917 6.51142L41.9128 9.05216C43.2037 9.17971 44.1468 10.3295 44.0193 11.6204Z" fill="#FE0182"/>
<path d="M41.9131 9.05216L16.1921 6.51142C14.9012 6.38387 13.7513 7.32703 13.6239 8.6179L13.1685 13.2285C13.5543 13.0325 13.9977 12.9387 14.4605 12.9844L40.1815 15.5252C41.4724 15.6527 42.4156 16.8025 42.288 18.0934L37.6671 64.8727C38.3579 64.5216 38.8616 63.8385 38.9435 63.0102L44.0198 11.6205C44.1472 10.3295 43.204 9.17971 41.9131 9.05216Z" fill="#FE0182"/>
<path d="M16.3505 15.9048L12.6471 53.3949C12.594 53.9316 12.8468 54.4546 13.3044 54.7397C14.5655 55.5259 15.5419 56.7054 16.0785 58.0902C16.2714 58.5879 16.7322 58.9311 17.2633 58.9836L30.597 60.3008C31.1282 60.3533 31.6471 60.1068 31.9337 59.6564C32.7309 58.4034 33.9193 57.4378 35.3098 56.9135C35.8144 56.7233 36.1645 56.2598 36.2174 55.7233L39.9208 18.2332C39.9738 17.6965 39.721 17.1735 39.2635 16.8884C38.0024 16.1022 37.026 14.9227 36.4893 13.5379C36.2965 13.0402 35.8356 12.697 35.3046 12.6445L21.9709 11.3273C21.4397 11.2748 20.9207 11.5213 20.6342 11.9717C19.8369 13.2247 18.6486 14.1903 17.2581 14.7146C16.7535 14.9048 16.4034 15.3682 16.3505 15.9048Z" fill="#FF329A"/>
<path d="M39.2629 16.8882C38.0018 16.1021 37.0254 14.9225 36.4888 13.5378C36.296 13.0401 35.8351 12.6968 35.3041 12.6444L21.9703 11.3272C21.4392 11.2747 20.9202 11.5212 20.6336 11.9715C19.8364 13.2246 18.6481 14.1902 17.2576 14.7145C16.753 14.9047 16.403 15.3682 16.3499 15.9047L16.209 17.3319L33.4857 18.9852C34.0169 19.0377 34.4776 19.381 34.6705 19.8786C35.2071 21.2634 36.1835 22.4428 37.4446 23.2291C37.9022 23.5144 38.1548 24.0374 38.1019 24.5739L34.8901 57.0889C35.0278 57.0262 35.1672 56.967 35.3094 56.9134C35.814 56.7231 36.1641 56.2597 36.217 55.7232L39.9204 18.233C39.9731 17.6965 39.7205 17.1735 39.2629 16.8882Z" fill="#FF329A"/>
<path d="M65.8289 19.2768L36.7483 61.95C36.0178 63.022 34.5567 63.2987 33.4847 62.5682L12.1264 48.0131C11.0544 47.2826 10.7777 45.8214 11.5082 44.7494L40.5888 2.0763C41.3193 1.00429 42.7804 0.727626 43.8524 1.45811L65.2107 16.0132C66.2826 16.7437 66.5594 18.2048 65.8289 19.2768Z" fill="#FE0182"/>
<path d="M65.2106 16.0132L43.8522 1.45797C42.7802 0.727481 41.3191 1.00429 40.5886 2.07615L38.1012 5.72643C38.317 5.79402 38.5268 5.89338 38.7235 6.02726L60.0818 20.5824C61.1538 21.3129 61.4305 22.774 60.7 23.846L34.1069 62.869C35.0681 63.1697 36.1517 62.8251 36.7482 61.9498L65.8288 19.2767C66.5593 18.2048 66.2825 16.7437 65.2106 16.0132Z" fill="#FE0182"/>
<path d="M39.49 9.77849L18.2749 40.9096C17.9712 41.3553 17.9424 41.9353 18.2073 42.405C18.9375 43.6993 19.2293 45.2025 19.0367 46.675C18.9676 47.2042 19.2074 47.7263 19.6485 48.027L30.7205 55.5723C31.1615 55.8728 31.7353 55.9052 32.2025 55.6472C33.5026 54.9294 35.0084 54.6513 36.48 54.8575C37.0141 54.9323 37.5434 54.6933 37.8471 54.2477L59.0622 23.1165C59.3659 22.6709 59.3946 22.0908 59.1297 21.6212C58.3995 20.3268 58.1078 18.8236 58.3003 17.3511C58.3695 16.8219 58.1296 16.2998 57.6886 15.9991L46.6165 8.45383C46.1755 8.15329 45.6018 8.12094 45.1346 8.37891C43.8345 9.09675 42.3287 9.37485 40.857 9.16864C40.323 9.09387 39.7935 9.33286 39.49 9.77849Z" fill="#FF329A"/>
<path d="M59.1297 21.6212C58.3995 20.3269 58.1078 18.8237 58.3003 17.3511C58.3695 16.8219 58.1296 16.2998 57.6886 15.9991L46.6165 8.45383C46.1755 8.15329 45.6018 8.12094 45.1346 8.37891C43.8345 9.09675 42.3288 9.37485 40.857 9.16864C40.323 9.09387 39.7937 9.33286 39.49 9.77849L38.6058 11.076L52.4433 20.4035C52.8844 20.704 53.1243 21.2262 53.055 21.7555C52.8625 23.2281 53.1543 24.7312 53.8845 26.0255C54.1493 26.4952 54.1206 27.0752 53.8169 27.5209L35.2275 54.7991C35.6443 54.7809 36.0636 54.799 36.4802 54.8574C37.0142 54.9322 37.5435 54.6932 37.8472 54.2477L59.0623 23.1165C59.3658 22.6709 59.3948 22.0908 59.1297 21.6212Z" fill="#FF329A"/>
<path d="M41.9174 36.727C46.1137 36.727 49.5155 33.3252 49.5155 29.1289C49.5155 24.9326 46.1137 21.5308 41.9174 21.5308C37.7211 21.5308 34.3193 24.9326 34.3193 29.1289C34.3193 33.3252 37.7211 36.727 41.9174 36.727Z" fill="#FE0182"/>
<path d="M65.2384 72.575H6.70346C4.7077 72.575 3.08984 70.9571 3.08984 68.9614V33.1998C3.08984 31.2041 4.7077 29.5862 6.70346 29.5862H65.2384C67.2342 29.5862 68.852 31.2041 68.852 33.1998V68.9614C68.8522 70.957 67.2342 72.575 65.2384 72.575Z" fill="#F6F6F6"/>
<path d="M65.2387 29.5861H58.6646C60.6603 29.5861 62.2782 31.2039 62.2782 33.1998V68.9614C62.2782 70.9571 60.6603 72.575 58.6646 72.575H65.2387C67.2344 72.575 68.8523 70.9571 68.8523 68.9614V33.1998C68.8524 31.2039 67.2344 29.5861 65.2387 29.5861Z" fill="#BCBCBC"/>
<path d="M71.0031 44.1728H57.8285C54.0135 44.1728 50.9209 47.2655 50.9209 51.0804C50.9209 54.8953 54.0135 57.988 57.8285 57.988H71.0031C71.7263 57.988 72.3124 57.4017 72.3124 56.6787V45.4819C72.3124 44.7591 71.7261 44.1728 71.0031 44.1728Z" fill="#D3D3D3"/>
<path d="M71.003 44.1728H64.4056C65.1287 44.1728 65.7149 44.7591 65.7149 45.4821V54.9133C65.7149 55.6845 65.0896 56.3096 64.3186 56.3096H57.8285C54.2978 56.3096 51.3878 53.6601 50.9734 50.2412C50.94 50.5164 50.9209 50.7961 50.9209 51.0804C50.9209 54.8953 54.0135 57.9881 57.8286 57.9881H64.4057H71.0031C71.7263 57.9881 72.3124 57.402 72.3124 56.6788V55.0003V45.4821C72.3124 44.7591 71.7261 44.1728 71.003 44.1728Z" fill="#BCBCBC"/>
<path d="M65.2384 29.5861H6.70346C4.7077 29.5861 3.08984 31.2039 3.08984 33.1997V37.1597H68.8522V33.1997C68.8522 31.2039 67.2342 29.5861 65.2384 29.5861Z" fill="#D3D3D3"/>
<path d="M68.2351 31.1793C68.1052 30.9871 67.9573 30.8081 67.7938 30.6446C67.7919 30.6427 67.7899 30.6408 67.7879 30.6389C67.626 30.4778 67.449 30.3317 67.2589 30.2032C67.2108 30.1707 67.1619 30.1394 67.1122 30.1092C67.0383 30.0643 66.9621 30.0229 66.8848 29.9832C66.8348 29.9575 66.784 29.933 66.7327 29.9096C66.2772 29.7024 65.7716 29.5859 65.2384 29.5859H58.6646C60.6602 29.5861 62.2779 31.2039 62.2779 33.1997V37.1597H68.852V33.1998C68.852 32.5762 68.6939 31.9893 68.4158 31.4773C68.3605 31.3749 68.2999 31.2754 68.2351 31.1793Z" fill="#BCBCBC"/>
<path d="M6.70311 72.575H65.2381C67.2338 72.575 68.8517 70.9571 68.8517 68.9614V65.0014H3.08936V68.9614C3.08936 70.957 4.70736 72.575 6.70311 72.575Z" fill="#D3D3D3"/>
<path d="M62.2781 65.0012V68.9612C62.2781 68.9632 62.2781 68.9654 62.2781 68.9674C62.2775 69.301 61.9981 69.5676 61.6645 69.5676H6.70346C4.7077 69.5676 3.08984 67.9498 3.08984 65.954V68.9614C3.08984 70.9571 4.7077 72.575 6.70346 72.575H58.6645H65.2386C65.3099 72.575 65.3806 72.5724 65.451 72.5682C65.4729 72.5669 65.4947 72.5649 65.5165 72.5632C65.5656 72.5595 65.6143 72.555 65.6628 72.5492C65.6868 72.5465 65.7108 72.5434 65.7348 72.54C65.783 72.5334 65.8307 72.5257 65.8783 72.5172C65.8995 72.5134 65.9206 72.51 65.9416 72.5058C66.0089 72.4926 66.0756 72.4779 66.1413 72.4611C66.1413 72.4611 66.1415 72.4611 66.1416 72.4611C66.1705 72.4536 66.1988 72.4448 66.2273 72.4368C66.3702 72.3962 66.51 72.3481 66.645 72.291C66.6991 72.2681 66.7525 72.244 66.8051 72.2187C66.8577 72.1933 66.9096 72.1666 66.961 72.1389L66.9611 72.1387C67.0633 72.0832 67.1627 72.0228 67.2588 71.958L67.2589 71.9578L67.259 71.9577C67.3409 71.9024 67.4197 71.8432 67.4965 71.7817C67.5001 71.7788 67.5038 71.7759 67.5074 71.773C67.5852 71.7102 67.6601 71.6439 67.7324 71.5749C67.8176 71.4936 67.8987 71.4084 67.9756 71.3192V71.3191C68.0958 71.1796 68.2057 71.0312 68.3037 70.8744C68.3065 70.8703 68.3092 70.8661 68.3118 70.8618C68.3479 70.8036 68.3828 70.7446 68.4156 70.6842C68.4156 70.6841 68.4157 70.6839 68.4159 70.6838V70.6836C68.5032 70.5227 68.5782 70.3543 68.6408 70.1799C68.648 70.1601 68.6543 70.1398 68.6612 70.1198C68.6763 70.0752 68.6907 70.0304 68.7041 69.9849C68.7108 69.9619 68.7174 69.9388 68.7238 69.9156C68.7361 69.87 68.7476 69.824 68.7583 69.7778C68.7632 69.7567 68.7685 69.7357 68.7729 69.7144C68.787 69.6477 68.7998 69.5807 68.8103 69.5127C68.8103 69.5123 68.8105 69.512 68.8105 69.5115C68.8105 69.5114 68.8105 69.5111 68.8105 69.511C68.8225 69.4316 68.8312 69.3511 68.8379 69.2701C68.8397 69.2495 68.8412 69.2291 68.8427 69.2086C68.8481 69.1267 68.852 69.0445 68.852 68.9614V65.9541V65.0014H62.2781V65.0012Z" fill="#BCBCBC"/>
<path d="M58.0744 54.2882C59.8457 54.2882 61.2817 52.8522 61.2817 51.0809C61.2817 49.3096 59.8457 47.8737 58.0744 47.8737C56.3031 47.8737 54.8672 49.3096 54.8672 51.0809C54.8672 52.8522 56.3031 54.2882 58.0744 54.2882Z" fill="#F2F2F2"/>
<path d="M71.0029 43.124H69.9011V37.16V33.2C69.9011 31.6289 69.1192 30.2378 67.9249 29.3925V28.0413C67.9249 26.0812 66.3304 24.4866 64.3703 24.4866H63.5476L66.6952 19.8679C67.7502 18.3197 67.349 16.2018 65.8009 15.1466L44.4426 0.591326C43.6927 0.0801281 42.7888 -0.108533 41.8967 0.0607155C41.005 0.229677 40.2324 0.735698 39.7213 1.48574L21.2864 28.5372H16.1565L17.3941 16.0082C17.4081 15.867 17.4998 15.7446 17.6278 15.6965C19.2224 15.0953 20.6043 13.9725 21.5188 12.5351C21.5909 12.4219 21.7267 12.3572 21.8674 12.3715L29.9135 13.1664C30.4904 13.2223 31.0037 12.8021 31.0606 12.2255C31.1175 11.6489 30.6964 11.1354 30.1197 11.0784L22.0736 10.2835C21.1396 10.1921 20.2489 10.6224 19.7485 11.4087C19.0761 12.4656 18.0601 13.291 16.8877 13.7331C16.0052 14.0658 15.3993 14.8584 15.3061 15.8019L14.0481 28.5371H12.7104L14.6678 8.72131C14.7382 8.00808 15.3748 7.48408 16.0889 7.55555L32.3486 9.16176C32.9252 9.21741 33.4387 8.79752 33.4957 8.2209C33.5526 7.64427 33.1314 7.13077 32.5548 7.07383L16.2951 5.46762C14.4309 5.2837 12.7639 6.65049 12.5797 8.51496L11.0019 24.4865H8.3151C6.35515 24.4865 4.76044 26.081 4.76044 28.0411V28.9629C3.15697 29.7011 2.04053 31.322 2.04053 33.1998V37.1599V65.0012V68.9613C2.04053 71.5323 4.1322 73.624 6.70343 73.624H65.2384C67.8095 73.624 69.9011 71.5323 69.9011 68.9613V65.0012V59.0374H71.0029C72.3034 59.0374 73.3613 57.9795 73.3613 56.6791V45.4824C73.3615 44.1819 72.3034 43.124 71.0029 43.124ZM64.3703 26.5846C65.1735 26.5846 65.8268 27.238 65.8268 28.0413V28.5758C65.6338 28.5513 65.4378 28.5374 65.2384 28.5374H60.7871L62.1177 26.5848L64.3703 26.5846ZM41.4551 2.66718C41.6507 2.3803 41.9462 2.18675 42.2873 2.12204C42.3688 2.10666 42.4506 2.09889 42.5318 2.09889C42.7903 2.09889 43.0428 2.17625 43.261 2.32494L64.6193 16.8801C65.2115 17.2837 65.3651 18.0938 64.9616 18.686L58.2483 28.5369H56.6372L59.9285 23.7072C60.4623 22.924 60.5063 21.9272 60.043 21.1057C59.4273 20.0143 59.1776 18.7291 59.3401 17.4869C59.4609 16.5627 59.0543 15.6605 58.2789 15.1322L47.2068 7.5869C46.4313 7.05844 45.4429 7.00998 44.627 7.4605C43.5305 8.06589 42.2431 8.30358 41.0021 8.12988C40.0818 8.00075 39.1485 8.41632 38.6226 9.18779L25.4366 28.5371H23.8255L41.4551 2.66718ZM41.9171 20.4823C37.3485 20.4823 33.5983 24.0446 33.2928 28.5371H27.9753L40.3561 10.3694C40.4264 10.266 40.5431 10.2044 40.6629 10.2044C40.6789 10.2044 40.6948 10.2056 40.7108 10.2077C42.3987 10.4439 44.1494 10.1209 45.6409 9.29736C45.7582 9.23237 45.9089 9.24171 46.0251 9.3208L57.0973 16.8663C57.2132 16.9453 57.2769 17.0822 57.2597 17.2151C57.0387 18.9046 57.3783 20.6523 58.2156 22.1365C58.2828 22.2558 58.2746 22.4085 58.1949 22.5257L54.0984 28.5369H50.5419C50.2361 24.0446 46.486 20.4823 41.9171 20.4823ZM48.438 28.5372H35.3964C35.6969 25.2027 38.5058 22.5806 41.9171 22.5806C45.3286 22.5805 48.1376 25.2027 48.438 28.5372ZM6.85858 28.0411C6.85858 27.2379 7.51185 26.5845 8.3151 26.5845H10.7947L10.6019 28.5371H6.85858V28.0411ZM4.13867 33.1998C4.13867 31.7857 5.28919 30.6352 6.70343 30.6352H65.2384C66.6526 30.6352 67.803 31.7857 67.803 33.1998V36.1109H4.13867V33.1998ZM67.803 63.9524H16.5132C15.9337 63.9524 15.4642 64.422 15.4642 65.0014C15.4642 65.5807 15.9339 66.0504 16.5132 66.0504H67.803V68.9614C67.803 70.3755 66.6526 71.526 65.2384 71.526H6.70343C5.28919 71.526 4.13867 70.3755 4.13867 68.9614V66.0504H9.79592C10.3754 66.0504 10.8449 65.5807 10.8449 65.0014C10.8449 64.422 10.3753 63.9524 9.79592 63.9524H4.13867V38.209H67.803V43.124H57.8284C54.6856 43.124 51.9631 44.956 50.671 47.6077C50.6667 47.6166 50.6618 47.6253 50.6574 47.6342C50.6464 47.6568 50.637 47.6802 50.6263 47.7029C50.4725 48.0298 50.3387 48.3681 50.2299 48.7173L50.229 48.7201C49.9968 49.4663 49.8715 50.259 49.8715 51.0807C49.8715 55.4681 53.4408 59.0374 57.8281 59.0374H67.8028L67.803 63.9524ZM71.2633 56.679C71.2633 56.8225 71.1466 56.9393 71.0029 56.9393H68.852H57.8284C55.6074 56.9393 53.6711 55.697 52.6779 53.8709C52.6327 53.788 52.5896 53.7037 52.5483 53.6184C52.4659 53.4477 52.3916 53.2725 52.3259 53.093C52.0955 52.4652 51.9698 51.7873 51.9698 51.0807C51.9698 50.3741 52.0956 49.6962 52.3259 49.0684C52.3917 48.8891 52.4661 48.7138 52.5483 48.543C52.5896 48.4577 52.6327 48.3734 52.6779 48.2905C53.6711 46.4644 55.6074 45.2221 57.8284 45.2221H68.852H71.0029C71.1464 45.2221 71.2633 45.3389 71.2633 45.4824V56.679Z" fill="#4F4F4F"/>
<path d="M58.0747 46.8241C55.7277 46.8241 53.8184 48.7336 53.8184 51.0805C53.8184 53.4274 55.7277 55.3368 58.0747 55.3368C60.4218 55.3368 62.3311 53.4274 62.3311 51.0805C62.3311 48.7336 60.4218 46.8241 58.0747 46.8241ZM58.0747 53.2386C56.8847 53.2386 55.9165 52.2704 55.9165 51.0805C55.9165 49.8906 56.8847 48.9223 58.0747 48.9223C59.2648 48.9223 60.233 49.8905 60.233 51.0805C60.233 52.2706 59.2648 53.2386 58.0747 53.2386Z" fill="#4F4F4F"/>
<defs>
<clipPath id="clip0">
<rect width="73.6238" height="73.6238" fill="white" transform="translate(0.88916)"/>
</clipPath>
</defs>
</svg>
