<svg width="78" height="78" viewBox="0 0 78 78" fill="none" xmlns="http://www.w3.org/2000/svg">
<path d="M56.1827 49.2596C64.8933 16.7559 64.3404 19.0999 64.3404 18.1696C64.3404 16.7647 63.7332 15.45 62.795 14.5685C60.4319 12.3167 56.5864 12.9242 55.0164 15.7498V6.80202C55.0164 3.71288 52.5155 1.20401 49.4184 1.20401C46.3275 1.20401 43.8204 3.71108 43.8204 6.80202V23.4862L34.4844 8.04653C33.4475 6.24974 31.565 5.24602 29.6313 5.24602C25.3625 5.24602 22.6255 9.89522 24.7887 13.6445L32.9946 27.3281H22.0499C18.9592 27.3281 16.4519 29.8353 16.4519 32.9261C16.4519 33.6096 16.5363 33.5476 16.4519 33.5476C15.084 33.5476 13.9644 34.6672 13.9644 36.0366V58.4286C13.9644 68.0461 21.7624 75.8442 31.3799 75.8442H37.6009C37.6009 75.7138 43.0588 76.2139 47.8323 71.4455C57.7401 61.5337 56.1223 49.461 56.1827 49.2596ZM38.9507 53.2491C37.8829 56.8314 33.4688 58.0933 30.6711 55.6448C27.1693 52.5795 25.1604 48.1537 25.1604 43.5007C25.1604 41.8996 25.2493 40.4771 24.3222 38.5242H35.0652L36.4422 39.7793C38.1103 41.2995 39.1568 43.5032 39.1599 45.9326C39.1616 52.288 39.2314 52.3047 38.9507 53.2491Z" fill="#D3D3D3"/>
<path d="M55.0159 6.80217V38.8524C52.7338 34.3728 51.414 31.3917 43.8198 18.8319V6.80217C43.8198 3.71122 46.3269 1.20414 49.4179 1.20414C52.507 1.20414 55.0159 3.70489 55.0159 6.80217Z" fill="#F6F6F6"/>
<path d="M49.5141 33.3507L46.1628 29.9994C42.8882 26.7234 38.5347 24.9205 33.9043 24.9205H31.5492L24.7879 13.6447C22.6257 9.8972 25.3599 5.24617 29.6305 5.24617C31.5642 5.24617 33.4468 6.2499 34.4836 8.04669C45.6964 26.5899 42.3469 20.9348 49.5141 33.3507Z" fill="#F6F6F6"/>
<path d="M56.2002 49.6752C56.0289 46.3245 55.3783 44.1476 54.8022 42.0426L44.4609 31.7014C41.6604 28.9008 37.8637 27.3283 33.9045 27.3283C20.984 27.3283 21.1074 27.1292 19.5332 27.9257C18.2657 28.555 17.2225 29.71 16.7402 31.1491C21.8644 31.393 25.4977 34.5485 26.925 38.5243H35.0647C36.5391 39.8683 37.6159 40.6838 38.4491 42.5693C39.3728 44.6597 39.1594 45.8363 39.1609 51.791C39.1609 56.1765 33.9758 58.5376 30.6706 55.6449C27.982 53.2918 26.2122 50.0881 25.6007 47.2449C24.5913 43.0143 25.9646 41.1906 23.9048 37.7508C22.4932 35.4236 20.0429 33.8293 17.2218 33.5824C17.1616 33.5824 17.4335 33.5925 16.4874 33.5478C16.4242 33.5478 16.4468 31.8338 16.4468 55.9459C16.4468 65.5633 24.2449 73.3614 33.8623 73.3614H40.0833C40.0833 73.2628 44.7283 73.6419 49.2132 69.9604C49.2147 69.9589 49.2162 69.9589 49.2177 69.9559C54.1997 64.215 56.5931 56.817 56.2002 49.6752Z" fill="#F6F6F6"/>
<path d="M64.3391 18.1697C64.3391 19.0975 64.7929 17.1264 57.4229 44.6264V13.5888C60.6727 12.2146 64.3391 14.5855 64.3391 18.1697Z" fill="#F6F6F6"/>
<path d="M65.5446 18.1691C65.5446 13.4476 60.3685 10.4013 56.2207 12.8489V6.80217C56.2207 4.98643 55.5138 3.27829 54.2286 1.9912C49.9788 -2.25201 42.617 0.722464 42.617 6.80217V19.1684L35.5207 7.43316C33.6663 4.23597 29.5286 3.05482 26.2352 4.95408C22.8808 6.89051 21.907 11.1939 23.7566 14.2633L30.8693 26.1242H22.0501C18.4074 26.1242 15.4565 28.9739 15.2589 32.5417C13.8074 33.0392 12.7607 34.418 12.7607 36.0367V58.4288C12.7607 68.6957 21.1134 77.0482 31.3801 77.0482H37.6012C41.316 77.0482 45.5652 75.4123 48.6837 72.2969C49.4268 71.554 50.1376 70.7637 50.7964 69.9477C51.214 69.4304 51.1332 68.6724 50.6158 68.2548C50.0984 67.837 49.3404 67.918 48.9228 68.4352C43.1468 75.5904 38.3116 74.6404 31.3801 74.6404C22.4411 74.6404 15.1685 67.3678 15.1685 58.4288V36.0367C15.1685 35.3281 15.7444 34.7516 16.4521 34.7516C16.5623 34.7516 16.6581 34.7468 16.7991 34.7092C17.0536 34.8041 21.2333 34.8675 23.2347 39.0398C24.0568 40.7743 23.9569 42.0677 23.9569 43.5003C23.9569 48.5004 26.1155 53.2571 29.8786 56.5506C33.3274 59.5711 38.7831 58.0252 40.1048 53.5915C40.4536 52.4171 40.3662 52.1956 40.3645 45.9308C40.3609 43.2412 39.2297 40.6884 37.2535 38.8898C35.794 37.5589 35.6705 37.3338 35.0947 37.322C34.9957 37.3198 33.7561 37.3205 25.0457 37.3205C23.4478 34.5346 20.6699 32.7953 17.6858 32.4229C17.936 30.2214 19.8057 28.5322 22.0504 28.5322H33.9056C37.5714 28.5322 41.0182 29.96 43.6108 32.5529L53.2035 42.1455C54.0699 43.6455 53.8781 43.2227 54.0676 43.9146C55.5417 49.3367 55.2954 54.9205 53.5866 59.953C53.373 60.5828 53.71 61.2665 54.3395 61.48C54.969 61.694 55.6528 61.3568 55.8665 60.7271C57.0848 57.1382 57.6175 53.3067 57.3901 49.4057C66.0523 17.0857 65.5446 19.3277 65.5446 18.1691ZM37.3485 43.055C38.1551 44.8816 37.9566 45.8996 37.9581 51.7915C37.9581 55.1262 34.0038 56.9629 31.4646 54.7388C28.2234 51.9023 26.3647 47.8061 26.3647 43.5001C26.3647 42.0984 26.4167 41.1708 26.036 39.7281H34.5998C35.7902 40.8137 36.6497 41.4739 37.3485 43.055ZM49.4188 2.40804C51.8305 2.40804 53.813 4.35575 53.813 6.80217V38.3867C51.1577 33.7889 50.9896 33.4966 50.9985 33.5127C50.9846 33.4874 51.272 33.9858 45.0247 23.1634V6.80217C45.0247 4.37923 46.9959 2.40804 49.4188 2.40804ZM33.6767 26.1242L25.827 13.0342C24.1382 10.0943 26.29 6.44944 29.6314 6.44944C31.1072 6.44944 32.5469 7.17252 33.4544 8.66908C44.652 27.1869 41.2903 21.51 48.5507 34.0877L45.313 30.85C42.3303 27.8671 38.3811 26.1242 33.6767 26.1242ZM63.0068 19.1482C55.727 46.3095 56.4984 43.6789 56.3902 43.2806C56.148 42.3962 56.2207 45.6095 56.2207 16.0869C58.5398 12.5767 64.1172 14.9924 63.0068 19.1482Z" fill="#4F4F4F"/>
<path d="M53.3764 63.6876C52.7892 63.3752 52.0605 63.5984 51.7483 64.1854C51.6648 64.3424 51.5786 64.4995 51.4909 64.6536C51.0331 65.4587 51.621 66.4526 52.5363 66.4526C53.3397 66.4526 53.6047 65.8227 53.8742 65.3157C54.1864 64.7287 53.9635 63.9999 53.3764 63.6876Z" fill="#4F4F4F"/>
<defs>
<clipPath id="clip0">
<rect width="77.0482" height="77.0482" fill="white" transform="translate(0.630859)"/>
</clipPath>
</defs>
</svg>
