<svg width="78" height="78" viewBox="0 0 78 78" fill="none" xmlns="http://www.w3.org/2000/svg">
<path d="M61.9369 1.12864H19.8001C19.5507 1.12864 19.3486 1.33074 19.3486 1.58009V6.29343L19.5372 6.44391H56.7719C56.9379 6.44391 57.0729 6.5789 57.0729 6.74488V36.3904L57.2234 36.5105L62.3882 39.7095V1.58009C62.3883 1.33074 62.1861 1.12864 61.9369 1.12864Z" fill="#BCBCBC"/>
<path d="M24.4421 6.44391V1.58009C24.4421 1.33074 24.6442 1.12864 24.8935 1.12864H19.8001C19.5507 1.12864 19.3486 1.33074 19.3486 1.58009V6.44391H24.4421Z" fill="#F6F6F6"/>
<path d="M52.0585 11.9097V33.978L52.1432 33.9255C52.4209 33.7534 52.7721 33.7534 53.0497 33.9255L57.2233 36.5105V6.7449C57.2233 6.49554 57.0212 6.29344 56.7718 6.29344H14.635C14.3857 6.29344 14.1836 6.49554 14.1836 6.7449V11.4582H51.6071C51.8564 11.4582 52.0585 11.6603 52.0585 11.9097Z" fill="#E2E2E1"/>
<path d="M19.1749 11.4582V6.7449C19.1749 6.49554 19.377 6.29344 19.6263 6.29344H14.635C14.3857 6.29344 14.1836 6.49554 14.1836 6.7449V11.4582H19.1749Z" fill="#D3D3D3"/>
<path d="M40.8532 66.1797C38.0498 63.7908 36.4349 60.2926 36.4349 56.6094V44.134C36.4349 43.8359 36.589 43.5592 36.8424 43.4022L52.0583 33.9778V11.9097C52.0583 11.6603 51.8562 11.4582 51.6068 11.4582H9.47001C9.22066 11.4582 9.01855 11.6603 9.01855 11.9097V69.5405C9.01855 69.7899 9.22066 69.992 9.47001 69.992H45.3266L40.8532 66.1797Z" fill="#F6F6F6"/>
<path d="M14.0581 69.5405V11.9097C14.0581 11.6603 14.2602 11.4582 14.5096 11.4582H9.47001C9.22066 11.4582 9.01855 11.6603 9.01855 11.9097V69.5405C9.01855 69.7899 9.22066 69.992 9.47001 69.992H14.5096C14.2602 69.992 14.0581 69.7899 14.0581 69.5405Z" fill="#D3D3D3"/>
<path d="M36.4355 44.134V56.6094C36.4355 60.2926 38.0506 63.7906 40.8538 66.1797L52.0386 75.7113C52.3603 75.9855 52.8334 75.9855 53.1552 75.7113L64.3399 66.1797C67.1433 63.7906 68.7583 60.2926 68.7583 56.6094V44.134C68.7583 43.8361 68.6042 43.5592 68.3508 43.4022L53.0503 33.9254C52.7726 33.7534 52.4214 33.7534 52.1437 33.9254L36.8432 43.4022C36.5896 43.5592 36.4355 43.8359 36.4355 44.134Z" fill="#F6F6F6"/>
<path d="M45.4214 64.1405C42.6181 61.7516 41.0032 58.2534 41.0032 54.5702V40.8255L36.8431 43.4022C36.5896 43.5592 36.4355 43.8359 36.4355 44.134V56.6094C36.4355 60.2926 38.0506 63.7907 40.8538 66.1798L52.0386 75.7113C52.3603 75.9855 52.8334 75.9855 53.1552 75.7113L56.0771 73.2212L45.4214 64.1405Z" fill="#D3D3D3"/>
<path d="M52.5964 61.9892C57.6827 61.9892 61.8061 57.8659 61.8061 52.7795C61.8061 47.6931 57.6827 43.5698 52.5964 43.5698C47.51 43.5698 43.3867 47.6931 43.3867 52.7795C43.3867 57.8659 47.51 61.9892 52.5964 61.9892Z" fill="#FF329A"/>
<path d="M48.4593 52.7795C48.4593 48.5733 51.2802 45.0282 55.1327 43.9265C54.3267 43.696 53.4764 43.57 52.5964 43.57C47.51 43.57 43.3867 47.6933 43.3867 52.7797C43.3867 57.8661 47.51 61.9893 52.5964 61.9893C53.4764 61.9893 54.3267 61.8632 55.1327 61.6328C51.2802 60.5308 48.4593 56.9857 48.4593 52.7795Z" fill="#FE0182"/>
<path d="M37.9861 19.9392C38.6094 19.9392 39.1148 19.4339 39.1148 18.8106C39.1148 18.1873 38.6094 17.682 37.9861 17.682H23.0925C22.4692 17.682 21.9639 18.1873 21.9639 18.8106C21.9639 19.4339 22.4692 19.9392 23.0925 19.9392H37.9861Z" fill="#4F4F4F"/>
<path d="M16.8467 26.4853C16.8467 27.1086 17.352 27.614 17.9753 27.614H43.1019C43.7254 27.614 44.2305 27.1086 44.2305 26.4853C44.2305 25.862 43.7254 25.3567 43.1019 25.3567H17.9753C17.352 25.3567 16.8467 25.862 16.8467 26.4853Z" fill="#4F4F4F"/>
<path d="M17.9753 32.8809H43.1019C43.7254 32.8809 44.2305 32.3756 44.2305 31.7523C44.2305 31.129 43.7254 30.6237 43.1019 30.6237H17.9753C17.352 30.6237 16.8467 31.129 16.8467 31.7523C16.8467 32.3756 17.352 32.8809 17.9753 32.8809Z" fill="#4F4F4F"/>
<path d="M17.9753 43.4149H26.5486C27.1719 43.4149 27.6772 42.9095 27.6772 42.2862C27.6772 41.6629 27.1719 41.1576 26.5486 41.1576H17.9753C17.352 41.1576 16.8467 41.6629 16.8467 42.2862C16.8467 42.9095 17.352 43.4149 17.9753 43.4149Z" fill="#4F4F4F"/>
<path d="M68.7581 50.3344C69.3816 50.3344 69.8867 49.8291 69.8867 49.2058V44.1339C69.8867 43.4403 69.5346 42.808 68.9449 42.4426L63.5169 39.0806V1.58009C63.5169 0.708783 62.8081 0 61.9368 0H19.8001C18.9288 0 18.22 0.708783 18.22 1.58009V5.16479H14.6354C13.764 5.16479 13.0553 5.87357 13.0553 6.74488V10.3296H9.47072C8.59941 10.3296 7.89062 11.0384 7.89062 11.9097V69.5405C7.89062 70.4118 8.59941 71.1206 9.47072 71.1206H17.8208C18.4441 71.1206 18.9494 70.6153 18.9494 69.992C18.9494 69.3687 18.4441 68.8633 17.8208 68.8633H10.1479V12.5868H50.9302V33.3494L44.0696 37.5986C44.1713 37.4292 44.2309 37.2314 44.2309 37.0193C44.2309 36.3959 43.7257 35.8906 43.1023 35.8906H17.9757C17.3524 35.8906 16.847 36.3959 16.847 37.0193C16.847 37.6426 17.3524 38.1479 17.9757 38.1479H43.1023C43.1319 38.1479 43.1608 38.1456 43.1898 38.1435L38.3235 41.1576H30.1606C29.5373 41.1576 29.0319 41.6629 29.0319 42.2862C29.0319 42.9095 29.5373 43.4149 30.1606 43.4149H35.4412C35.3542 43.6401 35.3068 43.8827 35.3068 44.134V46.4246H17.9757C17.3524 46.4246 16.847 46.9299 16.847 47.5532C16.847 48.1765 17.3524 48.6818 17.9757 48.6818H35.3067V51.6915H17.9757C17.3524 51.6915 16.847 52.1968 16.847 52.8202C16.847 53.4435 17.3524 53.9488 17.9757 53.9488H35.3067V56.6094C35.3067 56.726 35.3085 56.8423 35.3115 56.9585H17.9757C17.3524 56.9585 16.847 57.4638 16.847 58.0871C16.847 58.7104 17.3524 59.2158 17.9757 59.2158H35.556C36.1405 62.2416 37.7337 65.0037 40.1218 67.0387L42.2629 68.8633H23.0878C22.4645 68.8633 21.9591 69.3687 21.9591 69.992C21.9591 70.6153 22.4645 71.1206 23.0878 71.1206H44.9117L51.3065 76.5703C51.6802 76.8888 52.1386 77.048 52.5968 77.048C53.055 77.048 53.5134 76.8887 53.887 76.5703L65.0718 67.0386C68.1318 64.431 69.8867 60.6296 69.8867 56.6092V54.4728C69.8867 53.8495 69.3816 53.3441 68.7581 53.3441C68.1346 53.3441 67.6295 53.8495 67.6295 54.4728V56.6092C67.6295 59.9673 66.1636 63.1425 63.6078 65.3205L52.5966 74.7041L41.5857 65.3205C39.0298 63.1425 37.564 59.9673 37.564 56.6092V44.283L52.5966 34.9721L67.6295 44.283V49.2057C67.6295 49.8293 68.1348 50.3344 68.7581 50.3344ZM53.1874 32.7575V11.9097C53.1874 11.0384 52.4787 10.3296 51.6074 10.3296H15.3125V7.42206H56.095V15.3494C56.095 15.9728 56.6001 16.4781 57.2236 16.4781C57.8471 16.4781 58.3522 15.9728 58.3522 15.3494V6.74488C58.3522 5.87357 57.6434 5.16479 56.7721 5.16479H20.4773V2.25727H61.2596V37.6826L58.3522 35.8817V20.6164C58.3522 19.9931 57.8471 19.4878 57.2236 19.4878C56.6001 19.4878 56.095 19.9931 56.095 20.6164V34.4837L53.6442 32.9658C53.4986 32.8757 53.3452 32.807 53.1874 32.7575Z" fill="#4F4F4F"/>
<path d="M42.2588 52.7795C42.2588 58.48 46.8964 63.1178 52.5969 63.1178C58.2976 63.1178 62.9352 58.4802 62.9352 52.7795C62.9352 47.0788 58.2976 42.4412 52.5969 42.4412C46.8964 42.4412 42.2588 47.079 42.2588 52.7795ZM60.678 52.7795C60.678 57.2354 57.0528 60.8605 52.5969 60.8605C48.1412 60.8605 44.5161 57.2355 44.5161 52.7795C44.5161 48.3235 48.1412 44.6985 52.5969 44.6985C57.0528 44.6985 60.678 48.3236 60.678 52.7795Z" fill="#4F4F4F"/>
<path d="M50.2792 51.6658C49.8385 51.225 49.1239 51.225 48.6831 51.6658C48.2423 52.1066 48.2423 52.8212 48.6831 53.2618L51.4066 55.9852C51.6271 56.2055 51.916 56.3158 52.2048 56.3158C52.4935 56.3158 52.7825 56.2056 53.0029 55.9852L57.2242 51.7639C57.665 51.3231 57.665 50.6085 57.2242 50.1679C56.7833 49.7271 56.0688 49.7271 55.628 50.1679L52.2049 53.5911L50.2792 51.6658Z" fill="#4F4F4F"/>
<defs>
<clipPath id="clip0">
<rect width="77.0482" height="77.0482" fill="white" transform="translate(0.365234)"/>
</clipPath>
</defs>
</svg>
