<svg width="32" height="32" viewBox="0 0 32 32" fill="none" xmlns="http://www.w3.org/2000/svg">
<path d="M13.5 31C15.2595 31 16.7162 29.6933 16.9601 28H22.293L21.6465 28.6465L22.3535 29.3535L23.8535 27.8535C23.9512 27.7559 24 27.6279 24 27.5C24 27.3721 23.9512 27.2441 23.8535 27.1465L22.3535 25.6465L21.6465 26.3535L22.293 27H16.9601C16.7162 25.3067 15.2595 24 13.5 24C11.5703 24 10 25.5701 10 27.5C10 29.4299 11.5703 31 13.5 31ZM13.5 25C14.8784 25 16 26.1216 16 27.5C16 28.8784 14.8784 30 13.5 30C12.1216 30 11 28.8784 11 27.5C11 26.1216 12.1216 25 13.5 25Z" fill="#FE0182"/>
<path d="M27.5 31C29.4297 31 31 29.4299 31 27.5C31 25.5701 29.4297 24 27.5 24C25.5703 24 24 25.5701 24 27.5C24 29.4299 25.5703 31 27.5 31ZM27.5 25C28.8784 25 30 26.1216 30 27.5C30 28.8784 28.8784 30 27.5 30C26.1216 30 25 28.8784 25 27.5C25 26.1216 26.1216 25 27.5 25Z" fill="#FE0182"/>
<path d="M11.5 12.5C9.74048 12.5 8.28388 13.8067 8.03995 15.5H7.25C3.80371 15.5 1 18.3037 1 21.75C1 25.1963 3.80371 28 7.25 28H8.29297L7.64648 28.6465L8.35351 29.3535L9.85351 27.8535C9.95117 27.7559 10 27.6279 10 27.5C10 27.3721 9.95117 27.2441 9.85351 27.1465L8.35351 25.6465L7.64648 26.3535L8.29297 27H7.25C4.35498 27 2 24.6448 2 21.75C2 18.8552 4.35498 16.5 7.25 16.5H8.03995C8.28388 18.1933 9.74048 19.5 11.5 19.5C13.4297 19.5 15 17.9299 15 16C15 14.0701 13.4297 12.5 11.5 12.5ZM11.5 18.5C10.1216 18.5 9 17.3784 9 16C9 14.6216 10.1216 13.5 11.5 13.5C12.8784 13.5 14 14.6216 14 16C14 17.3784 12.8784 18.5 11.5 18.5Z" fill="#FE0182"/>
<path d="M13.3535 2.64649L12.6465 3.35351L13.293 4H7.96008C7.71616 2.3067 6.25952 1 4.5 1C2.57031 1 1 2.57007 1 4.5C1 6.42993 2.57031 8 4.5 8C6.25952 8 7.71616 6.6933 7.96008 5H13.293L12.6465 5.64648L13.3535 6.35352L14.8535 4.85352C14.9512 4.75586 15 4.62793 15 4.5C15 4.37207 14.9512 4.24414 14.8535 4.14648L13.3535 2.64649ZM4.5 7C3.12158 7 2 5.87842 2 4.5C2 3.12158 3.12158 2 4.5 2C5.87842 2 7 3.12158 7 4.5C7 5.87842 5.87842 7 4.5 7Z" fill="#FE0182"/>
<path d="M31 10.25C31 6.80371 28.1963 4 24.75 4H21.9601C21.7162 2.3067 20.2595 1 18.5 1C16.5703 1 15 2.57007 15 4.5C15 6.42993 16.5703 8 18.5 8C20.2595 8 21.7162 6.6933 21.9601 5H24.75C27.645 5 30 7.35523 30 10.25C30 13.1448 27.645 15.5 24.75 15.5H16.707L17.3535 14.8535L16.6465 14.1465L15.1465 15.6465C15.0488 15.7441 15 15.8721 15 16C15 16.1279 15.0488 16.2559 15.1465 16.3535L16.6465 17.8535L17.3535 17.1465L16.707 16.5H24.75C28.1963 16.5 31 13.6963 31 10.25ZM18.5 7C17.1216 7 16 5.87842 16 4.5C16 3.12158 17.1216 2 18.5 2C19.8784 2 21 3.12158 21 4.5C21 5.87842 19.8784 7 18.5 7Z" fill="#FE0182"/>
<circle cx="27.5" cy="27.5" r="2.5" fill="#FE0182"/>
</svg>
