<svg width="32" height="32" viewBox="0 0 32 32" fill="none" xmlns="http://www.w3.org/2000/svg">
<path d="M13.0235 20.9991C12.8956 20.9991 12.7675 20.95 12.67 20.8525L1.17004 9.3526C0.97457 9.15713 0.97457 8.84109 1.17004 8.64563C1.36551 8.45016 1.68154 8.45016 1.87701 8.64563L13.3771 20.1457C13.5725 20.3411 13.5725 20.6572 13.3771 20.8526C13.2796 20.9501 13.1516 20.9991 13.0235 20.9991Z" fill="#FE0182" stroke="#FE0182" stroke-width="0.2"/>
<path d="M13.0236 20.9991C12.8956 20.9991 12.7675 20.9501 12.67 20.8526C12.4746 20.6571 12.4746 20.3411 12.67 20.1456L24.0766 8.73913C24.2721 8.54366 24.5881 8.54366 24.7836 8.73913C24.9791 8.9346 24.9791 9.25063 24.7836 9.4461L13.3771 20.8527C13.2796 20.9502 13.1516 20.9991 13.0236 20.9991Z" fill="#FE0182" stroke="#FE0182" stroke-width="0.2"/>
<path d="M19.0705 20.9991C18.9425 20.9991 18.8145 20.95 18.717 20.8525L7.21691 9.3526C7.02145 9.15713 7.02145 8.84109 7.21691 8.64563C7.41238 8.45016 7.72842 8.45016 7.92388 8.64563L19.4239 20.1457C19.6194 20.3411 19.6194 20.6572 19.4239 20.8526C19.326 20.9501 19.198 20.9991 19.0705 20.9991Z" fill="#FE0182" stroke="#FE0182" stroke-width="0.2"/>
<path d="M19.0704 20.9991C18.9425 20.9991 18.8144 20.9501 18.7169 20.8526C18.5214 20.6571 18.5214 20.3411 18.7169 20.1456L30.1234 8.73913C30.3189 8.54366 30.6349 8.54366 30.8304 8.73913C31.0258 8.9346 31.0258 9.25063 30.8304 9.4461L19.4239 20.8527C19.3259 20.9502 19.1979 20.9991 19.0704 20.9991Z" fill="#FE0182" stroke="#FE0182" stroke-width="0.2"/>
<path d="M16.0264 11.5C14.6479 11.5 13.5264 10.3785 13.5264 8.99995C13.5264 7.74398 15.3223 5.97745 15.6823 5.63592C15.8758 5.45339 16.1773 5.45339 16.3708 5.63592C16.7308 5.97745 18.5268 7.74389 18.5268 8.99995C18.5264 10.3785 17.4049 11.5 16.0264 11.5ZM16.0264 6.70542C15.3184 7.44642 14.5264 8.47542 14.5264 8.99995C14.5264 9.82692 15.1994 10.5 16.0264 10.5C16.8534 10.5 17.5264 9.82692 17.5264 8.99995C17.5264 8.47392 16.735 7.44595 16.0264 6.70542Z" fill="#FE0182" stroke="#FE0182" stroke-width="0.2"/>
<path d="M24.5244 6.49697C23.6974 6.49697 23.0244 5.82394 23.0244 4.99697C23.0244 4.2855 23.9094 3.3915 24.1804 3.13397C24.3739 2.95144 24.6754 2.95144 24.8689 3.13397C25.14 3.3915 26.025 4.2855 26.025 4.99697C26.0244 5.82403 25.3515 6.49697 24.5244 6.49697ZM24.525 4.22147C24.246 4.5435 24.031 4.8675 24.0244 4.998C24.0244 5.27297 24.2484 5.49703 24.5244 5.49703C24.8004 5.49703 25.0244 5.27307 25.0244 4.99706C25.0179 4.86647 24.8029 4.54303 24.525 4.22147Z" fill="#FE0182" stroke="#FE0182" stroke-width="0.2"/>
<path d="M7.52442 6.49697C6.69745 6.49697 6.02441 5.82394 6.02441 4.99697C6.02441 4.2855 6.90942 3.3915 7.18045 3.13397C7.37395 2.95144 7.67545 2.95144 7.86895 3.13397C8.13998 3.3915 9.02498 4.2855 9.02498 4.99697C9.02442 5.82403 8.35139 6.49697 7.52442 6.49697ZM7.52489 4.22147C7.24588 4.5435 7.03092 4.8675 7.02435 4.998C7.02435 5.27297 7.24832 5.49703 7.52432 5.49703C7.80032 5.49703 8.02429 5.27307 8.02429 4.99706C8.01792 4.86647 7.80295 4.54303 7.52489 4.22147Z" fill="#FE0182" stroke="#FE0182" stroke-width="0.2"/>
<path d="M11.0328 8.50091C10.7563 8.50091 10.5303 8.27741 10.5303 8.00094C10.5303 7.72448 10.7512 7.50098 11.0272 7.50098H11.0328C11.3088 7.50098 11.5327 7.72448 11.5327 8.00094C11.5327 8.27741 11.3088 8.50091 11.0328 8.50091Z" fill="#FE0182"/>
<path d="M13.5386 3.99701C13.2622 3.99701 13.0361 3.77351 13.0361 3.49704C13.0361 3.22057 13.2571 2.99707 13.5331 2.99707H13.5386C13.8146 2.99707 14.0386 3.22057 14.0386 3.49704C14.0386 3.77351 13.8146 3.99701 13.5386 3.99701Z" fill="#FE0182"/>
<path d="M21.0406 9.50213C20.7641 9.50213 20.5381 9.27863 20.5381 9.00216C20.5381 8.7257 20.7591 8.5022 21.0351 8.5022H21.0406C21.3166 8.5022 21.5406 8.7257 21.5406 9.00216C21.5406 9.27863 21.3166 9.50213 21.0406 9.50213Z" fill="#FE0182"/>
<path d="M16.0396 13.999C15.7631 13.999 15.5371 13.7755 15.5371 13.499C15.5371 13.2225 15.7581 12.999 16.0341 12.999H16.0396C16.3156 12.999 16.5396 13.2225 16.5396 13.499C16.5396 13.7755 16.3156 13.999 16.0396 13.999Z" fill="#FE0182"/>
<path d="M20.0386 4.49896C19.7622 4.49896 19.5361 4.27546 19.5361 3.99899C19.5361 3.72252 19.7571 3.49902 20.0331 3.49902H20.0386C20.3146 3.49902 20.5386 3.72252 20.5386 3.99899C20.5387 4.27546 20.3146 4.49896 20.0386 4.49896Z" fill="#FE0182"/>
<path d="M31.5 27.503H0.499969C0.2235 27.503 0 27.2795 0 27.003V20.499C0 20.2225 0.2235 19.999 0.499969 19.999H31.5C31.7765 19.999 32 20.2225 32 20.499V27.003C32 27.2795 31.7765 27.503 31.5 27.503ZM1.00003 26.503H31.0001V20.9991H1.00003V26.503Z" fill="#FE0182" stroke="#FE0182" stroke-width="0.2"/>
<path d="M31.5 29.0029H0.499969C0.2235 29.0029 0 28.7794 0 28.5029V27.0029C0 26.7264 0.2235 26.5029 0.499969 26.5029H31.5C31.7765 26.5029 32 26.7264 32 27.0029V28.5029C32 28.7794 31.7765 29.0029 31.5 29.0029ZM1.00003 28.0029H31.0001V27.503H1.00003V28.0029Z" fill="#FE0182" stroke="#FE0182" stroke-width="0.2"/>
<path d="M10.001 22.9999H0.499969C0.2235 22.9999 0 22.7764 0 22.5C0 22.2235 0.2235 22 0.499969 22H10.001C10.2774 22 10.5009 22.2235 10.5009 22.5C10.5009 22.7764 10.2775 22.9999 10.001 22.9999Z" fill="#FE0182" stroke="#FE0182" stroke-width="0.2"/>
<path d="M19 27.5031C18.7235 27.5031 18.5 27.2796 18.5 27.0031C18.5 25.9002 19.397 25.0032 20.5 25.0032C20.7764 25.0032 20.9999 25.2267 20.9999 25.5031C20.9999 25.7796 20.7764 26.0031 20.5 26.0031C19.9484 26.0031 19.4999 26.4516 19.4999 27.0031C19.4999 27.2796 19.2764 27.5031 19 27.5031Z" fill="#FE0182" stroke="#FE0182" stroke-width="0.2"/>
<path d="M31.5 26.0031H20.5C20.2235 26.0031 20 25.7796 20 25.5031C20 25.2267 20.2235 25.0032 20.5 25.0032H31.5C31.7764 25.0032 31.9999 25.2267 31.9999 25.5031C31.9999 25.7796 31.7764 26.0031 31.5 26.0031Z" fill="#FE0182" stroke="#FE0182" stroke-width="0.2"/>
<defs>
<clipPath id="clip0">
<rect width="32" height="32" fill="white"/>
</clipPath>
</defs>
</svg>
