<svg width="32" height="32" viewBox="0 0 32 32" fill="none" xmlns="http://www.w3.org/2000/svg">
<path d="M17.7392 12.9921C18.7549 13.451 19.4059 14.4588 19.4118 15.5706C19.4118 15.5706 19.4118 15.6157 19.4118 15.6353C19.4118 15.651 19.4118 15.7235 19.4118 15.7725C19.3863 16.1196 19.6471 16.4216 19.9941 16.449C19.9981 16.449 19.9981 16.449 19.9981 16.449L27.9824 17.0216H28.0275C28.3569 17.0216 28.6353 16.7667 28.6569 16.4353V16.3333C28.6569 16.0804 28.6961 15.8314 28.6961 15.5706C28.6902 10.8078 25.9098 6.48431 21.5765 4.5098C21.2569 4.36666 20.8843 4.50784 20.7432 4.82352L17.4255 12.151C17.2784 12.4706 17.4196 12.8431 17.7353 12.9902C17.7373 12.9902 17.7373 12.9902 17.7392 12.9921ZM21.6196 5.93333C25.2 7.81568 27.451 11.5235 27.4588 15.5706C27.4588 15.6216 27.4588 15.6686 27.4588 15.7157L20.6608 15.2294C20.551 13.9725 19.8706 12.8353 18.8137 12.1471L21.6196 5.93333Z" fill="#FE0182"/>
<path d="M18.5981 19.0903C18.3864 18.8138 17.9922 18.7589 17.7158 18.9707C16.704 19.7432 15.302 19.7432 14.2922 18.9707C14.0138 18.7589 13.6177 18.8138 13.406 19.0903L8.52754 25.4922C8.31577 25.7687 8.37068 26.1648 8.64715 26.3746C12.9844 29.6961 19.0099 29.6961 23.3471 26.3746C23.6256 26.1648 23.6785 25.7687 23.4687 25.4922L18.5981 19.0903ZM16.0001 27.6059C13.8315 27.6001 11.7138 26.9412 9.92558 25.7138L14.0569 20.2883C15.2687 20.9491 16.7354 20.9491 17.9491 20.2883L22.0785 25.7138C20.2883 26.9412 18.1707 27.6001 16.0001 27.6059Z" fill="#FE0182"/>
<path d="M12.4548 16.2274C12.5666 16.1 12.6195 15.9333 12.6077 15.7667C12.6077 15.7235 12.6077 15.6784 12.6077 15.6274C12.6077 15.5784 12.6077 15.5823 12.6077 15.5627C12.6097 14.4529 13.2646 13.4431 14.2783 12.9843C14.596 12.8431 14.7352 12.4706 14.592 12.151L11.2646 4.82352C11.1195 4.50784 10.7469 4.36666 10.4313 4.5098C6.08616 6.4745 3.28812 10.802 3.27832 15.5706C3.27832 15.8314 3.27832 16.0804 3.31558 16.3333V16.4353C3.34107 16.7667 3.61558 17.0216 3.94891 17.0216H4.01754L12.0469 16.449C12.2058 16.4294 12.3528 16.351 12.4548 16.2274ZM4.54107 15.7157C4.54107 15.6667 4.54107 15.6176 4.54107 15.5706C4.54891 11.5235 6.79793 7.81568 10.3803 5.93333L13.1862 12.1471C12.1293 12.8353 11.4489 13.9725 11.3371 15.2294L4.54107 15.7157Z" fill="#FE0182"/>
<path d="M13.3701 15.9922C13.3701 17.4451 14.5466 18.6216 15.9995 18.6216C17.4525 18.6216 18.6289 17.4451 18.6289 15.9922C18.6289 14.5412 17.4525 13.3628 15.9995 13.3628C14.5485 13.3667 13.3721 14.5412 13.3701 15.9922ZM15.9995 14.6255C16.7544 14.6255 17.3662 15.2373 17.3662 15.9922C17.3662 16.7491 16.7544 17.3628 15.9995 17.3628C15.2446 17.3628 14.6309 16.7491 14.6309 15.9922C14.6309 15.2373 15.2446 14.6255 15.9995 14.6255Z" fill="#FE0182"/>
<path d="M16 32C24.8353 32 32 24.8353 32 16C32 7.16471 24.8353 0 16 0C7.16667 0 0.00392157 7.15882 0 15.9922C0.00784314 24.8275 7.16471 31.9902 16 32ZM16 1.2549C24.1392 1.2549 30.7373 7.85294 30.7373 15.9922C30.7373 24.1353 24.1392 30.7333 16 30.7333C7.86079 30.7333 1.26275 24.1353 1.26275 15.9922C1.27255 7.85686 7.86471 1.26471 16 1.2549Z" fill="#FE0182"/>
</svg>
