<svg width="34" height="34" viewBox="0 0 34 34" fill="none" xmlns="http://www.w3.org/2000/svg">
<path d="M1.04 22.8039C1.0575 23.0239 1.217 23.2064 1.433 23.2529L3.1755 23.6289C3.237 23.9259 3.315 24.2189 3.4095 24.5049L2.0905 25.6999C1.927 25.8479 1.88 26.0859 1.975 26.2854C2.216 26.7924 2.4845 27.2609 2.773 27.6779C2.898 27.8589 3.127 27.9369 3.3375 27.8694L5.031 27.3239C5.2335 27.5509 5.449 27.7664 5.676 27.9689L5.1305 29.6624C5.063 29.8719 5.1405 30.1014 5.322 30.2269C5.739 30.5154 6.2075 30.7839 6.7145 31.0249C6.9145 31.1199 7.152 31.0724 7.3 30.9094L8.495 29.5904C8.7815 29.6844 9.0745 29.7629 9.3715 29.8244L9.7475 31.5669C9.794 31.7824 9.9765 31.9419 10.196 31.9599C10.462 31.9809 10.7285 31.9999 11 31.9999C11.2715 31.9999 11.538 31.9809 11.804 31.9599C12.024 31.9424 12.2065 31.7829 12.253 31.5669L12.629 29.8244C12.926 29.7629 13.2195 29.6849 13.5055 29.5904L14.7005 30.9094C14.849 31.0729 15.087 31.1204 15.286 31.0249C15.793 30.7839 16.2615 30.5149 16.6785 30.2269C16.86 30.1014 16.9375 29.8719 16.87 29.6624L16.3245 27.9689C16.5515 27.7664 16.767 27.5509 16.9695 27.3244L18.663 27.8699C18.8725 27.9379 19.102 27.8599 19.2275 27.6784C19.516 27.2614 19.7845 26.7929 20.0255 26.2859C20.1205 26.0864 20.0735 25.8484 19.91 25.7004L18.591 24.5054C18.685 24.2189 18.7635 23.9259 18.825 23.6289L20.5675 23.2529C20.783 23.2064 20.9425 23.0239 20.9605 22.8044C20.981 22.5379 21 22.2714 21 21.9999C21 21.7284 20.981 21.4619 20.96 21.1959C20.9425 20.9759 20.783 20.7934 20.567 20.7469L18.8245 20.3709C18.763 20.0739 18.685 19.7804 18.5905 19.4944L19.9095 18.2994C20.073 18.1514 20.12 17.9134 20.025 17.7139C19.784 17.2069 19.515 16.7384 19.227 16.3214C19.1015 16.1399 18.872 16.0619 18.6625 16.1299L16.969 16.6754C16.7665 16.4484 16.551 16.2329 16.324 16.0304L16.8695 14.3369C16.937 14.1274 16.8595 13.8979 16.678 13.7724C16.261 13.4839 15.7925 13.2154 15.2855 12.9744C15.0855 12.8789 14.848 12.9264 14.7 13.0899L13.505 14.4089C13.2185 14.3149 12.9255 14.2364 12.6285 14.1749L12.2525 12.4324C12.206 12.2169 12.0235 12.0574 11.804 12.0394C11.2715 11.9964 10.728 11.9974 10.1955 12.0394C9.9755 12.0569 9.793 12.2164 9.7465 12.4324L9.3705 14.1749C9.0735 14.2364 8.7805 14.3144 8.4945 14.4089L7.2995 13.0899C7.1515 12.9264 6.914 12.8794 6.714 12.9744C6.207 13.2154 5.7385 13.4839 5.3215 13.7724C5.14 13.8979 5.0625 14.1274 5.13 14.3369L5.6755 16.0304C5.4485 16.2329 5.233 16.4484 5.0305 16.6754L3.3375 16.1299C3.1275 16.0619 2.898 16.1399 2.773 16.3214C2.4845 16.7384 2.216 17.2069 1.975 17.7139C1.88 17.9134 1.927 18.1514 2.0905 18.2994L3.4095 19.4944C3.3155 19.7809 3.237 20.0739 3.1755 20.3709L1.433 20.7469C1.2175 20.7934 1.058 20.9759 1.04 21.1954C1.019 21.4619 1 21.7284 1 21.9999C1 22.2714 1.019 22.5379 1.04 22.8039ZM2.0105 21.6454L3.7115 21.2779C3.9125 21.2344 4.0665 21.0724 4.0995 20.8694C4.1745 20.4084 4.2955 19.9559 4.459 19.5239C4.532 19.3319 4.4795 19.1144 4.327 18.9764L3.0425 17.8124C3.1545 17.5979 3.2715 17.3924 3.3925 17.1979L5.0405 17.7289C5.2355 17.7914 5.4505 17.7289 5.581 17.5699C5.876 17.2089 6.209 16.8764 6.57 16.5809C6.729 16.4509 6.7925 16.2364 6.729 16.0404L6.198 14.3924C6.3925 14.2709 6.5975 14.1539 6.8125 14.0424L7.9765 15.3274C8.115 15.4799 8.333 15.5324 8.5245 15.4594C8.9555 15.2959 9.408 15.1749 9.8695 15.0999C10.0725 15.0669 10.2345 14.9129 10.278 14.7119L10.645 13.0109C10.8805 12.9984 11.12 12.9979 11.3545 13.0109L11.722 14.7119C11.7655 14.9129 11.9275 15.0669 12.1305 15.0999C12.5915 15.1749 13.044 15.2959 13.476 15.4594C13.667 15.5324 13.885 15.4804 14.0235 15.3274L15.1875 14.0429C15.402 14.1549 15.6075 14.2719 15.802 14.3929L15.271 16.0409C15.208 16.2369 15.271 16.4509 15.43 16.5814C15.791 16.8764 16.1235 17.2094 16.419 17.5704C16.5495 17.7299 16.764 17.7934 16.9595 17.7294L18.6075 17.1984C18.729 17.3929 18.846 17.5979 18.9575 17.8124L17.6725 18.9764C17.52 19.1144 17.4675 19.3319 17.5405 19.5244C17.704 19.9554 17.825 20.4079 17.9 20.8694C17.933 21.0724 18.087 21.2344 18.288 21.2779L19.989 21.6449C19.9955 21.7624 20 21.8809 20 21.9999C20 22.1189 19.996 22.2374 19.9895 22.3544L18.2885 22.7219C18.0875 22.7654 17.9335 22.9274 17.9005 23.1304C17.8255 23.5914 17.7045 24.0439 17.541 24.4759C17.468 24.6679 17.5205 24.8854 17.673 25.0234L18.9575 26.1874C18.8455 26.4019 18.7285 26.6074 18.6075 26.8019L16.9595 26.2709C16.763 26.2069 16.5495 26.2704 16.419 26.4299C16.1245 26.7899 15.7915 27.1229 15.43 27.4189C15.271 27.5489 15.208 27.7634 15.271 27.9589L15.802 29.6069C15.6075 29.7284 15.4025 29.8454 15.188 29.9569L14.024 28.6719C13.886 28.5194 13.6685 28.4679 13.476 28.5399C13.045 28.7034 12.5925 28.8244 12.131 28.8994C11.928 28.9324 11.766 29.0864 11.7225 29.2874L11.3555 30.9884C11.12 31.0009 10.8805 31.0014 10.646 30.9884L10.2785 29.2874C10.235 29.0864 10.073 28.9324 9.87 28.8994C9.409 28.8244 8.9565 28.7034 8.5245 28.5399C8.333 28.4669 8.115 28.5189 7.977 28.6719L6.813 29.9564C6.5985 29.8444 6.393 29.7274 6.1985 29.6064L6.7295 27.9584C6.7925 27.7624 6.7295 27.5484 6.5705 27.4179C6.2095 27.1229 5.877 26.7899 5.5815 26.4289C5.451 26.2694 5.236 26.2064 5.041 26.2699L3.393 26.8009C3.2715 26.6064 3.1545 26.4014 3.043 26.1864L4.328 25.0224C4.4805 24.8844 4.533 24.6669 4.46 24.4744C4.2965 24.0434 4.1755 23.5909 4.1005 23.1294C4.0675 22.9264 3.9135 22.7644 3.7125 22.7209L2.0105 22.3549C2.0045 22.2374 2 22.1189 2 21.9999C2 21.8809 2.004 21.7624 2.0105 21.6454Z" fill="#FE0182"/>
<path d="M27.1095 9.11749C27.2975 9.05849 27.4335 8.89399 27.456 8.69799C27.486 8.44549 27.5 8.21699 27.5 7.99999C27.5 7.78299 27.486 7.55449 27.4565 7.30199C27.434 7.10599 27.298 6.94149 27.11 6.88249L25.7235 6.44699C25.682 6.33349 25.636 6.22199 25.5855 6.11299L26.2575 4.82549C26.3485 4.65099 26.3285 4.43899 26.2065 4.28399C25.917 3.91799 25.584 3.58499 25.217 3.29449C25.062 3.17199 24.85 3.15249 24.6755 3.24299L23.387 3.91499C23.278 3.86499 23.1665 3.81899 23.053 3.77749L22.6175 2.39099C22.5585 2.20299 22.394 2.06699 22.198 2.04449C21.692 1.98549 21.3075 1.98549 20.8015 2.04449C20.6055 2.06699 20.441 2.20299 20.382 2.39099L19.9465 3.77749C19.833 3.81899 19.7215 3.86499 19.6125 3.91549L18.325 3.24349C18.1505 3.15299 17.939 3.17249 17.7835 3.29449C17.4175 3.58399 17.0845 3.91699 16.794 4.28399C16.6715 4.43899 16.6515 4.65049 16.7425 4.82549L17.414 6.11299C17.364 6.22199 17.318 6.33349 17.2765 6.44699L15.89 6.88249C15.702 6.94149 15.566 7.10599 15.5435 7.30199C15.514 7.55449 15.5 7.78299 15.5 7.99999C15.5 8.21699 15.514 8.44549 15.5435 8.69799C15.566 8.89399 15.702 9.05849 15.89 9.11749L17.2765 9.55299C17.318 9.66649 17.364 9.77799 17.4145 9.88699L16.7425 11.1745C16.6515 11.349 16.6715 11.561 16.7935 11.716C17.083 12.082 17.416 12.415 17.783 12.7055C17.9375 12.828 18.15 12.8475 18.3245 12.757L19.612 12.0855C19.721 12.1355 19.8325 12.1815 19.946 12.223L20.3815 13.6095C20.4405 13.7975 20.605 13.9335 20.801 13.956C21.0545 13.986 21.283 14 21.5 14C21.717 14 21.9455 13.986 22.198 13.9565C22.394 13.934 22.5585 13.798 22.6175 13.61L23.053 12.2235C23.1665 12.182 23.278 12.136 23.387 12.0855L24.6745 12.7575C24.849 12.8485 25.061 12.829 25.216 12.7065C25.582 12.417 25.915 12.084 26.2055 11.717C26.328 11.562 26.348 11.3505 26.257 11.1755L25.585 9.88799C25.6355 9.77899 25.6815 9.66749 25.723 9.55399L27.1095 9.11749ZM25.1795 8.67549C25.0215 8.72549 24.8985 8.84999 24.8505 9.00899C24.7825 9.23499 24.6925 9.45249 24.5835 9.65599C24.505 9.80199 24.5035 9.97749 24.5805 10.124L25.215 11.34C25.0965 11.4715 24.971 11.597 24.84 11.715L23.624 11.0805C23.477 11.0035 23.3015 11.0055 23.156 11.0835C22.9525 11.1925 22.735 11.2825 22.509 11.3505C22.3505 11.398 22.2255 11.5215 22.1755 11.6795L21.7635 12.9915C21.581 13.0025 21.4195 13.0025 21.2365 12.9915L20.8245 11.6795C20.7745 11.5215 20.65 11.3985 20.491 11.3505C20.2645 11.2825 20.047 11.1925 19.8445 11.0835C19.6985 11.005 19.523 11.0035 19.376 11.0805L18.16 11.715C18.0285 11.5965 17.903 11.471 17.785 11.34L18.4195 10.124C18.496 9.97749 18.495 9.80149 18.4165 9.65599C18.3075 9.45249 18.2175 9.23499 18.1495 9.00899C18.102 8.85049 17.9785 8.72549 17.8205 8.67549L16.5085 8.26349C16.5025 8.17199 16.5 8.08449 16.5 7.99999C16.5 7.91549 16.5025 7.82799 16.5085 7.73649L17.8205 7.32449C17.9785 7.27449 18.1015 7.14999 18.1495 6.99099C18.2175 6.76449 18.3075 6.54699 18.4165 6.34449C18.495 6.19849 18.4965 6.02299 18.4195 5.87599L17.785 4.65999C17.9035 4.52849 18.029 4.40299 18.16 4.28499L19.376 4.91949C19.5225 4.99599 19.6985 4.99449 19.844 4.91649C20.0475 4.80749 20.265 4.71749 20.491 4.64949C20.6495 4.60199 20.7745 4.47849 20.8245 4.32049L21.2365 3.00849C21.419 2.99749 21.5805 2.99749 21.7635 3.00849L22.1755 4.32049C22.2255 4.47849 22.35 4.60149 22.509 4.64949C22.7355 4.71749 22.953 4.80749 23.1555 4.91649C23.3015 4.99499 23.477 4.99649 23.624 4.91949L24.84 4.28499C24.9715 4.40349 25.097 4.52899 25.215 4.65999L24.5805 5.87599C24.504 6.02249 24.505 6.19849 24.5835 6.34399C24.6925 6.54749 24.7825 6.76499 24.8505 6.99099C24.898 7.14949 25.0215 7.27449 25.1795 7.32449L26.4915 7.73649C26.4975 7.82799 26.5 7.91549 26.5 7.99999C26.5 8.08449 26.4975 8.17199 26.4915 8.26349L25.1795 8.67549Z" fill="#FE0182"/>
<path d="M30.631 18.4821L29.772 18.1771C29.723 18.0376 29.667 17.9011 29.6035 17.7686L29.994 16.9461C30.0755 16.7751 30.053 16.5731 29.936 16.4241C29.686 16.1046 29.397 15.8151 29.0765 15.5641C28.927 15.4471 28.724 15.4251 28.554 15.5061L27.731 15.8966C27.599 15.8336 27.4625 15.7771 27.323 15.7286L27.0175 14.8696C26.954 14.6911 26.7945 14.5636 26.6065 14.5406C26.161 14.4871 25.8385 14.4871 25.393 14.5406C25.205 14.5631 25.0455 14.6906 24.982 14.8696L24.677 15.7286C24.5375 15.7776 24.401 15.8336 24.2685 15.8971L23.446 15.5066C23.276 15.4256 23.0735 15.4481 22.924 15.5646C22.6045 15.8146 22.315 16.1036 22.064 16.4241C21.9475 16.5731 21.925 16.7756 22.006 16.9466L22.3965 17.7696C22.3335 17.9016 22.277 18.0381 22.2285 18.1776L21.3695 18.4831C21.191 18.5466 21.0635 18.7061 21.0405 18.8941C21.013 19.1156 21 19.3141 21 19.5001C21 19.6861 21.013 19.8841 21.04 20.1066C21.0625 20.2946 21.19 20.4541 21.369 20.5176L22.228 20.8226C22.277 20.9621 22.333 21.0986 22.3965 21.2311L22.006 22.0536C21.9245 22.2246 21.947 22.4266 22.064 22.5756C22.314 22.8951 22.603 23.1846 22.9235 23.4356C23.0725 23.5521 23.2755 23.5746 23.446 23.4936L24.269 23.1031C24.401 23.1661 24.5375 23.2226 24.677 23.2711L24.9825 24.1301C25.046 24.3086 25.2055 24.4361 25.3935 24.4591C25.616 24.4871 25.814 24.5001 26 24.5001C26.186 24.5001 26.384 24.4871 26.6065 24.4601C26.7945 24.4376 26.954 24.3101 27.0175 24.1311L27.3225 23.2721C27.462 23.2231 27.5985 23.1671 27.731 23.1036L28.5535 23.4941C28.724 23.5756 28.927 23.5536 29.0755 23.4361C29.395 23.1861 29.6845 22.8971 29.9355 22.5766C30.052 22.4276 30.0745 22.2251 29.9935 22.0541L29.603 21.2311C29.666 21.0991 29.7225 20.9626 29.771 20.8231L30.63 20.5176C30.8085 20.4541 30.936 20.2946 30.959 20.1066C30.987 19.8841 31 19.6861 31 19.5001C31 19.3141 30.987 19.1161 30.96 18.8936C30.9375 18.7051 30.81 18.5461 30.631 18.4821ZM29.995 19.6826L29.2025 19.9641C29.049 20.0186 28.9315 20.1446 28.888 20.3016C28.8225 20.5391 28.729 20.7656 28.6105 20.9751C28.5305 21.1166 28.5245 21.2886 28.594 21.4356L28.953 22.1921C28.87 22.2831 28.783 22.3701 28.6925 22.4526L27.936 22.0936C27.79 22.0241 27.6175 22.0301 27.4755 22.1101C27.2655 22.2291 27.039 22.3221 26.8025 22.3876C26.6455 22.4311 26.5195 22.5486 26.4645 22.7021L26.183 23.4946C26.062 23.5011 25.939 23.5011 25.818 23.4946L25.5365 22.7021C25.482 22.5486 25.356 22.4311 25.199 22.3876C24.9615 22.3221 24.735 22.2286 24.5255 22.1101C24.384 22.0306 24.2125 22.0246 24.065 22.0936L23.3085 22.4526C23.2175 22.3696 23.1305 22.2826 23.048 22.1921L23.407 21.4356C23.477 21.2886 23.4705 21.1166 23.3905 20.9751C23.2715 20.7651 23.1785 20.5386 23.113 20.3021C23.0695 20.1451 22.952 20.0191 22.7985 19.9641L22.006 19.6826C22.002 19.6221 22 19.5616 22 19.5001C22 19.4386 22.002 19.3776 22.005 19.3176L22.7975 19.0356C22.951 18.9811 23.0685 18.8551 23.1115 18.6981C23.1775 18.4601 23.271 18.2341 23.3895 18.0246C23.4695 17.8831 23.4755 17.7111 23.406 17.5641L23.047 16.8076C23.13 16.7166 23.217 16.6296 23.3075 16.5471L24.064 16.9061C24.211 16.9761 24.383 16.9701 24.5245 16.8896C24.7345 16.7706 24.961 16.6776 25.1975 16.6121C25.3545 16.5686 25.4805 16.4511 25.5355 16.2976L25.817 15.5051C25.938 15.4986 26.061 15.4986 26.182 15.5051L26.4635 16.2976C26.518 16.4511 26.644 16.5686 26.801 16.6121C27.0385 16.6776 27.265 16.7711 27.4745 16.8896C27.6165 16.9701 27.788 16.9761 27.935 16.9061L28.6915 16.5471C28.7825 16.6301 28.8695 16.7171 28.952 16.8076L28.593 17.5641C28.523 17.7111 28.5295 17.8831 28.6095 18.0246C28.7285 18.2346 28.8215 18.4611 28.887 18.6976C28.9305 18.8546 29.048 18.9806 29.2015 19.0356L29.994 19.3171C29.998 19.3781 30 19.4386 30 19.5001C30 19.5616 29.998 19.6221 29.995 19.6826Z" fill="#FE0182"/>
<path d="M11 27.5C14.0325 27.5 16.5 25.0325 16.5 22C16.5 18.9675 14.0325 16.5 11 16.5C7.9675 16.5 5.5 18.9675 5.5 22C5.5 25.0325 7.9675 27.5 11 27.5ZM11 17.5C13.481 17.5 15.5 19.519 15.5 22C15.5 24.481 13.481 26.5 11 26.5C8.519 26.5 6.5 24.481 6.5 22C6.5 19.519 8.519 17.5 11 17.5Z" fill="#FE0182"/>
<path d="M1.01074 13.6795L1.77874 14.32C4.06824 11.5745 7.42874 9.99998 10.9997 9.99998C11.2542 9.99998 11.5082 10.0145 11.7622 10.0305L11.1462 10.6465L11.8532 11.3535L13.3532 9.85348C13.5487 9.65798 13.5487 9.34198 13.3532 9.14648L11.8532 7.64648L11.1462 8.35348L11.8257 9.03298C11.5507 9.01548 11.2752 8.99998 10.9997 8.99998C7.13174 8.99998 3.49074 10.7055 1.01074 13.6795Z" fill="#FE0182"/>
<path d="M21.5 5.5C20.1215 5.5 19 6.6215 19 8C19 9.3785 20.1215 10.5 21.5 10.5C22.8785 10.5 24 9.3785 24 8C24 6.6215 22.8785 5.5 21.5 5.5ZM21.5 9.5C20.673 9.5 20 8.827 20 8C20 7.173 20.673 6.5 21.5 6.5C22.327 6.5 23 7.173 23 8C23 8.827 22.327 9.5 21.5 9.5Z" fill="#FE0182"/>
<path d="M26 17.5C24.897 17.5 24 18.397 24 19.5C24 20.603 24.897 21.5 26 21.5C27.103 21.5 28 20.603 28 19.5C28 18.397 27.103 17.5 26 17.5ZM26 20.5C25.4485 20.5 25 20.0515 25 19.5C25 18.9485 25.4485 18.5 26 18.5C26.5515 18.5 27 18.9485 27 19.5C27 20.0515 26.5515 20.5 26 20.5Z" fill="#FE0182"/>
<path d="M30.5983 3.51004L28.0983 3.01004C27.8263 2.95504 27.5638 3.13154 27.5098 3.40204L27.0098 5.90204L27.9903 6.09854L28.2598 4.75254C28.7443 5.76054 29.0003 6.87154 29.0003 8.00004C29.0003 9.72404 28.4313 11.345 27.3553 12.6875L28.1358 13.313C29.3383 11.8125 30.0003 9.92604 30.0003 8.00004C30.0003 6.69054 29.6978 5.39954 29.1223 4.23454L30.4023 4.49054L30.5983 3.51004Z" fill="#FE0182"/>
<path d="M1 1L33.5 33.5" stroke="#323232" stroke-linecap="round" stroke-linejoin="bevel"/>
<path d="M1 33.5L33.5 0.999999" stroke="#323232" stroke-linecap="round" stroke-linejoin="bevel"/>
</svg>
