<svg width="32" height="32" viewBox="0 0 32 32" fill="none" xmlns="http://www.w3.org/2000/svg">
<path d="M31.5 23.741H0.5C0.2235 23.741 0 23.5175 0 23.241C0 22.9645 0.2235 22.741 0.5 22.741H31.5C31.7765 22.741 32 22.9645 32 23.241C32 23.5175 31.7765 23.741 31.5 23.741Z" fill="#FE0182"/>
<path d="M24.9975 21.759H1.49902C1.22252 21.759 0.999023 21.5355 0.999023 21.259V15.762C0.999023 15.4855 1.22252 15.262 1.49902 15.262H24.9975C25.274 15.262 25.4975 15.4855 25.4975 15.762V21.2585C25.4975 21.535 25.274 21.759 24.9975 21.759ZM1.99902 20.759H24.4975V16.263H1.99902V20.759Z" fill="#FE0182"/>
<path d="M24.9976 16.262H1.49912C1.29712 16.262 1.11412 16.1405 1.03712 15.9535C0.959618 15.7665 1.00262 15.5515 1.14562 15.4085L6.64762 9.90504C6.74162 9.81104 6.86812 9.75854 7.00112 9.75854H30.4996C30.7016 9.75854 30.8846 9.88005 30.9616 10.067C31.0391 10.254 30.9961 10.469 30.8531 10.612L25.3511 16.1155C25.2576 16.2095 25.1306 16.262 24.9976 16.262ZM2.70612 15.262H24.7906L29.2926 10.758H7.20812L2.70612 15.262Z" fill="#FE0182"/>
<path d="M24.9982 21.759C24.8702 21.759 24.7422 21.71 24.6447 21.6125C24.4492 21.417 24.4492 21.101 24.6447 20.9055L30.1472 15.4035C30.3432 15.208 30.6582 15.208 30.8542 15.4035C31.0502 15.599 31.0502 15.915 30.8542 16.1105L25.3517 21.6125C25.2542 21.71 25.1262 21.759 24.9982 21.759Z" fill="#FE0182"/>
<path d="M30.501 16.257C30.2245 16.257 30.001 16.0335 30.001 15.757V10.259C30.001 9.98253 30.2245 9.75903 30.501 9.75903C30.778 9.75903 31.001 9.98253 31.001 10.259V15.757C31.001 16.0325 30.778 16.257 30.501 16.257Z" fill="#FE0182"/>
<path d="M7.00195 16.262C6.72545 16.262 6.50195 16.0385 6.50195 15.762V10.259C6.50195 9.98253 6.72545 9.75903 7.00195 9.75903C7.27845 9.75903 7.50195 9.98253 7.50195 10.259V15.763C7.50195 16.039 7.27845 16.262 7.00195 16.262Z" fill="#FE0182"/>
<path d="M24.9976 31.2489H1.49912C1.29712 31.2489 1.11412 31.1269 1.03712 30.9404C0.959618 30.7529 1.00262 30.5379 1.14562 30.3954L6.64762 24.8914C6.74162 24.7969 6.86812 24.7449 7.00112 24.7449H30.4996C30.7016 24.7449 30.8846 24.8659 30.9616 25.0534C31.0391 25.2399 30.9961 25.4549 30.8531 25.5984L25.3511 31.1024C25.2576 31.1964 25.1306 31.2489 24.9976 31.2489ZM2.70612 30.2489H24.7906L29.2926 25.7449H7.20812L2.70612 30.2489Z" fill="#FE0182"/>
<path d="M7.00195 31.2469C6.72545 31.2469 6.50195 31.0234 6.50195 30.7469V25.2449C6.50195 24.9684 6.72545 24.7449 7.00195 24.7449C7.27845 24.7449 7.50195 24.9684 7.50195 25.2449V30.7469C7.50195 31.0234 7.27845 31.2469 7.00195 31.2469Z" fill="#FE0182"/>
<path d="M16 16.264C15.7235 16.264 15.5 16.0405 15.5 15.764V1.25098C15.5 0.974477 15.7235 0.750977 16 0.750977C16.2765 0.750977 16.5 0.974477 16.5 1.25098V15.764C16.5 16.041 16.2765 16.264 16 16.264Z" fill="#FE0182"/>
<path d="M19.501 8.25C19.2245 8.25 19.001 8.0265 19.001 7.75V3.25C19.001 2.9735 19.2245 2.75 19.501 2.75C19.778 2.75 20.001 2.9735 20.001 3.25V7.75C20.001 8.0265 19.778 8.25 19.501 8.25Z" fill="#FE0182"/>
<path d="M19.5005 8.24988C19.3725 8.24988 19.244 8.20088 19.147 8.10338C18.951 7.90788 18.951 7.59188 19.147 7.39638L20.147 6.39638C20.343 6.20088 20.658 6.20088 20.854 6.39638C21.05 6.59188 21.05 6.90788 20.854 7.10338L19.854 8.10338C19.757 8.20038 19.6285 8.24988 19.5005 8.24988Z" fill="#FE0182"/>
<path d="M19.5005 8.24988C19.3725 8.24988 19.244 8.20088 19.147 8.10338L18.147 7.10338C17.951 6.90788 17.951 6.59188 18.147 6.39638C18.343 6.20088 18.658 6.20088 18.854 6.39638L19.854 7.39638C20.05 7.59188 20.05 7.90788 19.854 8.10338C19.757 8.20038 19.6285 8.24988 19.5005 8.24988Z" fill="#FE0182"/>
<path d="M12.4932 8.25C12.2167 8.25 11.9932 8.0265 11.9932 7.75V3.25C11.9932 2.9735 12.2167 2.75 12.4932 2.75C12.7697 2.75 12.9932 2.9735 12.9932 3.25V7.75C12.9932 8.0265 12.7697 8.25 12.4932 8.25Z" fill="#FE0182"/>
<path d="M12.4933 8.24988C12.3653 8.24988 12.2373 8.20088 12.1398 8.10338C11.9443 7.90788 11.9443 7.59188 12.1398 7.39638L13.1398 6.39638C13.3353 6.20088 13.6513 6.20088 13.8468 6.39638C14.0423 6.59188 14.0423 6.90788 13.8468 7.10338L12.8468 8.10338C12.7493 8.20038 12.6213 8.24988 12.4933 8.24988Z" fill="#FE0182"/>
<path d="M12.4933 8.24988C12.3653 8.24988 12.2373 8.20088 12.1398 8.10338L11.1398 7.10338C10.9443 6.90788 10.9443 6.59188 11.1398 6.39638C11.3353 6.20088 11.6513 6.20088 11.8468 6.39638L12.8468 7.39638C13.0423 7.59188 13.0423 7.90788 12.8468 8.10338C12.7493 8.20038 12.6213 8.24988 12.4933 8.24988Z" fill="#FE0182"/>
</svg>
