<svg width="32" height="32" viewBox="0 0 32 32" fill="none" xmlns="http://www.w3.org/2000/svg">
<path d="M27.7244 9.90006C27.2863 8.76525 26.5326 7.75456 25.5669 7.01788C24.426 6.1475 23.0629 5.6875 21.625 5.6875C20.2345 5.6875 18.9177 6.11925 17.8115 6.92244C17.3547 6.18244 16.7549 5.539 16.0376 5.02594C14.9279 4.23206 13.6182 3.8125 12.25 3.8125C8.92981 3.8125 6.17756 6.29106 5.74625 9.495C2.50713 9.92206 0 12.6765 0 16C0 17.4362 0.472875 18.802 1.36762 19.9496C2.11687 20.9107 3.13662 21.6619 4.27556 22.0999C4.71375 23.2348 5.46744 24.2454 6.43313 24.9821C7.574 25.8525 8.93706 26.3125 10.375 26.3125C11.7656 26.3125 13.0824 25.8808 14.1885 25.0776C14.6453 25.8176 15.2451 26.461 15.9624 26.9741C17.0721 27.7679 18.3818 28.1875 19.75 28.1875C23.0702 28.1875 25.8224 25.7089 26.2537 22.505C29.4929 22.0779 32 19.3235 32 16C32 14.5638 31.5271 13.198 30.6324 12.0504C29.8831 11.0893 28.8634 10.3381 27.7244 9.90006ZM25.375 20.6875C24.8573 20.6875 24.4375 21.1073 24.4375 21.625C24.4375 24.2097 22.3347 26.3125 19.75 26.3125C17.8071 26.3125 16.0463 25.0769 15.3684 23.238C15.2557 22.9321 14.9921 22.7067 14.6724 22.6429C14.3522 22.579 14.0225 22.6863 13.8013 22.9249C12.8971 23.9003 11.6803 24.4375 10.375 24.4375C8.30675 24.4375 6.51269 23.0931 5.91062 21.092C5.82 20.7907 5.58425 20.555 5.283 20.4644C3.27638 19.8607 1.875 18.0248 1.875 16C1.875 13.4153 4.00581 11.3125 6.625 11.3125C7.14275 11.3125 7.5625 10.8927 7.5625 10.375C7.5625 7.79031 9.66531 5.6875 12.25 5.6875C14.1929 5.6875 15.9537 6.92306 16.6316 8.762C16.7443 9.06787 17.0079 9.29325 17.3276 9.35706C17.6472 9.42088 17.9771 9.31413 18.1987 9.07506C19.1029 8.09969 20.3197 7.5625 21.625 7.5625C23.6933 7.5625 25.4873 8.90694 26.0894 10.908C26.18 11.2092 26.4157 11.445 26.717 11.5356C28.7236 12.1393 30.125 13.9752 30.125 16C30.125 18.5847 27.9942 20.6875 25.375 20.6875Z" fill="#FE0182"/>
<path d="M29.1875 5.625C30.7383 5.625 32 4.36331 32 2.8125C32 1.26169 30.7383 0 29.1875 0C27.6367 0 26.375 1.26169 26.375 2.8125C26.375 4.36331 27.6367 5.625 29.1875 5.625ZM29.1875 1.875C29.7044 1.875 30.125 2.29556 30.125 2.8125C30.125 3.32944 29.7044 3.75 29.1875 3.75C28.6706 3.75 28.25 3.32944 28.25 2.8125C28.25 2.29556 28.6706 1.875 29.1875 1.875Z" fill="#FE0182"/>
<path d="M2.8125 26.375C1.26169 26.375 0 27.6367 0 29.1875C0 30.7383 1.26169 32 2.8125 32C4.36331 32 5.625 30.7383 5.625 29.1875C5.625 27.6367 4.36331 26.375 2.8125 26.375ZM2.8125 30.125C2.29556 30.125 1.875 29.7044 1.875 29.1875C1.875 28.6706 2.29556 28.25 2.8125 28.25C3.32944 28.25 3.75 28.6706 3.75 29.1875C3.75 29.7044 3.32944 30.125 2.8125 30.125Z" fill="#FE0182"/>
<path d="M16 16.9375C16.5178 16.9375 16.9375 16.5178 16.9375 16C16.9375 15.4822 16.5178 15.0625 16 15.0625C15.4822 15.0625 15.0625 15.4822 15.0625 16C15.0625 16.5178 15.4822 16.9375 16 16.9375Z" fill="#FE0182"/>
<path d="M29.125 26.3125C29.6428 26.3125 30.0625 25.8928 30.0625 25.375C30.0625 24.8572 29.6428 24.4375 29.125 24.4375C28.6072 24.4375 28.1875 24.8572 28.1875 25.375C28.1875 25.8928 28.6072 26.3125 29.125 26.3125Z" fill="#FE0182"/>
<path d="M2.875 7.5625C3.39277 7.5625 3.8125 7.14277 3.8125 6.625C3.8125 6.10723 3.39277 5.6875 2.875 5.6875C2.35723 5.6875 1.9375 6.10723 1.9375 6.625C1.9375 7.14277 2.35723 7.5625 2.875 7.5625Z" fill="#FE0182"/>
<path d="M12.25 13.1875C12.7678 13.1875 13.1875 12.7678 13.1875 12.25C13.1875 11.7322 12.7678 11.3125 12.25 11.3125C11.7322 11.3125 11.3125 11.7322 11.3125 12.25C11.3125 12.7678 11.7322 13.1875 12.25 13.1875Z" fill="#FE0182"/>
<path d="M19.75 20.6875C20.2678 20.6875 20.6875 20.2678 20.6875 19.75C20.6875 19.2322 20.2678 18.8125 19.75 18.8125C19.2322 18.8125 18.8125 19.2322 18.8125 19.75C18.8125 20.2678 19.2322 20.6875 19.75 20.6875Z" fill="#FE0182"/>
<path d="M21.625 13.1875C22.1428 13.1875 22.5625 12.7678 22.5625 12.25C22.5625 11.7322 22.1428 11.3125 21.625 11.3125C21.1072 11.3125 20.6875 11.7322 20.6875 12.25C20.6875 12.7678 21.1072 13.1875 21.625 13.1875Z" fill="#FE0182"/>
<path d="M10.375 20.6875C10.8928 20.6875 11.3125 20.2678 11.3125 19.75C11.3125 19.2322 10.8928 18.8125 10.375 18.8125C9.85723 18.8125 9.4375 19.2322 9.4375 19.75C9.4375 20.2678 9.85723 20.6875 10.375 20.6875Z" fill="#FE0182"/>
<path d="M6.625 16.9375C7.14277 16.9375 7.5625 16.5178 7.5625 16C7.5625 15.4822 7.14277 15.0625 6.625 15.0625C6.10723 15.0625 5.6875 15.4822 5.6875 16C5.6875 16.5178 6.10723 16.9375 6.625 16.9375Z" fill="#FE0182"/>
<path d="M25.375 16.9375C25.8928 16.9375 26.3125 16.5178 26.3125 16C26.3125 15.4822 25.8928 15.0625 25.375 15.0625C24.8572 15.0625 24.4375 15.4822 24.4375 16C24.4375 16.5178 24.8572 16.9375 25.375 16.9375Z" fill="#FE0182"/>
<path d="M12.25 30.0625C12.7678 30.0625 13.1875 29.6428 13.1875 29.125C13.1875 28.6072 12.7678 28.1875 12.25 28.1875C11.7322 28.1875 11.3125 28.6072 11.3125 29.125C11.3125 29.6428 11.7322 30.0625 12.25 30.0625Z" fill="#FE0182"/>
<path d="M17.875 3.8125C18.3928 3.8125 18.8125 3.39277 18.8125 2.875C18.8125 2.35723 18.3928 1.9375 17.875 1.9375C17.3572 1.9375 16.9375 2.35723 16.9375 2.875C16.9375 3.39277 17.3572 3.8125 17.875 3.8125Z" fill="#FE0182"/>
</svg>
