<svg width="32" height="32" viewBox="0 0 32 32" fill="none" xmlns="http://www.w3.org/2000/svg">
<path d="M0.478516 23.2928L2.69751 23.8286C2.74561 23.8401 2.79468 23.8459 2.844 23.8459H15.5105C15.8557 23.8459 16.1355 23.5653 16.1355 23.2197V6.3562C16.1355 6.01056 15.8557 5.72998 15.5105 5.72998C15.1653 5.72998 14.8855 6.01056 14.8855 6.3562V16.1422H14.2854C13.0806 16.1422 11.8787 15.8731 10.7869 15.3628L10.2549 6.31951C10.2344 5.97435 9.93776 5.71041 9.59401 5.7312C9.24953 5.75151 8.98658 6.04798 9.00709 6.39314L9.53444 15.3557L5.21217 17.1444C5.09034 17.1948 4.96485 17.2324 4.83717 17.2574C4.83521 17.2579 4.8335 17.2581 4.83155 17.2584C4.70997 17.2818 4.58594 17.2938 4.46046 17.2938C4.45948 17.2938 4.4585 17.2938 4.45753 17.2938L3.49952 17.2926C3.49805 17.2926 3.49659 17.2926 3.49488 17.2926C2.12134 17.2926 0.892335 18.1642 0.436036 19.4629L0.0354004 20.6033C0.0117188 20.6708 0.000732426 20.741 0.000732426 20.8112C0.000488282 20.8112 0.000244141 20.8112 0 20.8112V22.6842C0 22.9736 0.197754 23.2251 0.478516 23.2928ZM2.91822 22.5935L1.25 22.1908V21.6211L2.64038 21.9836C2.69165 21.9971 2.74463 22.0037 2.79786 22.0037H14.8855V22.5935H2.91822ZM1.61499 19.8787C1.89551 19.0805 2.65064 18.5448 3.49488 18.5448H3.49781L4.45582 18.5463H4.46046C4.55054 18.5463 4.6399 18.5416 4.72901 18.5343L5.7024 19.5098C5.82447 19.6319 5.98438 19.693 6.1443 19.693C6.30421 19.693 6.46436 19.6319 6.58619 19.5098C6.83033 19.2652 6.83033 18.8687 6.58619 18.6241L6.09669 18.1334L6.87696 17.8105L7.85768 18.7931C7.97975 18.9154 8.13966 18.9766 8.29957 18.9766C8.45949 18.9766 8.6194 18.9154 8.74147 18.7931C8.98561 18.5487 8.98561 18.1522 8.74147 17.9076L8.12794 17.2928L8.71486 17.0499L9.68458 18.0216C9.80665 18.1439 9.96657 18.205 10.1265 18.205C10.2864 18.205 10.4463 18.1439 10.5684 18.0216C10.8125 17.7772 10.8125 17.3807 10.5684 17.136L9.96583 16.5323L10.1599 16.4518C11.4424 17.0693 12.8623 17.3946 14.2854 17.3946H14.8855V20.7513H2.87769L1.44019 20.3765L1.61499 19.8787Z" fill="#FE0182"/>
<path d="M17.0332 23.4515C17.0464 23.5217 17.0718 23.5882 17.1067 23.6489C17.1067 23.6489 17.1065 23.6491 17.1062 23.6491L18.041 25.2712C18.1548 25.4689 18.3633 25.5846 18.5823 25.5846C18.6411 25.5846 18.7007 25.576 18.7593 25.5589L20.9483 24.9109C20.9954 24.8969 21.041 24.8774 21.0835 24.8527L31.1863 19.0082C31.5626 18.7908 31.8316 18.4395 31.9439 18.0192C32.0562 17.599 31.9986 17.1599 31.7815 16.7832L31.3626 16.0562L29.0887 12.1102L25.9602 3.69537C25.8399 3.37125 25.48 3.20638 25.1565 3.32722C24.833 3.44782 24.6685 3.80838 24.7889 4.1325L27.7513 12.1002L27.148 12.449C26.125 13.0408 24.9756 13.4072 23.8003 13.5202L20.4998 6.10119C20.3592 5.78539 19.9898 5.64327 19.6746 5.78417C19.3594 5.92507 19.2176 6.29517 19.3582 6.61122L22.6853 14.0902L19.7903 17.8627C19.7105 17.9664 19.6216 18.0613 19.5244 18.1464C19.5218 18.1484 19.5193 18.1504 19.5169 18.1526C19.4226 18.234 19.3208 18.3069 19.2115 18.3698L18.3811 18.8487C17.189 19.5361 16.5579 20.9084 16.8113 22.2631L17.0332 23.4515ZM30.7366 17.6951C30.7105 17.7922 30.6485 17.8735 30.5613 17.9238L20.523 23.7308L18.8772 24.2179L18.593 23.7245L19.9778 23.3419C20.0291 23.3275 20.0784 23.3069 20.1243 23.2805L30.5926 17.2247L30.699 17.4094C30.7493 17.4965 30.7625 17.598 30.7366 17.6951ZM19.0044 19.9344L19.8347 19.4554C19.9143 19.4097 19.991 19.3602 20.0657 19.3084L21.3953 19.6653C21.4495 19.68 21.5039 19.6868 21.5574 19.6868C21.8335 19.6868 22.086 19.5024 22.1609 19.2225C22.2503 18.8886 22.0523 18.5452 21.7188 18.4556L21.0498 18.2761L21.5647 17.6053L22.9043 17.9649C22.9585 17.9796 23.013 17.9867 23.0664 17.9867C23.3423 17.9867 23.595 17.802 23.6697 17.5222C23.7591 17.1883 23.5613 16.8448 23.2278 16.7553L22.3897 16.5303L22.7769 16.0261L24.1016 16.3818C24.1558 16.3962 24.2102 16.4033 24.2637 16.4033C24.5396 16.4033 24.7923 16.2186 24.867 15.9388C24.9563 15.6049 24.7586 15.2614 24.4251 15.1719L23.6018 14.951L23.73 14.7842C25.1487 14.6765 26.5406 14.2467 27.7732 13.5337L28.2928 13.233L29.9678 16.1401L19.5686 22.1557L18.137 22.5513L18.0398 22.0325C17.8841 21.1998 18.2718 20.3568 19.0044 19.9344Z" fill="#FE0182"/>
<path d="M6.79151 26.4517H0.625001C0.279786 26.4517 0 26.7322 0 27.0779C0 27.4238 0.279786 27.7041 0.625001 27.7041H6.79151C7.13673 27.7041 7.41651 27.4238 7.41651 27.0779C7.41651 26.7322 7.13673 26.4517 6.79151 26.4517Z" fill="#FE0182"/>
<path d="M9.9375 26.4517C9.77319 26.4517 9.61206 26.5187 9.49561 26.6351C9.37939 26.7516 9.3125 26.913 9.3125 27.0779C9.3125 27.2425 9.37939 27.4042 9.49561 27.5206C9.61206 27.6371 9.77319 27.7041 9.9375 27.7041C10.1021 27.7041 10.2632 27.6371 10.3794 27.5206C10.4956 27.4042 10.5625 27.2425 10.5625 27.0779C10.5625 26.913 10.4956 26.7516 10.3794 26.6351C10.2632 26.5187 10.1021 26.4517 9.9375 26.4517Z" fill="#FE0182"/>
<path d="M31.3726 25.0073H25.2061C24.8608 25.0073 24.5811 25.2879 24.5811 25.6335C24.5811 25.9794 24.8608 26.2598 25.2061 26.2598H31.3726C31.7178 26.2598 31.9976 25.9794 31.9976 25.6335C31.9976 25.2879 31.7178 25.0073 31.3726 25.0073Z" fill="#FE0182"/>
<path d="M22.1665 27.5161H16C15.6548 27.5161 15.375 27.7967 15.375 28.1423C15.375 28.4882 15.6548 28.7686 16 28.7686H22.1665C22.5117 28.7686 22.7915 28.4882 22.7915 28.1423C22.7915 27.7967 22.5117 27.5161 22.1665 27.5161Z" fill="#FE0182"/>
<defs>
<clipPath id="clip0">
<rect width="32" height="32" fill="white"/>
</clipPath>
</defs>
</svg>
