<svg width="32" height="32" viewBox="0 0 32 32" fill="none" xmlns="http://www.w3.org/2000/svg">
<path d="M6.68262 17.6885C6.84717 17.6885 7.0083 17.6216 7.12451 17.5054C7.24072 17.3892 7.30762 17.2278 7.30762 17.0635C7.30762 16.8992 7.24072 16.7378 7.12451 16.6216C7.0083 16.5054 6.84717 16.4385 6.68262 16.4385C6.51758 16.4385 6.35693 16.5054 6.24072 16.6216C6.12378 16.7378 6.05762 16.8984 6.05762 17.0635C6.05762 17.2278 6.12378 17.3892 6.24072 17.5054C6.35693 17.6216 6.51758 17.6885 6.68262 17.6885Z" fill="#FE0182"/>
<path d="M12.7588 6.84203C12.6213 6.70458 12.4277 6.63891 12.2351 6.6643C12.0422 6.68969 11.8723 6.80346 11.7754 6.97191L7.39085 14.582C7.21849 14.8811 7.32127 15.2632 7.62034 15.4355C7.91941 15.6079 8.30149 15.5049 8.47385 15.206L10.6096 11.499L20.3532 21.2426L8.17771 28.2575L3.59472 23.6745L5.95555 19.5771C6.12791 19.278 6.02513 18.8957 5.72606 18.7233C5.42674 18.551 5.04466 18.654 4.8723 18.9531L2.31371 23.394L1.2727 24.4352C0.451903 25.2558 0 26.3469 0 27.5075C0 28.6679 0.451903 29.759 1.2727 30.5798C2.11962 31.4267 3.23217 31.8503 4.34471 31.8503C5.4575 31.8503 6.57005 31.4267 7.41697 30.5798L8.07444 29.9223L9.15281 31.0004C9.81906 31.6669 10.6946 31.9999 11.5698 31.9999C12.4453 31.9999 13.3205 31.6669 13.987 31.0004C15.2802 29.7072 15.3186 27.6269 14.102 26.2868L24.8803 20.0771C25.0488 19.9799 25.1623 19.81 25.1879 19.6174C25.2133 19.4245 25.1476 19.2309 25.0102 19.0935L12.7588 6.84203ZM2.15649 29.6957C1.57202 29.111 1.25 28.3339 1.25 27.5073C1.25 26.6806 1.57202 25.9035 2.15649 25.319L2.81396 24.6616L7.19065 29.0383L6.53319 29.6957C5.32665 30.9025 3.36303 30.9025 2.15649 29.6957ZM13.1032 27.05C13.9487 27.8954 13.9487 29.2709 13.1032 30.1164C12.2578 30.9618 10.882 30.9621 10.0366 30.1164L9.09299 29.1728L12.9841 26.9311L13.1032 27.05ZM21.4741 20.5969C21.4694 20.592 21.4655 20.5871 21.4609 20.5822L11.2561 10.3774L12.4514 8.30248L23.5497 19.4008L21.4741 20.5969Z" fill="#FE0182"/>
<path d="M15.837 7.12381C15.8927 7.13919 15.9486 7.14652 16.0035 7.14652C16.2777 7.14652 16.5294 6.96463 16.6056 6.68753L17.3734 3.90286L17.9064 4.43582C18.0604 4.58988 18.2835 4.65262 18.4955 4.60135C18.7071 4.55008 18.8768 4.39237 18.9435 4.18485L20.0248 0.816194C20.1302 0.487581 19.9493 0.13553 19.6207 0.0300616C19.2921 -0.0754072 18.94 0.105501 18.8346 0.434114L18.0663 2.82791L17.4981 2.2598C17.3409 2.10257 17.1119 2.0408 16.8966 2.09744C16.6815 2.15433 16.5128 2.32108 16.4537 2.53568L15.4005 6.35501C15.3089 6.68802 15.5043 7.03226 15.837 7.12381Z" fill="#FE0182"/>
<path d="M31.9194 10.2533C31.7532 9.95079 31.3733 9.84043 31.0708 10.0064L26.6255 12.4481C26.4531 12.5428 26.3355 12.713 26.3079 12.9078C26.28 13.1024 26.3455 13.2989 26.4846 13.4378L27.7075 14.6607L24.7715 15.3946C24.4365 15.4784 24.2329 15.8177 24.3167 16.1527C24.3877 16.4366 24.6426 16.6261 24.9226 16.6261C24.9727 16.6261 25.0239 16.62 25.0747 16.6073L29.0816 15.6056C29.3001 15.5511 29.4722 15.3832 29.5322 15.1661C29.5923 14.9491 29.531 14.7167 29.3718 14.5575L27.9573 13.1429L31.6726 11.1022C31.9751 10.9359 32.0857 10.556 31.9194 10.2533Z" fill="#FE0182"/>
<path d="M28.8044 6.96289C28.9207 7.07983 29.0818 7.14624 29.2463 7.14624C29.4106 7.14624 29.5718 7.07983 29.6882 6.96289C29.8044 6.84668 29.8713 6.68604 29.8713 6.52124C29.8713 6.35669 29.8044 6.19556 29.6882 6.07935C29.5718 5.96289 29.4106 5.896 29.2463 5.896C29.0818 5.896 28.9207 5.96289 28.8044 6.07935C28.688 6.19556 28.6211 6.35669 28.6211 6.52124C28.6211 6.68604 28.688 6.84668 28.8044 6.96289Z" fill="#FE0182"/>
<path d="M27.5264 7.37066C27.3736 7.06109 26.9988 6.93413 26.6892 7.08697L24.356 8.23858C24.1753 8.32769 24.0489 8.49859 24.0162 8.69732C23.9834 8.89629 24.0484 9.09868 24.1907 9.24102L25.0735 10.1238L22.1341 11.5718C21.8245 11.7244 21.6971 12.0992 21.8497 12.4087C21.9585 12.6297 22.1802 12.7576 22.4109 12.7576C22.5035 12.7576 22.5977 12.7371 22.6866 12.6934L26.4087 10.8597C26.5896 10.7706 26.7163 10.5997 26.7493 10.4009C26.782 10.202 26.7171 9.99956 26.5745 9.85698L25.6912 8.97368L27.2425 8.20782C27.552 8.05498 27.679 7.68023 27.5264 7.37066Z" fill="#FE0182"/>
<path d="M19.703 9.09906C19.8036 9.15936 19.9145 9.18817 20.0241 9.18817C20.2362 9.18817 20.4433 9.08002 20.5605 8.8847L22.8747 5.02875L24.089 6.24628C24.2213 6.37884 24.4059 6.44525 24.5924 6.42718C24.7787 6.40887 24.9472 6.30829 25.0512 6.15253L28.5155 0.972595C28.7074 0.685729 28.6305 0.297546 28.3437 0.105651C28.0565 -0.0859991 27.6684 -0.00909477 27.4765 0.27777L24.4359 4.82391L23.194 3.57831C23.058 3.44183 22.8664 3.37567 22.6754 3.39935C22.4843 3.42279 22.3146 3.5329 22.2155 3.69818L19.4887 8.24139C19.3109 8.53754 19.4069 8.92132 19.703 9.09906Z" fill="#FE0182"/>
<defs>
<clipPath id="clip0">
<rect width="32" height="32" fill="white"/>
</clipPath>
</defs>
</svg>
