<svg width="32" height="32" viewBox="0 0 32 32" fill="none" xmlns="http://www.w3.org/2000/svg">
<path d="M20.6957 24.8669C20.5379 23.8645 20.118 22.9215 19.4786 22.1336C18.8391 21.3456 18.0028 20.7406 17.0544 20.3798L17.9807 17.1375C18.002 17.0631 18.0057 16.9847 17.9916 16.9086C17.9775 16.8325 17.9458 16.7608 17.8992 16.6989C17.8526 16.6371 17.7923 16.587 17.723 16.5525C17.6537 16.518 17.5774 16.5 17.5 16.5H12.5C12.4226 16.5 12.3462 16.518 12.277 16.5525C12.2077 16.587 12.1474 16.6371 12.1008 16.6989C12.0541 16.7608 12.0225 16.8325 12.0084 16.9086C11.9942 16.9847 11.998 17.0631 12.0192 17.1375L12.9456 20.3799C11.9971 20.7407 11.1608 21.3457 10.5214 22.1337C9.88195 22.9217 9.46208 23.8646 9.3043 24.8671L8.96249 27.0321C8.89488 27.4604 8.92088 27.8981 9.03871 28.3154C9.15654 28.7326 9.36339 29.1193 9.64502 29.4489C9.92665 29.7785 10.2764 30.0431 10.6701 30.2246C11.0638 30.406 11.4922 30.5 11.9257 30.5H18.0742C18.5078 30.5 18.9361 30.406 19.3299 30.2246C19.7236 30.0431 20.0733 29.7785 20.355 29.4489C20.6366 29.1193 20.8434 28.7326 20.9613 28.3154C21.0791 27.8981 21.1051 27.4604 21.0375 27.0321L20.6957 24.8669ZM13.1629 17.5H16.8371L16.0926 20.1058C15.371 19.9647 14.629 19.9647 13.9074 20.1058L13.1629 17.5ZM19.5948 28.7992C19.4071 29.0191 19.174 29.1956 18.9115 29.3166C18.649 29.4376 18.3633 29.5002 18.0742 29.5H11.9257C11.6367 29.5 11.3511 29.4374 11.0886 29.3165C10.8261 29.1955 10.5929 29.0191 10.4051 28.7994C10.2173 28.5796 10.0794 28.3218 10.0008 28.0437C9.92226 27.7655 9.90492 27.4736 9.94999 27.1881L10.2919 25.0229C10.4403 24.0816 10.8676 23.2065 11.5185 22.5105C12.1694 21.8146 13.0141 21.3298 13.9434 21.1187L12.0934 23.7091L12.9071 24.2904L14.5 22.0602V24.5H15.5V22.0602L17.0931 24.2906L17.9069 23.7094L16.0569 21.119C16.9861 21.33 17.8307 21.8148 18.4815 22.5107C19.1324 23.2066 19.5597 24.0817 19.7082 25.0229L20.0501 27.1881C20.0953 27.4736 20.078 27.7655 19.9994 28.0437C19.9208 28.3219 19.7827 28.5796 19.5948 28.7992Z" fill="#FE0182"/>
<path d="M28.5448 20.423C28.4182 19.1584 27.928 17.9575 27.1335 16.9654C26.339 15.9734 25.2742 15.2327 24.0678 14.8329L24.9808 11.6375C25.0021 11.5631 25.0058 11.4847 24.9916 11.4086C24.9775 11.3325 24.9459 11.2608 24.8993 11.1989C24.8527 11.1371 24.7923 11.087 24.7231 11.0525C24.6538 11.018 24.5774 11 24.5 11H19.5C19.4226 11 19.3463 11.018 19.277 11.0525C19.2077 11.087 19.1474 11.1371 19.1008 11.1989C19.0542 11.2608 19.0226 11.3325 19.0084 11.4086C18.9943 11.4847 18.998 11.5631 19.0193 11.6375L19.9322 14.8326C19.3192 15.0355 18.7395 15.3278 18.2119 15.7L18.7882 16.5173C19.3932 16.0898 20.0779 15.788 20.8017 15.6298L18.6204 18.1746L19.3797 18.8253L21.5 16.3516V19.5H22.5V16.3516L24.6204 18.8254L25.3797 18.1746L23.198 15.6294C24.3481 15.8791 25.3892 16.4874 26.1713 17.3668C26.9535 18.2461 27.4362 19.3511 27.55 20.5224L28.2279 27.3009C28.2557 27.579 28.2249 27.8598 28.1376 28.1253C28.0502 28.3907 27.9082 28.6349 27.7207 28.8421C27.5331 29.0493 27.3043 29.2149 27.0488 29.3282C26.7933 29.4415 26.517 29.5 26.2375 29.5H21.5V30.5H26.2375C26.6567 30.5 27.0712 30.4122 27.4543 30.2422C27.8374 30.0722 28.1806 29.8238 28.4619 29.513C28.7431 29.2023 28.9561 28.836 29.0872 28.4379C29.2182 28.0397 29.2644 27.6186 29.2226 27.2015L28.5448 20.423ZM20.1629 12H23.8372L23.0962 14.5932C22.3706 14.4694 21.6292 14.4689 20.9035 14.5919L20.1629 12Z" fill="#FE0182"/>
<path d="M27.7555 14.7178C27.1452 14.1651 26.4586 13.7032 25.7167 13.3462L25.2832 14.2473C26.4087 14.7891 27.383 15.6005 28.1194 16.6094C28.8559 17.6184 29.3318 18.7936 29.5048 20.0306L30.4952 19.8927C30.2163 17.9001 29.2466 16.0686 27.7555 14.7178Z" fill="#FE0182"/>
<path d="M4.29745 28.8356C4.11001 28.6265 3.96867 28.3802 3.88259 28.1129C3.79652 27.8456 3.76763 27.5631 3.79783 27.2839L5.13226 15.0071C5.33403 13.1279 6.16347 11.3715 7.48659 10.0218C8.8097 8.6721 10.5492 7.80787 12.4241 7.56875L9.60495 11.1933L10.3943 11.8072L12.9996 8.45725V13H13.9996V8.45725L16.605 11.8073L17.3943 11.1934L14.5763 7.57025C16.5102 7.823 18.2974 8.73621 19.6353 10.1553L20.364 9.4705C19.2506 8.289 17.8517 7.41421 16.302 6.93044L17.6876 2.13925C17.7092 2.06475 17.7132 1.98625 17.6992 1.90996C17.6853 1.83366 17.6538 1.76166 17.6072 1.69965C17.5606 1.63764 17.5002 1.58732 17.4308 1.55267C17.3614 1.51802 17.2849 1.49999 17.2073 1.5H9.70733C9.63058 1.50002 9.55487 1.5177 9.48606 1.55167C9.41725 1.58565 9.35718 1.63501 9.31051 1.69593C9.26384 1.75685 9.23182 1.82769 9.21693 1.90298C9.20204 1.97826 9.20468 2.05596 9.22464 2.13006L10.5309 6.97675C8.81727 7.54432 7.30324 8.59315 6.16964 9.99799C5.03603 11.4028 4.33077 13.1043 4.13808 14.8991L2.8037 27.1758C2.75817 27.5947 2.80138 28.0184 2.9305 28.4194C3.05962 28.8205 3.27176 29.1898 3.55312 29.5034C3.83447 29.817 4.17872 30.0678 4.56345 30.2395C4.94818 30.4112 5.36477 30.5 5.78608 30.5H8.49964V29.5H5.78608C5.50523 29.4998 5.22756 29.4406 4.9711 29.3261C4.71464 29.2117 4.48512 29.0446 4.29745 28.8356ZM10.36 2.5H16.5423L15.3327 6.68256C14.7292 6.56152 14.1152 6.50037 13.4996 6.5C12.8258 6.49972 12.1539 6.57129 11.4953 6.7135L10.36 2.5Z" fill="#FE0182"/>
<path d="M3.14392 14.791C3.30023 13.3619 3.74976 11.9804 4.46439 10.7329C5.17903 9.48539 6.1434 8.39879 7.29717 7.54105L6.70198 6.73755C5.43741 7.67752 4.3804 8.86833 3.59709 10.2355C2.81378 11.6026 2.32101 13.1167 2.14961 14.683L1.84961 17.446L2.84336 17.554L3.14392 14.791Z" fill="#FE0182"/>
<path d="M1.74148 18.4461L1.63281 19.446L2.62696 19.5541L2.73563 18.5541L1.74148 18.4461Z" fill="#FE0182"/>
</svg>
