<svg width="25" height="25" viewBox="0 0 25 25" fill="none" xmlns="http://www.w3.org/2000/svg">
<path d="M12.2229 2.16802C15.4397 2.16802 15.8206 2.18213 17.0857 2.23857C18.2614 2.2903 18.8963 2.48782 19.3196 2.65242C19.8792 2.86875 20.2837 3.13211 20.7022 3.55067C21.1255 3.97392 21.3841 4.37367 21.6005 4.93331C21.7651 5.35657 21.9626 5.99616 22.0143 7.16717C22.0707 8.43695 22.0849 8.81788 22.0849 12.0299C22.0849 15.2467 22.0707 15.6276 22.0143 16.8927C21.9626 18.0684 21.7651 18.7033 21.6005 19.1266C21.3841 19.6862 21.1208 20.0907 20.7022 20.5092C20.279 20.9325 19.8792 21.1911 19.3196 21.4075C18.8963 21.5721 18.2567 21.7696 17.0857 21.8213C15.8159 21.8777 15.435 21.8919 12.2229 21.8919C9.00618 21.8919 8.62524 21.8777 7.36017 21.8213C6.18445 21.7696 5.54957 21.5721 5.12631 21.4075C4.56667 21.1911 4.16222 20.9278 3.74367 20.5092C3.32041 20.086 3.06175 19.6862 2.84542 19.1266C2.68082 18.7033 2.4833 18.0637 2.43157 16.8927C2.37513 15.6229 2.36102 15.242 2.36102 12.0299C2.36102 8.81318 2.37513 8.43224 2.43157 7.16717C2.4833 5.99146 2.68082 5.35657 2.84542 4.93331C3.06175 4.37367 3.32511 3.96922 3.74367 3.55067C4.16692 3.12741 4.56667 2.86875 5.12631 2.65242C5.54957 2.48782 6.18916 2.2903 7.36017 2.23857C8.62524 2.18213 9.00618 2.16802 12.2229 2.16802ZM12.2229 0C8.95444 0 8.54529 0.0141086 7.26141 0.070543C5.98223 0.126977 5.10279 0.333904 4.34093 0.630184C3.54614 0.940574 2.87363 1.34972 2.20583 2.02223C1.53332 2.69004 1.12417 3.36255 0.813778 4.15263C0.517497 4.9192 0.310571 5.79393 0.254137 7.07311C0.197702 8.3617 0.183594 8.77085 0.183594 12.0393C0.183594 15.3078 0.197702 15.717 0.254137 17.0009C0.310571 18.2801 0.517497 19.1595 0.813778 19.9214C1.12417 20.7161 1.53332 21.3886 2.20583 22.0565C2.87363 22.7243 3.54615 23.1381 4.33623 23.4438C5.10279 23.7401 5.97753 23.947 7.25671 24.0034C8.54059 24.0599 8.94974 24.074 12.2182 24.074C15.4867 24.074 15.8959 24.0599 17.1798 24.0034C18.4589 23.947 19.3384 23.7401 20.1002 23.4438C20.8903 23.1381 21.5628 22.7243 22.2306 22.0565C22.8984 21.3886 23.3123 20.7161 23.618 19.9261C23.9143 19.1595 24.1212 18.2848 24.1776 17.0056C24.2341 15.7217 24.2482 15.3125 24.2482 12.044C24.2482 8.77555 24.2341 8.3664 24.1776 7.08252C24.1212 5.80334 23.9143 4.9239 23.618 4.16204C23.3217 3.36255 22.9126 2.69004 22.24 2.02223C21.5722 1.35443 20.8997 0.940574 20.1096 0.634887C19.3431 0.338607 18.4683 0.13168 17.1892 0.0752459C15.9006 0.0141086 15.4914 0 12.2229 0Z" fill="white"/>
<path d="M12.2228 5.85498C8.80856 5.85498 6.03857 8.62497 6.03857 12.0393C6.03857 15.4535 8.80856 18.2235 12.2228 18.2235C15.6371 18.2235 18.4071 15.4535 18.4071 12.0393C18.4071 8.62497 15.6371 5.85498 12.2228 5.85498ZM12.2228 16.0508C10.0078 16.0508 8.2113 14.2543 8.2113 12.0393C8.2113 9.8242 10.0078 8.02771 12.2228 8.02771C14.4379 8.02771 16.2344 9.8242 16.2344 12.0393C16.2344 14.2543 14.4379 16.0508 12.2228 16.0508Z" fill="white"/>
<path d="M20.0956 5.61078C20.0956 6.41026 19.4466 7.05456 18.6518 7.05456C17.8523 7.05456 17.208 6.40556 17.208 5.61078C17.208 4.81129 17.857 4.16699 18.6518 4.16699C19.4466 4.16699 20.0956 4.81599 20.0956 5.61078Z" fill="white"/>
</svg>
