<svg width="25" height="25" viewBox="0 0 25 25" fill="none" xmlns="http://www.w3.org/2000/svg">
<path d="M23.2231 0H2.69935C2.22793 0 1.77583 0.187269 1.44249 0.520611C1.10914 0.853952 0.921875 1.30606 0.921875 1.77748V22.3012C0.921875 22.7726 1.10914 23.2247 1.44249 23.5581C1.77583 23.8914 2.22793 24.0787 2.69935 24.0787H23.2231C23.6945 24.0787 24.1466 23.8914 24.48 23.5581C24.8133 23.2247 25.0006 22.7726 25.0006 22.3012V1.77748C25.0006 1.30606 24.8133 0.853952 24.48 0.520611C24.1466 0.187269 23.6945 0 23.2231 0ZM8.09866 20.512H4.4785V9.01279H8.09866V20.512ZM6.28607 7.41925C5.87543 7.41693 5.47467 7.29303 5.13438 7.06317C4.79408 6.83331 4.5295 6.5078 4.37403 6.12771C4.21856 5.74763 4.17917 5.33001 4.26082 4.92756C4.34247 4.5251 4.54151 4.15586 4.83281 3.86642C5.12412 3.57698 5.49463 3.38031 5.8976 3.30125C6.30057 3.22218 6.71793 3.26426 7.09701 3.42217C7.47608 3.58008 7.79989 3.84674 8.02756 4.1885C8.25523 4.53026 8.37656 4.93181 8.37624 5.34246C8.38011 5.61739 8.32859 5.89029 8.22475 6.14489C8.12091 6.39948 7.96688 6.63057 7.77183 6.82437C7.57678 7.01817 7.34471 7.17072 7.08945 7.27292C6.8342 7.37512 6.56097 7.42488 6.28607 7.41925ZM21.4423 20.5221H17.8238V14.2399C17.8238 12.3871 17.0362 11.8153 16.0195 11.8153C14.946 11.8153 13.8926 12.6246 13.8926 14.2867V20.5221H10.2724V9.02115H13.7538V10.6147H13.8006C14.1501 9.90738 15.3741 8.69843 17.2419 8.69843C19.2618 8.69843 21.4439 9.89734 21.4439 13.4088L21.4423 20.5221Z" fill="white"/>
<defs>
<clipPath id="clip0">
<rect width="24.0787" height="24.0787" fill="white" transform="translate(0.921875)"/>
</clipPath>
</defs>
</svg>
