<svg width="21" height="21" viewBox="0 0 21 21" fill="none" xmlns="http://www.w3.org/2000/svg">
<path d="M10.6987 15.6021L10.9529 16.108L10.9529 16.108L10.6987 15.6021ZM10.2483 15.6021L10.5025 15.0962H10.5025L10.2483 15.6021ZM16.0172 7.85538C16.0172 9.90777 14.9352 11.569 13.6593 12.8142C12.385 14.0579 10.9715 14.8315 10.4446 15.0962L10.9529 16.108C11.5292 15.8185 13.058 14.9834 14.4502 13.6246C15.8408 12.2673 17.1495 10.3323 17.1495 7.85538H16.0172ZM10.4735 2.31176C13.5352 2.31176 16.0172 4.79372 16.0172 7.85538H17.1495C17.1495 4.16836 14.1606 1.17945 10.4735 1.17945V2.31176ZM4.92993 7.85538C4.92993 4.79372 7.41189 2.31176 10.4735 2.31176V1.17945C6.78653 1.17945 3.79761 4.16836 3.79761 7.85538H4.92993ZM10.5025 15.0962C9.97556 14.8315 8.56205 14.0579 7.28778 12.8142C6.01192 11.569 4.92993 9.90777 4.92993 7.85538H3.79761C3.79761 10.3323 5.10628 12.2673 6.4969 13.6246C7.88911 14.9834 9.41787 15.8185 9.99419 16.108L10.5025 15.0962ZM10.4446 15.0962C10.4495 15.0937 10.4598 15.0902 10.4735 15.0902C10.4873 15.0902 10.4975 15.0937 10.5025 15.0962L9.99419 16.108C10.2982 16.2607 10.6489 16.2607 10.9529 16.108L10.4446 15.0962ZM12.5257 7.85536C12.5257 8.98882 11.6069 9.90767 10.4734 9.90767V11.04C12.2322 11.04 13.658 9.61418 13.658 7.85536H12.5257ZM10.4734 5.80304C11.6069 5.80304 12.5257 6.72189 12.5257 7.85536H13.658C13.658 6.09654 12.2322 4.67073 10.4734 4.67073V5.80304ZM8.42109 7.85536C8.42109 6.72189 9.33994 5.80304 10.4734 5.80304V4.67073C8.71458 4.67073 7.28877 6.09654 7.28877 7.85536H8.42109ZM10.4734 9.90767C9.33994 9.90767 8.42109 8.98882 8.42109 7.85536H7.28877C7.28877 9.61418 8.71458 11.04 10.4734 11.04V9.90767Z" fill="#5F5F5F"/>
<path d="M17.2771 15.2743C17.9665 15.6724 18.3295 16.1239 18.3295 16.5836C18.3295 17.0432 17.9665 17.4947 17.2771 17.8928C16.5876 18.2909 15.596 18.6214 14.4018 18.8512C13.2076 19.081 11.853 19.202 10.4741 19.202C9.09516 19.202 7.74054 19.081 6.54636 18.8512C5.35219 18.6214 4.36054 18.2909 3.67108 17.8928C2.98162 17.4947 2.61865 17.0432 2.61865 16.5836C2.61865 16.1239 2.98162 15.6724 3.67108 15.2743" stroke="#5F5F5F" stroke-width="1.13231" stroke-linecap="round"/>
</svg>
