<svg width="217" height="52" viewBox="0 0 217 52" fill="none" xmlns="http://www.w3.org/2000/svg">
<path d="M30.2891 8.57119V13.0091H34.7357V8.57119H30.2891ZM0.64209 0.459961V34.4174H17.6639V29.9885H5.08869V4.88879H30.2891V7.06325H34.7357V0.459961H0.64209ZM19.1719 29.9885V34.4174H23.6185V29.9885H19.1719ZM30.2891 14.4567V29.9885H25.0825V34.4174H34.7357V14.4522L30.2891 14.4567Z" fill="#C1C2C2"/>
<path d="M39.93 23.1983V38.1089H25.0928V42.5377H44.3811V23.1983H39.93ZM39.93 17.438V21.8683H44.3766V17.438H39.93ZM10.2769 8.58032V28.4761H14.7235V13.0092H39.93V15.9602H44.3766V8.58032H10.2769ZM14.7235 38.1089V36.0159H10.2769V42.5377H19.1776V38.1089H14.7235ZM17.5622 38.1089V42.5377H26.7476V38.1089H17.5622Z" fill="#FE0182"/>
<path d="M30.2891 17.438V21.8683H39.9303V17.438H30.2891ZM19.1719 17.438V51.3954H53.2655V17.438H19.1719ZM48.8189 46.9666H23.6185V42.5377H19.1779V38.1089H23.6185V21.8683H48.8189V46.9666ZM34.7388 17.438V21.8683H39.9303V17.438H34.7388Z" fill="#323232"/>
<path d="M62.981 28.7278V4.75146H78.3858V8.99934H67.4851V14.1022H75.9438V18.3501H67.4851V24.4814H78.7295V28.7278H62.981Z" fill="#323232"/>
<path d="M93.1061 29.2074C90.6646 29.2074 88.5152 28.6907 86.6581 27.6572C84.8277 26.6474 83.3237 25.1395 82.322 23.3098C81.2844 21.443 80.7661 19.2535 80.7671 16.7412C80.7681 14.229 81.3036 12.04 82.3734 10.1741C83.4093 8.33849 84.9415 6.82914 86.7958 5.81768C88.6762 4.78424 90.8256 4.26751 93.2439 4.26751C94.4195 4.25609 95.5919 4.39135 96.7337 4.67013C97.6805 4.89893 98.5979 5.23487 99.468 5.67141L98.9865 9.85143C98.1175 9.45232 97.2178 9.12304 96.2961 8.86674C95.2896 8.59844 94.251 8.46856 93.2091 8.48071C91.5235 8.48071 90.1165 8.83256 88.9881 9.53627C87.8641 10.2387 86.9751 11.258 86.434 12.4647C85.8617 13.7103 85.5755 15.1317 85.5755 16.7292C85.5755 18.3266 85.8561 19.7481 86.4173 20.9936C86.9445 22.1985 87.822 23.2185 88.9366 23.9221C90.0539 24.6258 91.4438 24.9776 93.1061 24.9776C94.1559 24.991 95.2027 24.8647 96.2189 24.6021C97.1648 24.3395 98.0899 24.0073 98.9865 23.6084L99.468 27.7869C98.511 28.2265 97.5117 28.5681 96.4854 28.8063C95.3786 29.0709 94.2444 29.2055 93.1061 29.2074Z" fill="#323232"/>
<path d="M113.259 29.2075C110.965 29.2075 108.925 28.6907 107.138 27.6573C105.353 26.6291 103.893 25.1229 102.925 23.3099C101.907 21.4421 101.398 19.252 101.398 16.7398C101.398 14.2275 101.909 12.0385 102.929 10.1727C103.896 8.35763 105.354 6.84888 107.138 5.81774C108.927 4.7843 110.967 4.26758 113.259 4.26758C115.551 4.26758 117.592 4.7843 119.38 5.81774C121.165 6.84701 122.624 8.35423 123.592 10.1682C124.613 12.035 125.123 14.224 125.123 16.7353C125.123 19.2465 124.613 21.438 123.592 23.3099C122.624 25.1234 121.165 26.6301 119.38 27.6588C117.593 28.6923 115.552 29.2085 113.259 29.2075ZM113.259 24.9611C114.864 24.9611 116.205 24.6092 117.282 23.9055C118.362 23.1927 119.205 22.176 119.704 20.9846C120.243 19.7461 120.513 18.3332 120.513 16.7458C120.513 15.1585 120.243 13.7455 119.704 12.507C119.205 11.3161 118.362 10.2999 117.282 9.58761C116.205 8.8839 114.864 8.53204 113.259 8.53204C111.654 8.53204 110.313 8.8839 109.235 9.58761C108.154 10.2998 107.311 11.316 106.812 12.507C106.274 13.7465 106.004 15.1595 106.004 16.7458C106.004 18.3322 106.274 19.7451 106.812 20.9846C107.311 22.1761 108.154 23.1928 109.235 23.9055C110.313 24.6092 111.654 24.9636 113.259 24.9686V24.9611Z" fill="#323232"/>
<path d="M135.917 19.6908V16.4668H146.579V19.6908H135.917Z" fill="#323232"/>
<path d="M163.501 28.7278V8.99934H156.688V4.75146H174.705V8.99934H167.892V28.7278H163.501Z" fill="#323232"/>
<path d="M177.875 28.7278V4.75146H193.281V8.99934H182.381V14.1022H190.841V18.3501H182.381V24.4814H193.627V28.7278H177.875Z" fill="#323232"/>
<path d="M197.408 28.7278V4.75146H201.809V28.7278H197.408ZM211.061 28.7278L202.155 16.061L211.061 4.75146H216.22L207.243 16.061L216.22 28.7278H211.061Z" fill="#323232"/>
<path d="M120.8 51.5537V39.1523H122.641L128.155 48.3116V39.1523H129.82V51.5537H128.347L122.459 41.8802V51.5537H120.8Z" fill="#323232"/>
<path d="M134.381 51.5537V39.1523H141.519V40.6603H136.045V44.3155H140.376V45.8235H136.045V50.0457H141.671V51.5537H134.381Z" fill="#323232"/>
<path d="M147.616 51.5537L144.325 39.1523H146.085L148.523 49.3219L151.209 39.3996H153.026L155.713 49.3219L158.149 39.1523H159.91L156.62 51.5537H154.803L152.117 41.6676L149.45 51.5537H147.616Z" fill="#323232"/>
<path d="M171.593 51.5537V46.1854L167.546 39.1523H169.415L172.785 45.1585H172.057L175.409 39.1523H177.277L173.257 46.1854V51.5537H171.593Z" fill="#323232"/>
<path d="M185.13 51.801C184.096 51.8256 183.077 51.5523 182.195 51.0142C181.313 50.476 180.606 49.6957 180.158 48.767C179.667 47.8019 179.421 46.6639 179.421 45.353C179.421 44.0421 179.667 42.9036 180.158 41.9375C180.614 41.0114 181.321 40.231 182.199 39.6852C183.078 39.1394 184.092 38.8501 185.128 38.8501C186.163 38.8501 187.178 39.1394 188.056 39.6852C188.935 40.231 189.642 41.0114 190.098 41.9375C190.587 42.9026 190.832 44.0411 190.832 45.353C190.832 46.6649 190.587 47.8029 190.098 48.767C189.652 49.6964 188.946 50.4775 188.064 51.0159C187.183 51.5543 186.164 51.8269 185.13 51.801ZM185.13 50.1724C186.002 50.1724 186.728 49.9583 187.309 49.53C187.902 49.0866 188.356 48.484 188.617 47.7929C189.198 46.2173 189.198 44.4872 188.617 42.9117C188.355 42.2207 187.9 41.6186 187.306 41.176C186.721 40.7478 185.996 40.5336 185.13 40.5336C184.264 40.5336 183.539 40.7478 182.956 41.176C182.361 41.6192 181.905 42.2217 181.64 42.9132C181.055 44.488 181.055 46.2196 181.64 47.7944C181.905 48.4862 182.362 49.0886 182.958 49.5315C183.539 49.9588 184.263 50.1724 185.13 50.1724Z" fill="#323232"/>
<path d="M194.771 51.5536V39.1523H198.39C199.158 39.1349 199.921 39.275 200.631 39.564C201.24 39.8163 201.754 40.2532 202.1 40.8126C202.443 41.3705 202.615 42.0777 202.615 42.9343C202.633 43.6457 202.451 44.3481 202.091 44.9624C201.726 45.5493 201.201 46.0202 200.577 46.3196L203.21 51.5552H201.217L198.843 46.7101C198.801 46.7101 198.751 46.7101 198.692 46.7177C198.632 46.7237 198.573 46.7267 198.513 46.7267H196.477V51.5521L194.771 51.5536ZM196.477 45.2293H198.309C199.187 45.2293 199.835 45.0283 200.253 44.6262C200.671 44.224 200.879 43.6601 200.879 42.9343C200.879 42.2014 200.671 41.6374 200.253 41.2423C199.835 40.8473 199.187 40.6502 198.31 40.6512H196.477V45.2293Z" fill="#323232"/>
<path d="M206.992 51.5537V39.1523H208.658V51.5537H206.992ZM213.094 51.5537L208.788 44.9805L213.094 39.1523H215.022L210.632 44.9624L215.044 51.5537H213.094Z" fill="#323232"/>
<path d="M46.6374 21.6902H37.7441V21.8681H46.6374V21.6902Z" fill="#323232"/>
<path d="M23.6183 27.8171H23.5684V36.6748H23.6183V27.8171Z" fill="#323232"/>
<path d="M19.1779 27.8171H19.1719V36.6748H19.1779V27.8171Z" fill="#323232"/>
<path d="M46.6374 17.438H37.7441V17.4681H46.6374V17.438Z" fill="#323232"/>
<path d="M20.3995 38.127H17.6743V42.5H20.3995V38.127Z" fill="#FE0182"/>
</svg>
