<svg width="94" height="94" viewBox="0 0 94 94" fill="none" xmlns="http://www.w3.org/2000/svg">
<path d="M89.2023 65.1699C84.5947 60.5724 77.6234 59.1566 71.5825 61.5058L68.9377 58.8669C69.1476 58.7089 69.3497 58.5357 69.5408 58.345L76.1397 51.7604C77.2214 50.6813 77.8169 49.242 77.8169 47.7075C77.8169 46.1731 77.2214 44.7338 76.1397 43.6546C74.9405 42.4582 73.3389 41.9034 71.7657 41.9888C71.805 41.7007 71.8263 41.4082 71.8263 41.1123C71.8263 39.411 71.1652 37.8158 69.9647 36.6206C68.8 35.4587 67.2926 34.8426 65.7642 34.7719C66.4931 32.56 65.9809 30.0162 64.2349 28.2696C62.8075 26.8453 60.8652 26.2426 59.0003 26.4581C59.0275 26.2173 59.0431 25.9736 59.0431 25.7274C59.0431 24.0261 58.3832 22.4309 57.1853 21.2356C54.7054 18.7612 50.6703 18.7614 48.1904 21.2356L43.9727 25.444L43.6463 25.1183C42.0678 23.5431 39.4964 23.5453 37.9146 25.1236L36.515 26.5202L32.4358 22.4465C34.7894 16.4164 33.3694 9.461 28.7611 4.86303C24.9245 1.03486 19.429 -0.646075 14.0634 0.366963C13.2955 0.511447 10.959 0.95114 10.4794 2.73892C10.0106 4.48741 11.6779 5.92068 12.4794 6.60951C12.5606 6.67927 19.0649 13.157 19.0649 13.157C20.7538 14.8421 20.8672 17.5545 19.3396 19.3727C17.5151 20.8989 14.7927 20.7862 13.1014 19.0986C13.1014 19.0986 6.6094 12.6086 6.53927 12.5275C5.84879 11.7279 4.4113 10.065 2.66281 10.5344C0.875395 11.0151 0.434784 13.3452 0.290117 14.1102C-0.725308 19.468 0.959662 24.9529 4.79775 28.7823C9.40545 33.3796 16.3765 34.7954 22.4176 32.4464L27.1402 37.1584C26.5638 38.6476 26.295 40.2867 26.3936 41.9328C26.6176 45.6271 24.6592 49.2506 19.845 54.0494L14.8303 59.0529C13.133 58.1823 10.9946 58.4538 9.57435 59.8708L2.551 66.8785C1.69989 67.7276 1.23137 68.8598 1.23137 70.0665C1.23137 71.2732 1.70007 72.4054 2.55082 73.2543L21.9456 92.6058C22.8252 93.4834 23.9807 93.9221 25.1362 93.9221C26.2917 93.9221 27.4472 93.4834 28.3269 92.6056L35.3503 85.5979C36.2014 84.7488 36.6699 83.6166 36.6699 82.4099C36.6699 81.6803 36.4975 80.9784 36.174 80.3495L44.7045 71.838C47.233 69.3153 47.6439 69.3836 50.3221 69.8306C50.7728 69.9059 51.2837 69.9913 51.8585 70.0731C54.1963 70.4089 56.9109 69.2211 58.4512 68.3984L61.5641 71.5053C60.7424 73.6138 60.3609 75.9072 60.4572 78.1956C60.4883 78.9357 61.098 79.5147 61.8318 79.5147C61.8512 79.5147 61.871 79.5143 61.8907 79.5134C62.6504 79.4815 63.2404 78.8398 63.2085 78.08C63.1169 75.8986 63.5443 73.7148 64.4448 71.7647C64.6867 71.2404 64.576 70.6208 64.1672 70.2128L42.1342 48.224C43.0303 46.5355 43.5376 44.7396 43.5934 42.9765C45.1792 44.3398 47.2652 45.4505 49.3044 45.9987C50.9744 46.4476 52.5369 46.5206 53.94 46.2302C53.9399 46.2458 53.9389 46.2612 53.9389 46.2768C53.94 47.9757 54.6015 49.5693 55.7992 50.761C56.9259 51.888 58.4067 52.5383 59.997 52.6112C59.8334 53.1485 59.7486 53.7136 59.7486 54.2921C59.7486 55.8265 60.3441 57.2659 61.4257 58.3448C62.5444 59.461 64.0135 60.0191 65.4831 60.0189C65.7069 60.0189 65.9305 60.0044 66.1532 59.9784L70.2928 64.1087C70.7 64.515 71.3167 64.6253 71.8393 64.3856C77.0347 62.0035 83.231 63.1017 87.257 67.1188C90.4491 70.3035 91.8499 74.8679 91.0041 79.3293C90.8625 80.0767 90.7021 80.4681 90.5987 80.6594C90.4008 80.5296 90.076 80.2391 89.5453 79.6243C89.4261 79.4862 82.8438 72.9037 82.8438 72.9037C80.1118 70.1774 75.6916 70.0278 72.7808 72.5633C72.7339 72.6043 72.6901 72.648 72.6489 72.6948C70.1055 75.6013 70.2555 80.0155 72.9902 82.7442L80.7588 90.4754C80.5653 90.579 80.1724 90.7384 79.4267 90.8788C74.9533 91.7224 70.3765 90.3251 67.1859 87.1413C66.1738 86.127 65.333 84.9735 64.6867 83.7126C64.3398 83.0357 63.5103 82.7686 62.8332 83.1154C62.1565 83.4624 61.8892 84.2922 62.2362 84.9689C63.013 86.4842 64.0223 87.8696 65.2386 89.0884C68.34 92.1828 72.5243 93.8744 76.8483 93.8742C77.874 93.8742 78.9078 93.7789 79.9365 93.5849C80.7044 93.4404 83.0409 93.0007 83.5205 91.2129C83.9894 89.4646 82.322 88.0312 81.5205 87.3423C81.4393 87.2726 74.935 80.7949 74.935 80.7949C73.2462 79.1097 73.1327 76.3974 74.6603 74.5791C76.4848 73.0529 79.2073 73.1659 80.8985 74.8532C80.8985 74.8532 87.3905 81.3432 87.4606 81.4244C88.1513 82.2241 89.5897 83.8876 91.3371 83.4174C93.1242 82.9368 93.5648 80.6067 93.7094 79.8417C94.7254 74.4844 93.0403 68.9995 89.2023 65.1699ZM62.2885 30.2182C63.6675 31.5975 63.6891 33.8549 62.3388 35.2553L57.9129 39.6715C57.153 38.5705 52.972 34.4236 52.972 34.4236L57.1853 30.2195C58.5929 28.815 60.8828 28.8154 62.2885 30.2182ZM50.1357 23.1855C51.5431 21.7812 53.8336 21.7816 55.2402 23.1855C55.9169 23.8605 56.2894 24.7634 56.2894 25.7278C56.2894 26.6922 55.9169 27.5951 55.2402 28.2701L51.0225 32.4785L45.9222 27.3896L50.1357 23.1855ZM23.7071 29.8431C23.3003 29.437 22.6838 29.3267 22.1608 29.5663C16.9649 31.9481 10.769 30.8501 6.74305 26.833C3.55101 23.6483 2.15023 19.0839 2.99602 14.6226C3.13757 13.8752 3.29802 13.4838 3.40138 13.2925C3.59929 13.4223 3.92406 13.7127 4.45481 14.3275C4.57396 14.4656 11.1563 21.0482 11.1563 21.0482C13.8887 23.7746 18.3087 23.9242 21.2193 21.3885C21.2661 21.3478 21.31 21.3037 21.3512 21.2571C23.8946 18.3505 23.7446 13.9363 21.0099 11.2077C21.0099 11.2077 13.3726 3.67412 13.2413 3.47639C13.4348 3.37285 13.8277 3.2135 14.5734 3.07305C19.0462 2.22891 23.6234 3.62675 26.8164 6.81274C30.8408 10.8282 31.9414 17.0072 29.5551 22.1886C29.3139 22.7126 29.4248 23.3313 29.8329 23.7388L34.566 28.4657L29.4353 33.5848C29.1057 33.9138 28.8028 34.2707 28.5221 34.6469L23.7071 29.8431ZM55.8007 41.7789C55.4442 42.1347 55.1365 42.5263 54.8782 42.9445C51.9452 44.7618 47.3076 42.76 44.9997 40.5369L44.7135 40.2518C42.6038 38.1494 41.4818 37.03 41.3782 36.9239C41.3764 36.9221 41.3745 36.9206 41.3727 36.9188C41.3676 36.9136 41.3628 36.9081 41.3577 36.903C41.3503 36.8957 41.343 36.8903 41.3356 36.8837C40.8091 36.3796 39.9747 36.3708 39.439 36.8771C38.8864 37.3996 38.8621 38.2711 39.3846 38.8237C39.3896 38.8288 39.3979 38.8375 39.4124 38.8521C40.3521 39.7899 40.8489 41.1035 40.8489 42.6508C40.8489 45.0848 39.6051 47.7789 37.5216 49.8577C36.9833 50.3949 36.9824 51.2666 37.5194 51.8048C37.7885 52.0743 38.1414 52.2093 38.4942 52.2093C38.8462 52.2093 39.1981 52.0753 39.4669 51.807C39.8658 51.409 40.2356 50.9926 40.5816 50.5647L56.3996 66.3511C54.7961 67.1036 53.2441 67.4902 52.2486 67.347C51.7047 67.2694 51.2108 67.1869 50.7752 67.1142C47.5846 66.5818 46.1548 66.5005 42.7592 69.8884L34.3776 78.2514L27.452 71.3414C26.9137 70.8042 26.0418 70.8051 25.5048 71.3436C24.9676 71.8818 24.9688 72.7537 25.5072 73.2907L33.4024 81.1683L33.4032 81.1692L33.4041 81.1701L33.4055 81.1716C33.7349 81.5002 33.9163 81.9401 33.9163 82.4101C33.9163 82.88 33.7349 83.3199 33.4054 83.6485L26.3816 90.6565C25.6947 91.3418 24.5772 91.3416 23.8905 90.6565L4.49593 71.3052C4.16658 70.9764 3.98519 70.5365 3.98519 70.0667C3.98519 69.5969 4.16658 69.1568 4.49612 68.8282L11.5195 61.8203C12.2064 61.1352 13.3239 61.1353 14.0106 61.8203L20.9555 68.7498C21.494 69.2868 22.3657 69.2861 22.9028 68.7476C23.44 68.2094 23.4389 67.3375 22.9006 66.8005L16.9324 60.8456L21.7896 55.9991C27.2197 50.5862 29.4187 46.3297 29.1423 41.7672C29.0029 39.4389 29.8605 37.0504 31.3798 35.534L39.8596 27.0733C40.36 26.5736 41.2034 26.5716 41.701 27.068L42.9976 28.3617L51.9714 37.3157C52.2136 37.5573 52.4552 37.7963 52.6935 38.0321C53.8339 39.1602 55.478 40.7868 55.925 41.6541L55.8007 41.7789ZM60.2982 49.8649C59.3304 49.8649 58.4244 49.4918 57.7445 48.8116C57.0671 48.1375 56.6935 47.2366 56.6928 46.2752C56.6922 45.3111 57.0662 44.4066 57.7456 43.7284L62.9153 38.5705C63.6188 37.8685 64.5432 37.5175 65.4674 37.5175C66.3917 37.5175 67.3161 37.8685 68.0196 38.5705L68.0211 38.5718C68.6991 39.2467 69.0727 40.149 69.0727 41.1129C69.0727 42.076 68.6996 42.9779 68.0209 43.6541L68.0194 43.6555L62.849 48.8144C62.1719 49.4918 61.2659 49.8649 60.2982 49.8649ZM63.371 56.3958C62.8108 55.8372 62.5026 55.0901 62.5026 54.2925C62.5026 53.4948 62.811 52.7477 63.3713 52.1887L69.9651 45.6045C70.5481 45.0227 71.3141 44.7319 72.08 44.7319C72.8459 44.7319 73.6119 45.0227 74.1949 45.6045C74.7549 46.1632 75.0633 46.9102 75.0633 47.7079C75.0633 48.5056 74.7549 49.2526 74.1949 49.8113L67.5961 56.3958C66.4308 57.5579 64.5353 57.5578 63.371 56.3958Z" fill="#504F50"/>
</svg>
