<svg width="51" height="51" viewBox="0 0 51 51" fill="none" xmlns="http://www.w3.org/2000/svg">
<path d="M49.4063 17.0975C49.4117 15.1084 49.0226 13.138 48.2614 11.3003C47.5002 9.46262 46.3821 7.79415 44.9717 6.39147L44.6085 6.02825C43.2058 4.61791 41.5373 3.49979 39.6996 2.7386C37.862 1.9774 35.8915 1.58826 33.9024 1.59368C33.0374 1.5948 32.2012 1.90505 31.5448 2.46846C30.8885 3.03187 30.455 3.81133 30.3228 4.6662H30.3227L28.7953 15.1406H26.2969C25.7979 15.1403 25.3113 15.2963 24.9054 15.5866C24.4995 15.877 24.1947 16.2872 24.0338 16.7596C23.873 17.232 23.864 17.7429 24.0083 18.2206C24.1526 18.6984 24.4428 19.1189 24.8383 19.4233L22.7461 21.5156H19.9219C19.4229 21.5153 18.9363 21.6713 18.5304 21.9616C18.1245 22.252 17.8197 22.6622 17.6588 23.1346C17.498 23.607 17.489 24.1179 17.6333 24.5956C17.7776 25.0734 18.0678 25.4939 18.4633 25.7983L16.3711 27.8906H13.5469C13.0479 27.8903 12.5612 28.0463 12.1554 28.3366C11.7495 28.627 11.4447 29.0372 11.2838 29.5096C11.123 29.982 11.114 30.4929 11.2583 30.9706C11.4026 31.4484 11.6928 31.8689 12.0883 32.1733L9.99608 34.2656H7.1719C6.67177 34.2653 6.18416 34.422 5.7778 34.7136C5.37144 35.0051 5.0668 35.4168 4.90682 35.8907C4.74684 36.3645 4.73958 36.8767 4.88606 37.3549C5.03254 37.8331 5.32538 38.2532 5.72331 38.5562C5.68978 38.6036 5.66152 38.6545 5.63905 38.7081L4.83665 40.6406H4.78128C4.30416 40.6402 3.83788 40.7827 3.4425 41.0498C3.04711 41.3168 2.74075 41.6961 2.56287 42.1388C2.385 42.5816 2.34377 43.0674 2.44449 43.5337C2.54521 44.0001 2.78327 44.4256 3.12799 44.7555L1.65467 48.3037C1.59419 48.4493 1.57829 48.6097 1.60899 48.7644C1.63969 48.9191 1.71561 49.0612 1.82714 49.1727C1.93866 49.2843 2.08077 49.3602 2.23548 49.3909C2.39018 49.4216 2.55052 49.4058 2.69619 49.3453L12.1452 45.4218H15.1407C15.6397 45.4221 16.1263 45.2661 16.5322 44.9757C16.9381 44.6854 17.2428 44.2752 17.4037 43.8028C17.5646 43.3304 17.5735 42.8195 17.4292 42.3417C17.285 41.864 16.9947 41.4434 16.5992 41.139L18.6915 39.0468H21.5157C22.0147 39.0471 22.5013 38.8911 22.9072 38.6007C23.3131 38.3104 23.6178 37.9002 23.7787 37.4278C23.9396 36.9554 23.9485 36.4445 23.8042 35.9667C23.66 35.489 23.3697 35.0684 22.9742 34.764L25.0665 32.6718H27.8907C28.3897 32.6721 28.8763 32.5161 29.2822 32.2257C29.6881 31.9354 29.9928 31.5252 30.1537 31.0528C30.3146 30.5804 30.3235 30.0695 30.1792 29.5917C30.035 29.114 29.7447 28.6934 29.3492 28.389L31.4415 26.2968H34.2657C34.7413 26.2971 35.2061 26.1555 35.6008 25.89C35.9954 25.6246 36.3018 25.2473 36.4807 24.8067C36.6597 24.366 36.703 23.882 36.6052 23.4165C36.5074 22.9511 36.2729 22.5255 35.9317 22.1941L46.3338 20.6771C47.1886 20.5449 47.9681 20.1115 48.5315 19.4551C49.0949 18.7987 49.4052 17.9626 49.4063 17.0975ZM26.2969 16.7343H29.1544L30.7481 18.3281H26.2969C26.0856 18.3281 25.8829 18.2441 25.7334 18.0947C25.584 17.9452 25.5 17.7425 25.5 17.5312C25.5 17.3198 25.584 17.1172 25.7334 16.9677C25.8829 16.8183 26.0856 16.7343 26.2969 16.7343ZM26.5939 19.9218H32.6719C32.8295 19.9218 32.9836 19.875 33.1146 19.7875C33.2456 19.6999 33.3478 19.5755 33.4081 19.4299C33.4684 19.2842 33.4842 19.124 33.4535 18.9694C33.4227 18.8149 33.3468 18.6729 33.2354 18.5614L30.3306 15.6566L31.1239 10.2164C31.8756 12.3645 33.1035 14.3147 34.7158 15.9209L35.0791 16.2841C36.6852 17.8964 38.6354 19.1243 40.7834 19.876L34.9476 20.7271C34.8309 20.744 34.7194 20.7866 34.6212 20.8519C34.523 20.9172 34.4406 21.0034 34.3799 21.1045L33.9687 21.5156H25.0001L26.5939 19.9218ZM3.86621 47.1337L4.58084 45.4128C4.64699 45.4183 4.71372 45.4218 4.78128 45.4218H7.98916L3.86621 47.1337ZM15.1407 43.8281H4.78128C4.56993 43.8281 4.36724 43.7441 4.2178 43.5947C4.06836 43.4452 3.9844 43.2425 3.9844 43.0312C3.9844 42.8198 4.06836 42.6171 4.2178 42.4677C4.36724 42.3183 4.56993 42.2343 4.78128 42.2343H15.1407C15.352 42.2343 15.5547 42.3183 15.7041 42.4677C15.8536 42.6171 15.9375 42.8198 15.9375 43.0312C15.9375 43.2425 15.8536 43.4452 15.7041 43.5947C15.5547 43.7441 15.352 43.8281 15.1407 43.8281ZM14.8437 40.6406H6.56233L7.05031 39.4653L7.46884 39.0468H16.4374L14.8437 40.6406ZM21.5157 37.4531H7.1719C6.96056 37.4531 6.75787 37.3691 6.60843 37.2197C6.45898 37.0702 6.37503 36.8675 6.37503 36.6562C6.37503 36.4448 6.45898 36.2421 6.60843 36.0927C6.75787 35.9433 6.96056 35.8593 7.1719 35.8593H21.5157C21.727 35.8593 21.9297 35.9433 22.0791 36.0927C22.2286 36.2421 22.3125 36.4448 22.3125 36.6562C22.3125 36.8675 22.2286 37.0702 22.0791 37.2197C21.9297 37.3691 21.727 37.4531 21.5157 37.4531ZM21.2187 34.2656H12.2501L13.8439 32.6718H22.8124L21.2187 34.2656ZM27.8907 31.0781H13.5469C13.3356 31.0781 13.1329 30.9941 12.9834 30.8447C12.834 30.6952 12.75 30.4925 12.75 30.2812C12.75 30.0698 12.834 29.8671 12.9834 29.7177C13.1329 29.5683 13.3356 29.4843 13.5469 29.4843H27.8907C28.102 29.4843 28.3047 29.5683 28.4541 29.7177C28.6036 29.8671 28.6875 30.0698 28.6875 30.2812C28.6875 30.4925 28.6036 30.6952 28.4541 30.8447C28.3047 30.9941 28.102 31.0781 27.8907 31.0781ZM27.5937 27.8906H18.6251L20.2189 26.2968H29.1874L27.5937 27.8906ZM34.2657 24.7031H19.9219C19.7106 24.7031 19.5079 24.6191 19.3584 24.4697C19.209 24.3202 19.125 24.1175 19.125 23.9062C19.125 23.6948 19.209 23.4922 19.3584 23.3427C19.5079 23.1933 19.7106 23.1093 19.9219 23.1093H34.2657C34.477 23.1093 34.6797 23.1933 34.8291 23.3427C34.9786 23.4922 35.0625 23.6948 35.0625 23.9062C35.0625 24.1175 34.9786 24.3202 34.8291 24.4697C34.6797 24.6191 34.477 24.7031 34.2657 24.7031ZM45.7851 19.1249C44.0054 19.1298 42.2424 18.7816 40.5982 18.1005C38.9539 17.4195 37.4611 16.419 36.2061 15.1571L35.8429 14.7939C34.581 13.5389 33.5805 12.0461 32.8994 10.4018C32.2183 8.75756 31.8702 6.99455 31.875 5.21484C31.8756 4.67732 32.0894 4.16201 32.4695 3.78193C32.8496 3.40185 33.3649 3.18805 33.9024 3.18743C35.6821 3.18257 37.4452 3.53075 39.0894 4.21183C40.7337 4.89291 42.2265 5.89336 43.4815 7.15527L43.8447 7.5185C45.1066 8.77349 46.1071 10.2663 46.7881 11.9106C47.4692 13.5548 47.8174 15.3178 47.8125 17.0975C47.8119 17.635 47.5981 18.1504 47.218 18.5304C46.838 18.9105 46.3226 19.1243 45.7851 19.1249Z" fill="#504F50"/>
<path d="M42.9904 9.01757C43.0372 8.87717 43.044 8.7265 43.01 8.58245C42.976 8.43841 42.9026 8.30667 42.7979 8.20202C42.6933 8.09737 42.5615 8.02392 42.4175 7.98992C42.2734 7.95592 42.1228 7.9627 41.9824 8.00951L39.9615 8.68314L35.5045 5.71188C35.3513 5.60968 35.1673 5.56373 34.984 5.58188C34.8007 5.60002 34.6293 5.68113 34.499 5.81139C34.3687 5.94166 34.2876 6.11304 34.2695 6.29637C34.2514 6.4797 34.2973 6.66365 34.3995 6.81692L37.3708 11.2739L36.6971 13.2947C36.6503 13.4352 36.6435 13.5858 36.6775 13.7299C36.7115 13.8739 36.785 14.0056 36.8896 14.1103C36.9943 14.215 37.126 14.2884 37.2701 14.3224C37.4141 14.3564 37.5648 14.3496 37.7052 14.3028L39.7261 13.6292L44.183 16.6004C44.3363 16.7026 44.5202 16.7486 44.7036 16.7304C44.8869 16.7123 45.0583 16.6312 45.1885 16.5009C45.3188 16.3707 45.3999 16.1993 45.4181 16.0159C45.4362 15.8326 45.3903 15.6487 45.2881 15.4954L42.3168 11.0385L42.9904 9.01757ZM40.2858 12.0869C40.1848 12.0196 40.0698 11.9762 39.9495 11.9601C39.8292 11.944 39.7069 11.9555 39.5917 11.9939L38.7132 12.2868L39.0061 11.4082C39.0444 11.2931 39.056 11.1707 39.0398 11.0504C39.0237 10.9301 38.9804 10.8151 38.9131 10.7141L37.9357 9.24811L39.4018 10.2254C39.5028 10.2927 39.6178 10.336 39.738 10.3521C39.8583 10.3683 39.9807 10.3567 40.0958 10.3184L40.9744 10.0255L40.6815 10.9041C40.6432 11.0193 40.6316 11.1416 40.6477 11.2619C40.6638 11.3822 40.7072 11.4972 40.7745 11.5982L41.7518 13.0642L40.2858 12.0869Z" fill="#FE0182"/>
</svg>
