<svg width="100" height="100" viewBox="0 0 100 100" fill="none" xmlns="http://www.w3.org/2000/svg">
<path d="M53.3109 93.6013H53.2974C46.3644 93.5314 39.5392 91.8766 33.3441 88.7636C27.1489 85.6505 21.7478 81.1617 17.5541 75.6405C13.3603 70.1193 10.485 63.712 9.14809 56.9088C7.81116 50.1056 8.04805 43.0867 9.84062 36.3891C9.88296 36.2141 9.95987 36.0493 10.0668 35.9043C10.1738 35.7594 10.3086 35.6374 10.4634 35.5453C10.6182 35.4533 10.7898 35.3931 10.9682 35.3683C11.1466 35.3435 11.3281 35.3547 11.5022 35.4011C11.6762 35.4475 11.8392 35.5282 11.9816 35.6384C12.124 35.7487 12.2429 35.8863 12.3313 36.0432C12.4197 36.2001 12.4759 36.3731 12.4966 36.552C12.5172 36.7309 12.5018 36.9122 12.4514 37.0851C10.765 43.3845 10.5418 49.9863 11.7989 56.3853C13.056 62.7843 15.7602 68.8109 19.7045 74.0042C23.6488 79.1974 28.7287 83.4197 34.5557 86.3479C40.3826 89.2761 46.8021 90.8327 53.3231 90.8986C53.6814 90.9002 54.0245 91.0441 54.2768 91.2987C54.5291 91.5532 54.6699 91.8976 54.6683 92.256C54.6667 92.6144 54.5228 92.9575 54.2682 93.2098C54.0136 93.4621 53.6693 93.6029 53.3109 93.6013Z" fill="#504F50"/>
<path d="M16.5819 25.7513C16.3394 25.7512 16.1014 25.6858 15.8929 25.562C15.6844 25.4381 15.513 25.2605 15.3968 25.0477C15.2805 24.8348 15.2237 24.5946 15.2323 24.3523C15.2408 24.1099 15.3145 23.8744 15.4454 23.6703C17.2192 20.9039 19.2866 18.3372 21.6116 16.0148C25.832 11.7943 30.8423 8.44639 36.3565 6.16224C41.8707 3.87809 47.7809 2.70245 53.7495 2.70245C59.7181 2.70245 65.6282 3.87809 71.1424 6.16224C76.6567 8.44639 81.667 11.7943 85.8873 16.0148C86.1335 16.2697 86.2697 16.6111 86.2666 16.9654C86.2635 17.3197 86.1214 17.6586 85.8708 17.9092C85.6203 18.1597 85.2814 18.3019 84.927 18.3049C84.5727 18.308 84.2314 18.1718 83.9765 17.9257C80.007 13.9562 75.2946 10.8074 70.1082 8.65912C64.9219 6.51084 59.3632 5.40514 53.7495 5.40514C48.1358 5.40514 42.5771 6.51084 37.3907 8.65912C32.2043 10.8074 27.4919 13.9562 23.5224 17.9257C21.3355 20.1112 19.3905 22.526 17.7211 25.1284C17.5988 25.3195 17.4303 25.4768 17.2312 25.5856C17.0321 25.6945 16.8088 25.7515 16.5819 25.7513Z" fill="#504F50"/>
<path d="M97.809 48.3108C97.4566 48.3109 97.1181 48.1734 96.8656 47.9275C96.6132 47.6816 96.4668 47.3468 96.4576 46.9946C96.2778 39.8598 94.3106 32.8841 90.736 26.7067C90.642 26.5532 90.5796 26.3825 90.5525 26.2046C90.5254 26.0266 90.5341 25.8451 90.5781 25.6705C90.6222 25.496 90.7006 25.332 90.8089 25.1882C90.9171 25.0444 91.053 24.9237 91.2086 24.8332C91.3641 24.7426 91.5362 24.684 91.7147 24.6609C91.8932 24.6377 92.0745 24.6505 92.248 24.6984C92.4215 24.7463 92.5837 24.8283 92.7251 24.9398C92.8664 25.0512 92.9841 25.1897 93.0712 25.3473C96.8739 31.9169 98.9671 39.3359 99.159 46.9243C99.1684 47.2825 99.0352 47.6298 98.7886 47.8898C98.5421 48.1498 98.2023 48.3012 97.8441 48.3108H97.809Z" fill="#504F50"/>
<path d="M90.1351 74.4189C89.8885 74.4188 89.6467 74.3512 89.4358 74.2236C89.2249 74.0959 89.0529 73.913 88.9385 73.6946C88.8241 73.4762 88.7716 73.2307 88.7867 72.9846C88.8018 72.7386 88.884 72.5013 89.0243 72.2986C89.7324 71.2743 90.4094 70.181 91.0351 69.0486C91.1199 68.8913 91.235 68.7523 91.3738 68.6398C91.5127 68.5273 91.6724 68.4435 91.8439 68.3931C92.0154 68.3428 92.1951 68.3269 92.3727 68.3465C92.5504 68.3661 92.7223 68.4207 92.8787 68.5072C93.0351 68.5937 93.1728 68.7104 93.2837 68.8504C93.3947 68.9905 93.4768 69.1512 93.5253 69.3232C93.5738 69.4952 93.5877 69.6751 93.5661 69.8525C93.5446 70.0299 93.4881 70.2013 93.3999 70.3567C92.731 71.5729 92.0067 72.7378 91.2486 73.8351C91.1242 74.0153 90.9578 74.1626 90.7639 74.2643C90.5699 74.366 90.3541 74.4191 90.1351 74.4189Z" fill="#504F50"/>
<path d="M65.1754 92.1081C64.8379 92.1119 64.5111 91.9893 64.2594 91.7643C64.0077 91.5394 63.8493 91.2283 63.8154 90.8925C63.7815 90.5566 63.8746 90.2202 64.0763 89.9495C64.2779 89.6787 64.5736 89.4933 64.9052 89.4297C71.5894 87.6204 77.7329 84.2115 82.8052 79.4972C82.9343 79.3721 83.087 79.274 83.2545 79.2087C83.422 79.1434 83.6008 79.1121 83.7806 79.1168C83.9603 79.1214 84.1373 79.1619 84.3011 79.2358C84.465 79.3097 84.6125 79.4156 84.735 79.5472C84.8574 79.6788 84.9524 79.8336 85.0143 80.0024C85.0762 80.1712 85.1038 80.3506 85.0955 80.5302C85.0872 80.7098 85.0431 80.8859 84.9659 81.0482C84.8886 81.2106 84.7798 81.3559 84.6457 81.4756C79.229 86.511 72.663 90.1454 65.52 92.0621C65.4077 92.0925 65.2918 92.108 65.1754 92.1081Z" fill="#504F50"/>
<path d="M95.9338 62.3527C95.7964 62.3529 95.6598 62.3324 95.5284 62.2919C95.3589 62.2395 95.2013 62.1542 95.0647 62.0409C94.9281 61.9275 94.8151 61.7884 94.7323 61.6314C94.6495 61.4744 94.5984 61.3027 94.582 61.1259C94.5655 60.9492 94.5841 60.7709 94.6366 60.6014C95.0254 59.3371 95.3497 58.0539 95.6082 56.7568C95.6799 56.4055 95.8881 56.0972 96.1872 55.8995C96.4862 55.7018 96.8515 55.631 97.2028 55.7027C97.554 55.7744 97.8624 55.9827 98.06 56.2817C98.2577 56.5808 98.3285 56.9461 98.2568 57.2973C97.9568 58.7838 97.619 60.1216 97.2244 61.4027C97.1388 61.678 96.9673 61.9187 96.7351 62.0897C96.5029 62.2606 96.2222 62.3528 95.9338 62.3527Z" fill="#504F50"/>
<path d="M84.9324 18.3216H74.5379C74.1795 18.3216 73.8358 18.1792 73.5823 17.9258C73.3289 17.6724 73.1865 17.3287 73.1865 16.9703C73.1865 16.6118 73.3289 16.2681 73.5823 16.0147C73.8358 15.7613 74.1795 15.6189 74.5379 15.6189H83.5811V6.57566C83.5811 6.21726 83.7235 5.87353 83.9769 5.62011C84.2303 5.36668 84.574 5.2243 84.9324 5.2243C85.2908 5.2243 85.6346 5.36668 85.888 5.62011C86.1414 5.87353 86.2838 6.21726 86.2838 6.57566V16.9703C86.2838 17.3287 86.1414 17.6724 85.888 17.9258C85.6346 18.1792 85.2908 18.3216 84.9324 18.3216Z" fill="#504F50"/>
<path d="M16.3512 47.0919C16.1138 47.0921 15.8805 47.0298 15.6748 46.9112C15.4691 46.7926 15.2983 46.6219 15.1796 46.4162L10.658 38.5852L2.82688 43.1081C2.51667 43.2845 2.14929 43.331 1.80491 43.2375C1.46052 43.144 1.1671 42.9181 0.988676 42.6091C0.810248 42.3 0.761299 41.933 0.85251 41.588C0.94372 41.243 1.16769 40.9481 1.47553 40.7676L10.4769 35.5703C10.6306 35.4814 10.8004 35.4236 10.9765 35.4003C11.1525 35.3771 11.3315 35.3887 11.5031 35.4347C11.6746 35.4806 11.8355 35.5599 11.9764 35.668C12.1173 35.7762 12.2354 35.911 12.3242 36.0649L17.5201 45.0662C17.6387 45.2716 17.7011 45.5045 17.7012 45.7416C17.7012 45.9787 17.6389 46.2116 17.5205 46.417C17.402 46.6224 17.2316 46.793 17.0264 46.9117C16.8212 47.0304 16.5883 47.093 16.3512 47.0933V47.0919Z" fill="#504F50"/>
<path d="M74.1638 97.2973C73.9266 97.2973 73.6936 97.2348 73.4882 97.1162L64.4868 91.9203C64.3328 91.8316 64.1978 91.7135 64.0896 91.5727C63.9813 91.4318 63.9019 91.271 63.8558 91.0994C63.8097 90.9279 63.7979 90.7489 63.8211 90.5728C63.8443 90.3966 63.902 90.2268 63.9909 90.073L69.1895 81.0716C69.3687 80.7611 69.6639 80.5344 70.0102 80.4415C70.3566 80.3487 70.7256 80.3972 71.0361 80.5764C71.3467 80.7556 71.5733 81.0508 71.6662 81.3971C71.7591 81.7434 71.7106 82.1124 71.5314 82.423L67.0098 90.254L74.8409 94.7757C75.0985 94.9244 75.2998 95.154 75.4136 95.4288C75.5275 95.7036 75.5474 96.0084 75.4704 96.2957C75.3934 96.583 75.2238 96.8369 74.9878 97.018C74.7518 97.1991 74.4627 97.2973 74.1652 97.2973H74.1638Z" fill="#504F50"/>
<path d="M56.3511 78.3784H50.4051C49.9219 78.3779 49.4521 78.219 49.0677 77.9261C48.6833 77.6333 48.4055 77.2225 48.2767 76.7568L47.1956 72.7662C44.7448 72.1592 42.3986 71.189 40.2348 69.8879L36.647 71.9406C36.2266 72.1809 35.7388 72.2761 35.2589 72.2116C34.779 72.1472 34.3336 71.9265 33.9916 71.5838L29.77 67.3703C29.4281 67.0277 29.2081 66.5823 29.1439 66.1026C29.0797 65.6229 29.1748 65.1353 29.4146 64.7149L31.4673 61.127C30.1661 58.9633 29.1959 56.617 28.5889 54.1662L24.5997 53.0852C24.1311 52.9569 23.7179 52.6778 23.4238 52.2912C23.1297 51.9045 22.9712 51.4318 22.9727 50.946V45C22.9732 44.5168 23.1321 44.047 23.4249 43.6626C23.7178 43.2783 24.1285 43.0004 24.5943 42.8716L28.5848 41.7906C29.1919 39.3398 30.1621 36.9935 31.4632 34.8297L29.4105 31.2419C29.1704 30.8215 29.0753 30.3337 29.1398 29.8539C29.2042 29.374 29.4247 28.9287 29.7673 28.5865L33.9767 24.3757C34.3188 24.033 34.7643 23.8125 35.2442 23.7482C35.7242 23.684 36.2119 23.7796 36.6321 24.0203L40.22 26.073C42.3837 24.7718 44.73 23.8016 47.1808 23.1946L48.2619 19.2054C48.3883 18.7342 48.6671 18.318 49.0548 18.0218C49.4424 17.7255 49.9172 17.5658 50.4051 17.5676H56.3511C56.8343 17.5681 57.304 17.727 57.6884 18.0198C58.0728 18.3127 58.3506 18.7234 58.4794 19.1892L59.5605 23.1797C62.0113 23.7868 64.3575 24.757 66.5213 26.0581L70.1092 24.0054C70.5297 23.7656 71.0174 23.6706 71.4972 23.735C71.977 23.7995 72.4223 24.0198 72.7646 24.3622L76.9754 28.5716C77.3173 28.9142 77.5373 29.3596 77.6015 29.8393C77.6657 30.3191 77.5706 30.8066 77.3308 31.227L75.2781 34.8149C76.5792 36.9787 77.5494 39.3249 78.1565 41.7757L82.1456 42.8568C82.6169 42.9832 83.0331 43.262 83.3293 43.6497C83.6256 44.0373 83.7852 44.5121 83.7835 45V50.946C83.7829 51.4292 83.6241 51.899 83.3312 52.2833C83.0384 52.6677 82.6276 52.9456 82.1619 53.0743L78.1713 54.1554C77.5643 56.6062 76.5941 58.9525 75.2929 61.1162L77.3456 64.7041C77.5857 65.1245 77.6808 65.6123 77.6164 66.0921C77.5519 66.572 77.3314 67.0173 76.9889 67.3595L72.7754 71.5811C72.4329 71.9232 71.9875 72.1433 71.5077 72.2075C71.0279 72.2717 70.5403 72.1765 70.12 71.9365L66.5321 69.8838C64.3684 71.185 62.0221 72.1551 59.5713 72.7622L58.4902 76.7514C58.362 77.2199 58.0829 77.6332 57.6963 77.9273C57.3096 78.2214 56.8368 78.3799 56.3511 78.3784ZM50.774 75.6757H55.9713L57.17 71.2716C57.2351 71.0319 57.365 70.8148 57.5455 70.6441C57.7259 70.4734 57.95 70.3558 58.1929 70.3041C60.885 69.7303 63.4496 68.6696 65.7605 67.1743C65.9686 67.0404 66.2094 66.9662 66.4568 66.9598C66.7041 66.9533 66.9485 67.0149 67.1632 67.1379L71.1213 69.4014L74.7956 65.727L72.5321 61.7689C72.4092 61.5542 72.3476 61.3098 72.354 61.0625C72.3605 60.8151 72.4347 60.5743 72.5686 60.3662C74.0639 58.0553 75.1246 55.4907 75.6983 52.7987C75.75 52.5557 75.8677 52.3317 76.0384 52.1512C76.2091 51.9707 76.4262 51.8408 76.6659 51.7757L81.0808 50.5716V45.3743L76.6767 44.1757C76.437 44.1106 76.2199 43.9807 76.0492 43.8002C75.8785 43.6197 75.7608 43.3957 75.7092 43.1527C75.1354 40.4607 74.0747 37.8961 72.5794 35.5851C72.4455 35.3771 72.3713 35.1363 72.3649 34.8889C72.3584 34.6416 72.42 34.3972 72.5429 34.1824L74.8065 30.2243L71.1321 26.55L67.174 28.8135C66.9593 28.9364 66.7149 28.998 66.4676 28.9916C66.2202 28.9852 65.9794 28.911 65.7713 28.777C63.4604 27.2817 60.8958 26.2211 58.2038 25.6473C57.9608 25.5956 57.7368 25.478 57.5563 25.3073C57.3758 25.1366 57.2459 24.9195 57.1808 24.6797L55.9767 20.2703H50.7794L49.5808 24.6743C49.5157 24.9141 49.3857 25.1312 49.2053 25.3019C49.0248 25.4726 48.8008 25.5902 48.5578 25.6419C45.8658 26.2157 43.3012 27.2763 40.9902 28.7716C40.7822 28.9056 40.5413 28.9798 40.294 28.9862C40.0466 28.9926 39.8023 28.931 39.5875 28.8081L35.6294 26.5446L31.9551 30.2189L34.2186 34.177C34.3415 34.3918 34.4031 34.6362 34.3967 34.8835C34.3903 35.1308 34.316 35.3717 34.1821 35.5797C32.6868 37.8907 31.6262 40.4553 31.0524 43.1473C31.0007 43.3903 30.8831 43.6143 30.7124 43.7948C30.5417 43.9752 30.3246 44.1052 30.0848 44.1703L25.6754 45.3743V50.5716L30.0794 51.7703C30.3191 51.8354 30.5363 51.9653 30.707 52.1458C30.8777 52.3263 30.9953 52.5503 31.047 52.7933C31.6208 55.4853 32.6814 58.0499 34.1767 60.3608C34.3106 60.5689 34.3849 60.8097 34.3913 61.0571C34.3977 61.3044 34.3361 61.5488 34.2132 61.7635L31.9497 65.7216L35.624 69.396L39.5821 67.1325C39.7969 67.0095 40.0412 66.9479 40.2886 66.9544C40.5359 66.9608 40.7768 67.035 40.9848 67.1689C43.2958 68.6642 45.8604 69.7249 48.5524 70.2987C48.7954 70.3503 49.0194 70.468 49.1999 70.6387C49.3803 70.8094 49.5103 71.0265 49.5754 71.2662L50.774 75.6757Z" fill="#FE0182"/>
<path d="M53.3785 66.0946C49.7944 66.0946 46.2907 65.0318 43.3106 63.0405C40.3306 61.0493 38.0079 58.2191 36.6363 54.9078C35.2647 51.5965 34.9058 47.9528 35.605 44.4376C36.3043 40.9223 38.0302 37.6934 40.5645 35.159C43.0989 32.6247 46.3279 30.8988 49.8431 30.1995C53.3584 29.5003 57.002 29.8592 60.3133 31.2308C63.6246 32.6023 66.4548 34.925 68.4461 37.9051C70.4373 40.8852 71.5001 44.3888 71.5001 47.9729C71.4951 52.7776 69.5842 57.384 66.1869 60.7813C62.7895 64.1787 58.1831 66.0896 53.3785 66.0946ZM53.3785 32.554C50.3289 32.554 47.3478 33.4583 44.8122 35.1526C42.2765 36.8468 40.3003 39.2549 39.1332 42.0724C37.9662 44.8898 37.6609 47.99 38.2558 50.981C38.8508 53.972 40.3193 56.7194 42.4756 58.8758C44.632 61.0321 47.3794 62.5007 50.3704 63.0956C53.3614 63.6905 56.4616 63.3852 59.279 62.2182C62.0965 61.0511 64.5046 59.0749 66.1988 56.5392C67.8931 54.0036 68.7974 51.0225 68.7974 47.9729C68.7931 43.8849 67.1672 39.9655 64.2766 37.0749C61.3859 34.1842 57.4665 32.5583 53.3785 32.554Z" fill="#FE0182"/>
</svg>
