<svg width="50" height="50" viewBox="0 0 50 50" fill="none" xmlns="http://www.w3.org/2000/svg">
<path d="M49.6282 40.3529L49.4623 40.187C49.9731 39.4392 50.0601 38.4401 49.6016 37.5958C49.2865 37.0156 48.7639 36.5935 48.1298 36.4072C47.4917 36.2198 46.8174 36.2931 46.232 36.6145L46.011 36.7358L43.9084 34.6332C44.4192 33.8854 44.5063 32.8863 44.0477 32.042C43.7325 31.4617 43.2098 31.0395 42.5757 30.8533C41.9376 30.6659 41.2636 30.7394 40.6781 31.0607L40.4571 31.1819L38.3544 29.0793C38.8652 28.3315 38.9522 27.3324 38.4937 26.4882C38.1786 25.9079 37.6561 25.4858 37.022 25.2995C36.3838 25.112 35.7096 25.1854 35.1241 25.5068L34.9031 25.628L32.8004 23.5254C33.3112 22.7776 33.3984 21.7785 32.9398 20.9343C32.6246 20.354 32.102 19.9319 31.4679 19.7456C30.8296 19.5581 30.1557 19.6317 29.5702 19.9529L29.3493 20.0741L27.2465 17.9715C27.7574 17.2238 27.8444 16.2246 27.3859 15.3804C27.0707 14.8001 26.5482 14.3781 25.9141 14.1917C25.276 14.0042 24.6018 14.0777 24.0163 14.3991L23.7953 14.5203L20.2555 10.9806L21.3152 9.92096C21.6012 9.63492 21.6012 9.17115 21.3152 8.88512C21.0291 8.59909 20.5654 8.59909 20.2793 8.88512L5.67239 23.4916C5.50364 23.6604 5.27933 23.7532 5.04075 23.7532C4.80218 23.7532 4.57777 23.6603 4.40902 23.4916L1.72651 20.8091C1.37817 20.4608 1.37817 19.8941 1.72651 19.5457L19.5461 1.72656C19.7148 1.55771 19.9391 1.46484 20.1777 1.46484C20.4163 1.46484 20.6407 1.55781 20.8094 1.72646L23.4919 4.40897C23.8403 4.75731 23.8403 5.3241 23.4919 5.67244L22.5415 6.62292C22.2554 6.90896 22.2554 7.37273 22.5415 7.65876C22.8276 7.94479 23.2913 7.94479 23.5774 7.65876L24.5279 6.70827C25.4472 5.78875 25.4472 4.29276 24.5279 3.37323L21.8453 0.69072C21.4 0.245312 20.8077 0 20.1777 0C19.5477 0 18.9555 0.245312 18.5101 0.69072L17.7508 1.45009C15.3385 -0.448045 11.8237 -0.287108 9.6003 1.93613L1.93598 9.60035C0.774069 10.7622 0.13413 12.3071 0.13413 13.9502C0.13413 15.3466 0.5978 16.671 1.44965 17.7507L0.690476 18.5099C-0.228857 19.4293 -0.228857 20.9254 0.690476 21.8449L3.37308 24.5274C3.81849 24.9729 4.41068 25.2181 5.04065 25.2181C5.67063 25.2181 6.26282 24.9728 6.70823 24.5273L10.9808 20.2549L12.0163 21.2904C11.5055 22.0382 11.4184 23.0373 11.8769 23.8815C12.192 24.4618 12.7146 24.884 13.3488 25.0702C13.5802 25.1382 13.8161 25.1719 14.051 25.1719C14.4641 25.1719 14.8732 25.0677 15.2466 24.8629L15.4677 24.7416L15.6826 24.9564C15.8256 25.0994 16.0131 25.1709 16.2005 25.1709C16.3879 25.1709 16.5754 25.0994 16.7184 24.9563C16.9755 24.6993 17.0008 24.2991 16.7957 24.013L26.1075 18.9044L28.0112 20.8081L18.7091 25.9114L18.6974 25.8998C18.4113 25.6138 17.9476 25.6138 17.6615 25.8998C17.4072 26.1541 17.3796 26.5485 17.5774 26.834C17.0602 27.5829 16.9703 28.5873 17.4309 29.4355C17.7461 30.0158 18.2687 30.438 18.9028 30.6242C19.1342 30.6922 19.3701 30.7259 19.605 30.7259C20.018 30.7259 20.4273 30.6217 20.8007 30.4169L21.0216 30.2957L23.1244 32.3983C22.6135 33.1461 22.5264 34.1452 22.9849 34.9894C23.3001 35.5697 23.8227 35.9918 24.4569 36.1781C24.6882 36.246 24.9242 36.2797 25.159 36.2797C25.5721 36.2797 25.9813 36.1755 26.3546 35.9708L26.5756 35.8496L28.6784 37.9523C28.1676 38.7 28.0805 39.6991 28.539 40.5434C28.8541 41.1237 29.3768 41.5458 30.0109 41.7321C30.2422 41.8 30.4782 41.8337 30.713 41.8337C31.1261 41.8337 31.5354 41.7295 31.9087 41.5247L32.1297 41.4035L34.2324 43.5062C33.7216 44.2539 33.6345 45.253 34.093 46.0973C34.4081 46.6775 34.9308 47.0997 35.5649 47.2859C35.7962 47.3539 36.0322 47.3876 36.2671 47.3876C36.6802 47.3876 37.0894 47.2835 37.4627 47.0786L37.6837 46.9573L40.3537 49.6273C40.6022 49.8758 40.9286 50 41.2551 50C41.5814 50 41.9078 49.8758 42.1563 49.6273L49.6283 42.1555C50.125 41.6584 50.125 40.8498 49.6282 40.3529ZM2.97191 10.6361L10.6362 2.97186C11.55 2.05819 12.7502 1.60136 13.9505 1.60136C14.9193 1.60136 15.8882 1.89902 16.7064 2.49442L2.49389 16.7066C1.91283 15.9107 1.59907 14.9545 1.59907 13.9502C1.59907 12.6983 2.08656 11.5213 2.97191 10.6361ZM12.0167 19.2192L19.2195 12.0166L22.4573 15.2543L13.1553 20.3576L12.0167 19.2192ZM25.6822 17.467L14.5421 23.5786C14.3007 23.711 14.0235 23.7416 13.7618 23.6648C13.5043 23.5891 13.2921 23.4178 13.1644 23.1824C12.897 22.6899 13.0837 22.0676 13.5807 21.7949L24.7207 15.6834C24.8749 15.5988 25.0437 15.5557 25.2137 15.5557C25.3098 15.5557 25.4065 15.5695 25.501 15.5972C25.7584 15.6729 25.9707 15.8441 26.0984 16.0795C26.3658 16.572 26.179 17.1944 25.6822 17.467ZM20.8119 28.7398C20.8105 28.7405 20.8091 28.7413 20.8078 28.7421L20.0962 29.1325C19.855 29.2649 19.578 29.2958 19.3159 29.2186C19.0584 29.143 18.8462 28.9718 18.7184 28.7364C18.4511 28.2439 18.6378 27.6216 19.1346 27.3489L29.5568 21.6312C29.5605 21.6292 29.5641 21.6271 29.5678 21.6251L30.2747 21.2372C30.4289 21.1527 30.5978 21.1096 30.7678 21.1096C30.8638 21.1096 30.9605 21.1234 31.0549 21.1511C31.3124 21.2267 31.5246 21.398 31.6524 21.6334C31.9198 22.1258 31.7331 22.7482 31.2362 23.0209L20.8119 28.7398ZM22.3595 29.5616L31.6615 24.4583L33.5653 26.362L24.2633 31.4653L22.3595 29.5616ZM26.3664 34.2934C26.3644 34.2944 26.3624 34.2956 26.3606 34.2965L25.65 34.6864C25.4086 34.8188 25.1315 34.8495 24.8698 34.7726C24.6123 34.6969 24.4001 34.5256 24.2723 34.2903C24.0049 33.7978 24.1917 33.1755 24.6886 32.9028L35.1118 27.1845C35.1144 27.1831 35.1169 27.1816 35.1194 27.1803L35.8286 26.7912C35.9828 26.7065 36.1517 26.6635 36.3217 26.6635C36.4178 26.6635 36.5145 26.6772 36.609 26.705C36.8664 26.7807 37.0786 26.9518 37.2063 27.1873C37.4737 27.6798 37.287 28.3021 36.7901 28.5748L26.3664 34.2934ZM27.9134 35.1155L37.2155 30.0122L39.1192 31.9159L29.8171 37.0192L27.9134 35.1155ZM33.4673 40.6695L34.7351 39.974C35.0899 39.7792 35.2195 39.334 35.025 38.9794C34.8306 38.6248 34.3855 38.495 34.0306 38.6896L31.9214 39.8467C31.9184 39.8483 31.9154 39.8501 31.9122 39.8518L31.204 40.2403C30.9628 40.3726 30.6858 40.4035 30.4238 40.3264C30.1662 40.2508 29.954 40.0795 29.8263 39.8442C29.5589 39.3517 29.7456 38.7293 30.2425 38.4567L40.6663 32.738C40.6683 32.737 40.6701 32.7358 40.6721 32.7348L41.3826 32.345C41.624 32.2126 41.9011 32.1821 42.1628 32.2589C42.4203 32.3344 42.6326 32.5057 42.7603 32.7412C43.0277 33.2337 42.841 33.856 42.344 34.1287L36.8997 37.1156C36.545 37.3101 36.4153 37.7553 36.6099 38.11C36.8043 38.4646 37.2494 38.5945 37.6043 38.3998L42.7694 35.5662L44.6731 37.4699L35.3711 42.5732L33.4673 40.6695ZM37.4766 45.3999C37.4723 45.4022 37.4681 45.4046 37.4638 45.4069L36.758 45.7942C36.5167 45.9266 36.2398 45.9573 35.9778 45.8803C35.7203 45.8046 35.5081 45.6334 35.3804 45.398C35.113 44.9055 35.2997 44.2831 35.7967 44.0105L46.2221 38.2909L46.9366 37.8989C47.0908 37.8142 47.2596 37.7711 47.4296 37.7711C47.5257 37.7711 47.6224 37.7849 47.717 37.8126C47.9744 37.8883 48.1866 38.0595 48.3143 38.295C48.5817 38.7874 48.395 39.4098 47.8981 39.6825L37.4766 45.3999ZM41.2549 48.4567L39.0214 46.2232L48.3235 41.1199L48.4577 41.254L41.2549 48.4567Z" fill="#504F50"/>

</svg>
