<svg width="85" height="115" viewBox="0 0 85 115" fill="none" xmlns="http://www.w3.org/2000/svg">
<path d="M45.6774 89.6064C42.6309 99.5607 32.474 105.382 22.481 103.207C21.8529 103.071 21.2239 102.904 20.5992 102.702C10.4853 99.4522 4.68515 88.6718 7.55199 78.4427C9.58308 71.1975 15.3447 66.0546 22.1385 64.4526L37.4792 14.3267C38.2874 11.686 40.091 9.62203 42.3509 8.41967C43.7429 7.68001 45.307 7.26716 46.9201 7.24811C47.9288 7.23452 48.9572 7.37554 49.9752 7.6871C55.2585 9.30404 58.2318 14.8997 56.6148 20.1831L41.2742 70.3089C45.9031 75.3293 47.8202 82.6046 45.6774 89.6064Z" fill="white"/>
<path d="M45.6771 89.6063C42.6306 99.5606 32.4736 105.382 22.4807 103.207C22.5918 102.707 22.7387 102.248 22.9196 101.835C30.6396 101.056 37.5148 95.762 39.9276 87.8781C42.0704 80.8764 39.6854 75.13 35.0559 70.1115L50.865 18.4548C52.1815 14.1531 50.4564 9.64883 46.9198 7.24801C47.9285 7.23442 48.9569 7.37544 49.9749 7.687C55.2582 9.30394 58.2315 14.8996 56.6145 20.183L41.2739 70.3088C45.9028 75.3292 47.8199 82.6045 45.6771 89.6063Z" fill="#F8F8F8"/>
<path d="M36.8512 74.4071C35.4058 72.8388 34.9002 70.6206 35.5245 68.5807L50.8652 18.4549C51.5111 16.3442 50.318 14.1019 48.2093 13.4565C47.7634 13.3201 47.3133 13.266 46.8725 13.2839C45.2227 13.3545 43.7204 14.4476 43.2109 16.1124L27.8702 66.2382C27.2459 68.278 25.5854 69.8333 23.508 70.3235C18.5903 71.4847 14.6867 75.2269 13.3234 80.0919C12.3597 83.5347 12.7717 87.1871 14.4877 90.3743C16.2011 93.5628 19.0201 95.9219 22.4275 97.015C25.0123 97.8416 27.7143 97.9026 30.2698 97.2113C31.2369 96.9506 32.1824 96.5828 33.0917 96.1077C36.4051 94.376 38.8338 91.4527 39.9277 87.8782C41.3643 83.1842 40.1856 78.0226 36.8512 74.4071Z" fill="#D5D5D5"/>
<path d="M36.851 74.4069C35.4056 72.8386 34.9 70.6204 35.5243 68.5805L50.8649 18.4547C51.5109 16.344 50.3178 14.1017 48.2091 13.4563C47.7632 13.3199 47.3131 13.2658 46.8723 13.2837C47.4368 14.2224 47.6176 15.389 47.2721 16.518L30.5844 71.045C29.9602 73.0849 30.4658 75.3031 31.9112 76.8714C35.2456 80.4869 36.4242 85.6485 34.9877 90.3425C34.1426 93.1038 32.5017 95.4771 30.2696 97.2111C31.2367 96.9504 32.1822 96.5827 33.0915 96.1075C36.4049 94.3758 38.8335 91.4525 39.9275 87.878C41.364 83.184 40.1854 78.0224 36.851 74.4069Z" fill="#B6B6B6"/>
<path d="M50.8658 18.455L46.3248 33.2928L38.6705 30.9502L43.2115 16.1125C43.721 14.4477 45.2234 13.3546 46.8732 13.284C47.3139 13.2661 47.7641 13.3202 48.2099 13.4566C50.3187 14.102 51.5117 16.3443 50.8658 18.455Z" fill="#EEEEEE"/>
<path d="M48.2091 13.4563C47.7632 13.3199 47.3131 13.2658 46.8723 13.2837C47.4368 14.2224 47.6176 15.389 47.2721 16.518L42.4968 32.1212L46.3239 33.2925L50.8649 18.4547C51.5109 16.344 50.3178 14.1017 48.2091 13.4563Z" fill="#CFCFCF"/>
<path d="M65.1153 23.5305L79.6152 27.968C80.4079 28.2107 81.247 27.7647 81.4896 26.9721C81.7321 26.1795 81.2864 25.3403 80.4936 25.0977L65.9938 20.6601C65.201 20.4175 64.3619 20.8635 64.1194 21.6561C63.8768 22.4487 64.3225 23.2878 65.1153 23.5305Z" fill="#FE0182"/>
<path d="M63.087 30.157L70.3369 32.3758C71.1297 32.6184 71.9687 32.1724 72.2113 31.3798C72.4539 30.5872 72.0082 29.7481 71.2154 29.5054L63.9654 27.2866C63.1727 27.044 62.3336 27.49 62.091 28.2826C61.8485 29.0752 62.2942 29.9144 63.087 30.157Z" fill="#FE0182"/>
<path d="M76.4155 38.4217L61.9156 33.9841C61.1229 33.7415 60.2838 34.1874 60.0412 34.98C59.7987 35.7726 60.2444 36.6118 61.0372 36.8544L75.537 41.292C76.3298 41.5346 77.1689 41.0887 77.4114 40.2961C77.654 39.5035 77.2083 38.6643 76.4155 38.4217Z" fill="#FE0182"/>
<path d="M59.0098 43.4807L66.2598 45.6995C67.0526 45.9421 67.8916 45.4962 68.1342 44.7036C68.3767 43.911 67.931 43.0718 67.1382 42.8292L59.8883 40.6104C59.0955 40.3677 58.2565 40.8137 58.0139 41.6063C57.7713 42.3989 58.2171 43.2381 59.0098 43.4807Z" fill="#FE0182"/>
<path d="M72.3676 51.6471L57.8678 47.2095C57.075 46.9669 56.236 47.4128 55.9934 48.2054C55.7508 48.998 56.1965 49.8372 56.9893 50.0798L71.4892 54.5174C72.282 54.76 73.121 54.3141 73.3636 53.5215C73.6062 52.7289 73.1604 51.8897 72.3676 51.6471Z" fill="#FE0182"/>
<path d="M54.962 56.7062L62.2119 58.925C63.0047 59.1677 63.8437 58.7217 64.0863 57.9291C64.3289 57.1365 63.8832 56.2973 63.0904 56.0547L55.8404 53.8359C55.0477 53.5933 54.2086 54.0392 53.966 54.8318C53.7235 55.6244 54.1692 56.4636 54.962 56.7062Z" fill="#FE0182"/>
<path d="M68.2827 64.9971L53.7828 60.5595C52.99 60.3169 52.151 60.7629 51.9084 61.5555C51.6659 62.3481 52.1116 63.1872 52.9044 63.4299L67.4042 67.8675C68.197 68.1101 69.036 67.6641 69.2786 66.8715C69.5212 66.0789 69.0755 65.2397 68.2827 64.9971Z" fill="#FE0182"/>
<path d="M59.0044 69.4047L51.7545 67.1859C50.9617 66.9433 50.1227 67.3893 49.8801 68.1819C49.6375 68.9745 50.0833 69.8137 50.8761 70.0563L58.126 72.2751C58.9188 72.5177 59.7578 72.0717 60.0004 71.2791C60.2429 70.4865 59.797 69.6473 59.0044 69.4047Z" fill="#FE0182"/>
<path d="M43.0125 69.7533L54.3287 32.7775C54.5713 31.9849 54.1256 31.1457 53.3328 30.9031C52.54 30.6605 51.701 31.1065 51.4584 31.8991L39.8963 69.6783C39.7402 70.1885 39.8666 70.7431 40.2283 71.1353C44.6431 75.9213 46.1809 82.8306 44.2416 89.1672C42.792 93.9036 39.5756 97.7756 35.1848 100.069C30.7952 102.363 25.7769 102.794 21.0583 101.274C16.5381 99.8216 12.7988 96.6983 10.5296 92.4796C8.26015 88.2605 7.71602 83.4198 8.99712 78.8488C10.8354 72.2896 16.0251 67.2596 22.5406 65.7221C23.0599 65.5995 23.4751 65.2105 23.6312 64.7005L38.9132 14.7665C40.2856 10.282 45.0503 7.75032 49.5348 9.12275C54.0192 10.4952 56.5509 15.2599 55.1785 19.7443L53.4985 25.2336C53.2559 26.0262 53.7017 26.8654 54.4945 27.108C55.2873 27.3506 56.1263 26.9046 56.3689 26.112L58.0488 20.6228C59.9056 14.5556 56.4804 8.10922 50.4132 6.25241C44.3461 4.3956 37.8996 7.82086 36.0428 13.888L21.0069 63.0182C13.8263 65.0284 8.16002 70.7126 6.10663 78.0389C4.61493 83.3616 5.24693 88.995 7.88608 93.9017C10.525 98.8076 14.8769 102.441 20.14 104.132C20.2376 104.164 20.335 104.194 20.4328 104.224C25.8379 105.878 31.5584 105.351 36.575 102.73C41.6833 100.061 45.4256 95.5565 47.1121 90.0457C49.2757 82.9756 47.7022 75.2835 43.0125 69.7533Z" fill="#504F50"/>
<path d="M23.8518 71.7848C26.4375 71.1746 28.5266 69.2174 29.304 66.6771L30.7311 62.0139C30.9737 61.2214 30.5278 60.3821 29.7352 60.1395C28.9426 59.897 28.1033 60.3429 27.8608 61.1355L26.4336 65.7987C25.9672 67.3228 24.7137 68.4973 23.1622 68.8634C17.7127 70.1493 13.3889 74.2968 11.878 79.6873C10.8075 83.5064 11.2642 87.5545 13.1638 91.086C15.0633 94.6176 18.1896 97.231 21.9686 98.4453C22.0338 98.4661 22.0985 98.4863 22.1638 98.5063C26.0596 99.6986 30.179 99.3213 33.7855 97.4373C37.4587 95.5182 40.1493 92.2793 41.3619 88.317C42.9541 83.1146 41.6482 77.3951 37.9538 73.39C36.8731 72.2184 36.4914 70.5437 36.9579 69.0195L52.2985 18.8939C53.1865 15.9922 51.5484 12.9092 48.6467 12.0211C45.7449 11.1331 42.6619 12.7712 41.7739 15.6729L29.9195 54.4073C29.6769 55.1999 30.1228 56.0391 30.9154 56.2817C31.708 56.5243 32.5472 56.0783 32.7898 55.2857L39.6639 32.8245L44.4478 34.2886L34.0876 68.1409C33.3101 70.6813 33.9461 73.4725 35.7475 75.4252C38.7213 78.6489 39.7728 83.2521 38.4916 87.4384C37.516 90.6264 35.351 93.2324 32.3957 94.7767C29.4453 96.3179 26.0676 96.6118 22.8855 95.5867C19.8509 94.6116 17.3373 92.5081 15.8075 89.664C14.2777 86.8198 13.9086 83.5646 14.7685 80.4972C15.9846 76.1583 19.4651 72.8199 23.8518 71.7848ZM40.5428 29.9543L44.6446 16.5515C45.0483 15.2325 46.4496 14.4879 47.7686 14.8916C49.0874 15.2952 49.8322 16.6966 49.4285 18.0156L45.3267 31.4184L40.5428 29.9543Z" fill="#504F50"/>
</svg>
