<svg width="115" height="120" viewBox="0 0 115 120" fill="none" xmlns="http://www.w3.org/2000/svg">
<path d="M102.699 49.7922C101.187 52.4106 97.8395 53.307 95.2218 51.7957C92.6035 50.284 91.7067 46.9371 93.2183 44.3188C94.7297 41.701 98.0769 40.8037 100.695 42.3153C103.313 43.8267 104.21 47.1745 102.699 49.7922Z" fill="#FE0182"/>
<path d="M22.4125 75.3117C20.9012 77.9294 17.554 78.8268 14.9356 77.3151C12.3179 75.8037 11.4209 72.4559 12.9322 69.8382C14.4439 67.2199 17.7914 66.3234 20.4091 67.8348C23.0274 69.3464 23.9242 72.6933 22.4125 75.3117Z" fill="#FE0182"/>
<path d="M81.9514 67.5572C82.9031 64.6047 83.2854 61.5558 83.135 58.5558L87.6122 57.3556L84.84 47.0263L80.3669 48.2249C78.9971 45.5515 77.1415 43.1023 74.8411 41.0212L77.1566 37.0107L67.8944 31.6631L65.5789 35.6737C62.6259 34.7217 59.577 34.3393 56.5769 34.4897L55.3783 30.0166L45.0468 32.7805L46.246 37.2579C43.5727 38.6277 41.1234 40.4833 39.0423 42.7836L35.0208 40.4618L29.6681 49.721L33.6948 52.0458C32.7423 54.9985 32.3599 58.0474 32.5109 61.0478L28.0167 62.252L30.7812 72.5839L35.279 71.3788C36.6485 74.0527 38.5041 76.5019 40.8054 78.5828L38.4745 82.6199L47.7367 87.9674L50.0675 83.9303C53.0197 84.8825 56.0686 85.2649 59.0695 85.1142L60.2747 89.612L70.6041 86.8399L69.3999 82.3457C72.0738 80.9763 74.5231 79.1207 76.6039 76.8194L80.6306 79.1442L85.9781 69.882L81.9514 67.5572ZM51.6038 70.5736C45.6618 67.143 43.6261 59.5457 47.0567 53.6037C50.4873 47.6617 58.0847 45.626 64.0267 49.0566C69.9687 52.4872 72.0044 60.0846 68.5738 66.0265C65.1432 71.9685 57.5458 74.0042 51.6038 70.5736Z" fill="#D9D7D7"/>
<path d="M21.2646 66.3534C20.2028 65.7404 19.0291 65.4161 17.8362 65.3909C16.5964 56.5218 18.3639 47.4138 22.8568 39.6318C33.9862 20.3552 58.7223 13.7271 77.9989 24.8565C80.3424 26.2095 82.5501 27.795 84.5608 29.5693C85.2681 30.1936 86.3498 30.1268 86.9748 29.4184C87.5998 28.71 87.5324 27.6295 86.8243 27.0038C84.6432 25.0796 82.2496 23.3605 79.7094 21.8939C69.5804 16.0459 57.7799 14.4923 46.4824 17.5194C35.1849 20.5466 25.7422 27.7923 19.8942 37.9213C14.975 46.4417 13.0675 56.427 14.4863 66.1339C13.2231 66.7556 12.1711 67.7359 11.4511 68.9829C10.4917 70.6447 10.2372 72.5809 10.7342 74.434C11.2303 76.2874 12.4188 77.8369 14.0806 78.7963C15.7425 79.7558 17.6786 80.0103 19.5323 79.5136C21.3857 79.0175 22.9349 77.8281 23.8944 76.1662C24.8535 74.505 25.109 72.5686 24.6119 70.7155C24.1152 68.8618 22.9264 67.3129 21.2646 66.3534ZM18.6464 76.2093C17.6759 76.4698 16.6614 76.3362 15.7911 75.8337C14.9208 75.3313 14.2984 74.5198 14.0382 73.5487C13.778 72.5776 13.9113 71.5636 14.4137 70.6934C14.9165 69.8225 15.728 69.2001 16.6991 68.9399C17.6697 68.6793 18.6839 68.8135 19.5541 69.316C20.4244 69.8184 21.0468 70.6299 21.3073 71.6004C21.5676 72.5716 21.4343 73.5855 20.9315 74.4564C20.429 75.3266 19.6176 75.9491 18.6464 76.2093Z" fill="#504F50"/>
<path d="M101.145 53.494C104.15 52.0079 105.798 48.5558 104.898 45.1961C104.401 43.343 103.213 41.7935 101.551 40.834C99.889 39.8746 97.9529 39.62 96.0995 40.1162C94.2458 40.6129 92.6969 41.8017 91.7374 43.4635C90.778 45.1254 90.5229 47.0612 91.0196 48.9149C91.5163 50.7686 92.7051 52.3175 94.3669 53.2769C95.4287 53.89 96.6024 54.2143 97.7953 54.2395C99.0347 63.1091 97.2676 72.2166 92.7747 79.9986C81.6453 99.2752 56.9091 105.903 37.6326 94.7739C35.3122 93.4342 33.1239 91.866 31.1295 90.1128C30.4201 89.4895 29.3392 89.559 28.7153 90.2682C28.0916 90.9782 28.1615 92.0585 28.8706 92.6824C31.0342 94.5835 33.4068 96.2843 35.9221 97.7365C46.0511 103.584 57.8516 105.138 69.1491 102.111C80.4466 99.0838 89.8893 91.838 95.7373 81.709C100.657 73.1881 102.564 63.2019 101.145 53.494ZM94.3241 48.0299C94.0639 47.0588 94.1972 46.0448 94.7 45.174C95.2025 44.3037 96.0139 43.6813 96.985 43.4211C97.9556 43.1605 98.9701 43.2942 99.8404 43.7966C100.711 44.2991 101.334 45.1109 101.594 46.082C102.13 48.086 100.937 50.1534 98.933 50.6908C97.9622 50.9504 96.9476 50.8168 96.0774 50.3143C95.2065 49.8116 94.5841 49.0001 94.3241 48.0299Z" fill="#504F50"/>
<path d="M36.9922 81.7643C36.5198 82.5825 36.8006 83.6288 37.6182 84.1009L46.8804 89.4484C47.6986 89.9208 48.7446 89.6405 49.2169 88.8223L50.875 85.9506C53.1253 86.5508 55.433 86.854 57.7647 86.8562L58.6217 90.0544C58.7391 90.4925 59.0256 90.8662 59.419 91.0933C59.8113 91.3198 60.2788 91.3814 60.7172 91.2635L71.0463 88.4919C71.9584 88.247 72.4999 87.309 72.2556 86.3972L71.3997 83.2028C73.4179 82.0349 75.2648 80.6185 76.9136 78.9735L79.7743 80.6252C80.5925 81.0976 81.6385 80.8173 82.1109 79.9991L87.4584 70.7369C87.9308 69.9188 87.6505 68.8728 86.8323 68.4004L83.971 66.7484C84.5709 64.4987 84.8746 62.1913 84.8769 59.8595L88.054 59.0082C88.4921 58.8908 88.8662 58.6038 89.093 58.2109C89.3193 57.8177 89.3808 57.3502 89.2635 56.9121L86.4913 46.5827C86.247 45.6709 85.309 45.1294 84.3963 45.374L81.2234 46.2246C80.0556 44.2064 78.6392 42.3595 76.9942 40.7107L78.6368 37.8656C79.1092 37.0474 78.829 36.0014 78.0108 35.529L68.7486 30.1815C67.931 29.7095 66.8844 29.9894 66.4121 30.8076L64.7691 33.6533C62.5196 33.0528 60.2119 32.7497 57.8802 32.7474L57.0299 29.5739C56.7856 28.6621 55.8479 28.12 54.9355 28.364L44.6042 31.1288C44.1655 31.2459 43.7918 31.5324 43.565 31.9253C43.3382 32.3182 43.2766 32.7856 43.394 33.2237L44.2453 36.4009C42.227 37.5687 40.3804 38.9845 38.7317 40.6295L35.8761 38.9809C35.058 38.5085 34.012 38.7887 33.54 39.6064L28.1872 48.8655C27.9598 49.2581 27.8982 49.7256 28.0156 50.1636C28.133 50.6018 28.4195 50.9755 28.813 51.2026L31.6737 52.8543C31.0735 55.1046 30.7703 57.4123 30.7681 59.7441L27.5736 60.6C26.6618 60.8444 26.1197 61.782 26.3642 62.6947L29.1285 73.0257C29.2459 73.4638 29.532 73.8381 29.9249 74.0649L29.9255 74.0652C30.3184 74.2921 30.7853 74.3533 31.2234 74.2359L34.4209 73.3787C35.5894 75.3972 37.0057 77.2442 38.6502 78.8926L36.9922 81.7643ZM36.8005 70.5987C36.4332 69.8813 35.6145 69.5182 34.8353 69.7264L31.9904 70.4887L30.1106 63.462L32.9531 62.6998C33.7316 62.4912 34.2591 61.7673 34.2185 60.9624C34.0755 58.1085 34.4464 55.2852 35.3224 52.5707C35.5693 51.8036 35.248 50.9677 34.5495 50.5645L32.0053 49.0956L35.6458 42.798L38.1866 44.2649C38.885 44.6682 39.7692 44.5291 40.3104 43.9311C42.223 41.8158 44.4826 40.083 47.0256 38.7799C47.743 38.4126 48.1061 37.5938 47.8975 36.8153L47.1412 33.9908L54.1679 32.1109L54.9235 34.9326C55.1327 35.7115 55.8564 36.2381 56.6616 36.1984C59.5148 36.0551 62.3381 36.426 65.0527 37.302C65.8197 37.5489 66.656 37.227 67.0589 36.5291L68.5194 33.9994L74.819 37.6364L73.3588 40.1656C72.9555 40.864 73.0943 41.7488 73.6926 42.2894C75.8075 44.2026 77.5413 46.4619 78.8438 49.0046C79.2112 49.722 80.0296 50.0857 80.8084 49.8765L83.6302 49.1209L85.5156 56.1462L82.6916 56.9029C81.9122 57.1117 81.3853 57.836 81.4259 58.6409C81.5689 61.4948 81.1974 64.3177 80.3223 67.032C80.0745 67.7993 80.3967 68.635 81.0952 69.0382L83.6406 70.5078L80.0035 76.8074L77.4581 75.3378C76.7597 74.9345 75.8751 75.0742 75.3343 75.6716C73.4217 77.7869 71.1618 79.5203 68.6191 80.8228C67.9014 81.1907 67.5382 82.0095 67.7468 82.788L68.5084 85.6302L61.4831 87.5156L60.7205 84.6712C60.5116 83.8918 59.7874 83.3649 58.9825 83.4055C56.1286 83.5485 53.3057 83.177 50.5914 82.3019C49.8237 82.0547 48.9884 82.3763 48.5852 83.0747L47.1096 85.6306L40.81 81.9935L42.2856 79.4377C42.6885 78.7398 42.5491 77.8547 41.9518 77.3139C39.8365 75.4013 38.1036 73.1417 36.8005 70.5987Z" fill="#504F50"/>
<path d="M70.0556 66.8818C73.9522 60.1327 71.6316 51.472 64.8824 47.5753C58.1332 43.6787 49.4725 45.9993 45.5759 52.7485C41.6793 59.4977 43.9999 68.1584 50.7491 72.055C57.4982 75.9516 66.1589 73.631 70.0556 66.8818ZM48.5385 54.459C51.4921 49.3433 58.0563 47.5844 63.1719 50.5379C68.2876 53.4915 70.0462 60.0563 67.093 65.1714C64.1397 70.2865 57.5752 72.0459 52.4595 69.0924C47.3438 66.1388 45.585 59.5747 48.5385 54.459Z" fill="#504F50"/>
<path d="M90.1146 35.371C90.5046 35.5961 90.978 35.6581 91.4124 35.5417C91.8479 35.4235 92.2269 35.1331 92.4521 34.7431C92.6759 34.3555 92.7388 33.8818 92.6228 33.4453C92.5064 33.0108 92.216 32.6318 91.826 32.4066C91.4349 32.1808 90.9632 32.1198 90.5287 32.2363C90.0927 32.3541 89.7143 32.6433 89.4895 33.0327C89.2637 33.4238 89.2024 33.8961 89.3184 34.3326C89.4348 34.7671 89.7234 35.1451 90.1146 35.371Z" fill="#504F50"/>
<path d="M25.5663 84.3234C25.1768 84.0985 24.7028 84.0363 24.2684 84.1527C23.8339 84.2691 23.4546 84.56 23.2297 84.9494C23.0039 85.3406 22.9426 85.8129 23.059 86.2473C23.1754 86.6818 23.4664 87.0611 23.8558 87.286C24.2452 87.5108 24.7192 87.5731 25.1537 87.4567C25.5881 87.3403 25.9675 87.0493 26.1923 86.6599C26.4172 86.2705 26.4794 85.7965 26.363 85.362C26.2466 84.9276 25.9557 84.5482 25.5663 84.3234Z" fill="#504F50"/>
</svg>
