<svg width="20" height="20" viewBox="0 0 20 20" fill="none" xmlns="http://www.w3.org/2000/svg">
<g clip-path="url(#clip0)">
<path d="M17.9281 6.58567L17.9281 6.58564C17.4918 5.53254 16.8524 4.57541 16.0462 3.76937C15.2401 2.96316 14.2831 2.32374 13.2299 1.88757C12.4445 1.56218 11.6172 1.35463 10.7745 1.2701C10.0423 1.19666 9.4832 1.7993 9.4832 2.47701C9.4832 3.17887 10.0467 3.69613 10.6784 3.77551C11.2252 3.84424 11.7616 3.98595 12.273 4.19767C13.0228 4.50831 13.7042 4.96363 14.2781 5.5376L14.2782 5.53764C14.852 6.11137 15.3073 6.79282 15.6179 7.54259C15.8297 8.054 15.9714 8.5904 16.0401 9.13726C16.1195 9.76889 16.6368 10.3324 17.3386 10.3324C18.0163 10.3324 18.619 9.77337 18.5455 9.04114C18.461 8.19844 18.2534 7.37108 17.9281 6.58567ZM12.7192 8.74329L12.7193 8.74338L14.4846 8.01202L14.8769 7.84954C14.8769 7.84954 14.8769 7.84953 14.8769 7.84953C14.6066 7.1969 14.2104 6.60403 13.711 6.10461C13.2115 5.60519 12.6186 5.20907 11.9661 4.93879L11.8036 5.33109L11.9661 4.93879C11.5627 4.77171 11.1414 4.65473 10.7116 4.58975C10.0056 4.48301 9.4832 5.07271 9.4832 5.69705C9.4832 6.35854 10.0138 6.81662 10.555 6.93436C10.7315 6.97276 10.9046 7.02687 11.0723 7.09627C11.4416 7.24931 11.777 7.47344 12.0596 7.75608L12.0597 7.75617C12.3422 8.03864 12.5663 8.37398 12.7192 8.74329ZM1.22675 4.1283V8.25652C1.22675 13.9629 5.85271 18.5889 11.5591 18.5889H15.6873C16.3778 18.5889 16.9376 18.0291 16.9376 17.3386V13.2104C16.9376 12.5199 16.3778 11.9601 15.6873 11.9601H12.3847C11.6942 11.9601 11.1345 12.5199 11.1345 13.2104C11.1345 13.9273 10.5704 14.3841 10.0293 14.2464C7.84541 13.6904 6.12523 11.9702 5.56926 9.78635C5.4315 9.24525 5.88833 8.68114 6.60524 8.68114C7.29574 8.68114 7.8555 8.12134 7.8555 7.43088V4.1283C7.8555 3.43784 7.29574 2.87804 6.60524 2.87804H2.47701C1.78651 2.87804 1.22675 3.43784 1.22675 4.1283Z" stroke="#5F5F5F" stroke-width="0.849234"/>
</g>
<defs>
<clipPath id="clip0">
<rect width="19.8155" height="19.8155" fill="white"/>
</clipPath>
</defs>
</svg>
