<svg width="22" height="22" viewBox="0 0 22 22" fill="none" xmlns="http://www.w3.org/2000/svg">
<path d="M20.7658 7.39045H18.5427L15.4484 1.54588C15.2815 1.23053 14.8906 1.11022 14.5751 1.27718C14.2597 1.44414 14.1394 1.83518 14.3064 2.15053L17.0806 7.39045H4.9157L7.68987 2.15053C7.85683 1.83518 7.73652 1.44414 7.42116 1.27718C7.1059 1.11026 6.71477 1.23053 6.54781 1.54588L3.45351 7.39045H1.23423C0.553688 7.39045 0 7.94414 0 8.62469V10.06C0 10.7119 0.508115 11.247 1.14912 11.291L3.31675 20.303C3.38657 20.5934 3.64631 20.798 3.94495 20.798H18.0508C18.3493 20.798 18.6089 20.5935 18.6789 20.3034L20.8516 11.2909C21.4923 11.2466 22 10.7116 22 10.06V8.62469C22 7.94414 21.4464 7.39045 20.7658 7.39045ZM1.29226 8.68271H20.7077V10.0019H1.29226V8.68271ZM18.688 14.7518H15.8591L16.2908 11.2942H19.5215L18.688 14.7518ZM11.647 19.5058V16.044H14.3954L13.9632 19.5058H11.647ZM8.03843 19.5058L7.60583 16.044H10.3548V19.5058H8.03843ZM2.47902 11.2942H5.71L6.14209 14.7518H3.31067L2.47902 11.2942ZM7.01225 11.2942H10.3548V14.7518H7.44434L7.01225 11.2942ZM11.647 14.7518V11.2942H14.9885L14.5568 14.7518H11.647ZM3.62146 16.044H6.30353L6.73614 19.5058H4.4541L3.62146 16.044ZM17.5419 19.5058H15.2655L15.6977 16.044H18.3764L17.5419 19.5058Z" fill="#5F5F5F"/>
</svg>
