<svg width="102" height="99" viewBox="0 0 102 99" fill="none" xmlns="http://www.w3.org/2000/svg">
<path d="M46.4818 3.53293C48.2882 -0.278484 53.7118 -0.278473 55.5182 3.53294L67.0408 27.8444C67.7697 29.3822 69.2308 30.4438 70.9186 30.6618L97.6008 34.1077C101.784 34.648 103.46 39.8061 100.393 42.7019L80.8324 61.1732C79.595 62.3416 79.0369 64.0592 79.3512 65.7318L84.3191 92.173C85.098 96.3183 80.7102 99.5061 77.0085 97.4844L53.3966 84.5889C51.903 83.7732 50.097 83.7732 48.6034 84.5889L24.9915 97.4845C21.2898 99.5061 16.9021 96.3183 17.6809 92.173L22.6488 65.7318C22.9631 64.0592 22.405 62.3416 21.1676 61.1732L1.60676 42.7019C-1.45989 39.8061 0.216083 34.648 4.39917 34.1077L31.0814 30.6618C32.7692 30.4438 34.2303 29.3822 34.9592 27.8444L46.4818 3.53293Z" fill="#FE0182"/>
</svg>
