<svg width="117" height="113" viewBox="0 0 117 113" fill="none" xmlns="http://www.w3.org/2000/svg">
<path d="M52.6263 5.89512C54.9747 0.940292 62.0253 0.940294 64.3737 5.89513L75.7823 29.966C77.1672 32.888 79.9432 34.9049 83.1501 35.319L109.568 38.731C115.006 39.4333 117.185 46.1388 113.198 49.9033L93.8311 68.1919C91.4801 70.4119 90.4198 73.6753 91.0168 76.8532L95.9356 103.033C96.9481 108.422 91.2441 112.566 86.4318 109.938L63.0535 97.1698C60.2157 95.6199 56.7843 95.6199 53.9465 97.1698L30.5682 109.938C25.7559 112.566 20.0519 108.422 21.0644 103.033L25.9832 76.8532C26.5802 73.6753 25.5199 70.4119 23.1689 68.1919L3.80156 49.9033C-0.18508 46.1388 1.99367 39.4333 7.43169 38.731L33.8499 35.319C37.0568 34.9049 39.8328 32.888 41.2177 29.966L52.6263 5.89512Z" fill="#E4E4E4" stroke="#FE0182" stroke-width="3"/>
</svg>
