<svg width="246" height="155" viewBox="0 0 246 155" fill="none" xmlns="http://www.w3.org/2000/svg">
<path d="M56.0896 125.339C54.2858 128.219 51.1264 129.969 47.7276 129.969L18.2012 129.969C12.7523 129.969 8.33519 125.552 8.33519 120.103L8.33518 33.4055C8.33518 27.9566 12.7523 23.5395 18.2011 23.5395L102.014 23.5395C109.767 23.5395 114.491 32.0705 110.376 38.6414L56.0896 125.339Z" fill="#8B8A8A"/>
<path d="M243.367 86.2564L228.919 88.7231C222.894 89.7518 217.393 85.1102 217.393 78.9978L217.393 9.60201L234.517 17.1198C239.894 19.4806 243.367 24.7977 243.367 30.6704L243.367 86.2564Z" fill="#8B8A8A"/>
<path d="M209.157 16.8314L209.157 140.999C209.157 151.768 202.822 153.669 195.853 151.769L126.801 137.198L10.2218 137.198C5.68115 137.198 2.00018 133.517 2.00018 128.976L2.00017 29.986C2.00017 22.721 7.8897 16.8314 15.1548 16.8314L123 16.8314C141.583 12.8192 182.17 4.28795 195.853 2.26073C209.537 0.233505 209.157 10.4962 209.157 16.8314Z" stroke="#323232" stroke-width="3.28866"/>
<path d="M205.356 3.26685C214.436 8.12374 231.963 14.2976 238.298 18.0986C243.079 20.9668 244 25.0672 244 28.2347L244 127.062C244 130.863 244.023 134.275 238.298 136.565C231.963 139.099 213.803 146.912 205.356 151.135" stroke="#323232" stroke-width="3.28866"/>
<path d="M31.5186 76.7537C31.5186 74.1631 33.6187 72.063 36.2094 72.063C38.8 72.063 40.9001 74.1631 40.9001 76.7537C40.9001 79.3444 38.8 81.4445 36.2094 81.4445C33.6187 81.4445 31.5186 79.3444 31.5186 76.7537Z" fill="#CFCFCF" stroke="#323232" stroke-width="3.28866"/>
<path d="M181.594 73.9319L182.061 74.0254L182.506 73.8543C185.228 72.8078 187.268 72.9153 188.519 73.5029C189.68 74.0483 190.408 75.1149 190.408 76.7539C190.408 78.7401 189.59 79.8548 188.413 80.4176C187.113 81.0394 185.054 81.1345 182.436 80.2619L181.942 80.0973L181.444 80.2468C178.595 81.1014 176.559 80.7491 175.309 80.0103C174.072 79.2794 173.424 78.0782 173.424 76.7539C173.424 75.5222 173.976 74.6682 175.153 74.1331C176.455 73.5411 178.597 73.3326 181.594 73.9319Z" stroke="#323232" stroke-width="3.28866"/>
</svg>
