<svg width="244" height="153" viewBox="0 0 244 153" fill="none" xmlns="http://www.w3.org/2000/svg">
<rect x="125.907" y="23.9178" width="108.888" height="103.882" rx="9.86597" fill="#F7F7F7"/>
<path d="M2 28.6533C2 23.1699 5.40143 18.2616 10.5357 16.3362L37.0444 6.39551V145.947L10.7662 134.216C5.43389 131.835 2 126.542 2 120.702V28.6533Z" fill="#DEDEDE"/>
<path d="M37.0445 135.934V13.2791C37.0445 2.64072 43.3024 0.763188 50.1861 2.64063L118.397 17.0339H233.457C237.998 17.0339 241.679 20.7148 241.679 25.2555V122.78C241.679 130.045 235.789 135.934 228.524 135.934H122.152C103.796 139.898 63.7032 148.325 50.1861 150.328C36.669 152.33 37.0445 142.192 37.0445 135.934Z" stroke="#323232" stroke-width="3.28866"/>
<path d="M40.7993 148.45C31.8296 143.653 14.5161 138.438 8.25814 134.683C3.53594 131.85 2.62603 127.799 2.62598 124.67V27.0466C2.62598 23.2918 2.60324 19.9216 8.25814 17.6597C14.5161 15.1565 32.4555 7.43843 40.7993 3.26648" stroke="#323232" stroke-width="3.28866"/>
<path d="M64.1863 76.4841C64.1863 79.1994 62.2423 81.0977 60.1985 81.0977C58.1548 81.0977 56.2107 79.1994 56.2107 76.4841C56.2107 73.7689 58.1548 71.8705 60.1985 71.8705C62.2423 71.8705 64.1863 73.7689 64.1863 76.4841Z" stroke="#323232" stroke-width="3.28866"/>
<rect x="206.008" y="73.9809" width="16.2706" height="7.50951" rx="3.75475" fill="#FE0182"/>
</svg>
