<svg width="25" height="20" viewBox="0 0 25 20" fill="none" xmlns="http://www.w3.org/2000/svg">
<path d="M8.01758 19.8218C17.1039 19.8218 22.0738 12.2938 22.0738 5.7656C22.0738 5.55178 22.0738 5.33893 22.0593 5.12704C23.0261 4.42771 23.8607 3.56181 24.524 2.56988C23.6224 2.96959 22.666 3.2316 21.6866 3.34714C22.7179 2.72981 23.4898 1.75873 23.8585 0.61469C22.8888 1.19018 21.8278 1.59572 20.7215 1.81381C19.9767 1.0218 18.9915 0.497348 17.9186 0.321617C16.8457 0.145886 15.7447 0.32867 14.7861 0.841685C13.8276 1.3547 13.0648 2.16934 12.6158 3.15956C12.1669 4.14977 12.0568 5.26034 12.3026 6.31941C10.3385 6.22089 8.41712 5.71045 6.66309 4.82124C4.90905 3.93203 3.36161 2.68391 2.12119 1.15791C1.48945 2.24546 1.29596 3.53289 1.58012 4.75809C1.86428 5.98329 2.60471 7.05413 3.65067 7.75258C2.86445 7.72954 2.09535 7.51744 1.40846 7.13424V7.19684C1.40877 8.33742 1.8036 9.44277 2.52598 10.3254C3.24836 11.2081 4.25382 11.8137 5.37181 12.0395C4.64452 12.2379 3.88142 12.2669 3.14116 12.1243C3.45697 13.1058 4.07159 13.9642 4.89911 14.5793C5.72662 15.1944 6.72566 15.5355 7.75657 15.555C6.7323 16.3601 5.55934 16.9554 4.3048 17.3068C3.05026 17.6581 1.73875 17.7587 0.445312 17.6027C2.70453 19.0524 5.33321 19.8215 8.01758 19.8179" fill="white"/>
</svg>
